<svg  xmlns="http://www.w3.org/2000/svg"  
	 viewBox="0 0 512 512" >
<g id="beer-big">
	<g>
		<path style="opacity:0.5;fill:#F0EFEE;" d="M331.047,154.751c0,0,9.212-5.264,28.294-4.606
			c19.082,0.658,46.718,19.082,46.718,48.034s-8.554,127.651-83.565,127.651c0-7.896,0-29.61,0-29.61s25.004,4.606,44.744-32.242
			c19.74-36.848,12.502-85.539-8.554-85.539s-28.952,8.554-28.952,8.554L331.047,154.751z"/>
		<path style="opacity:0.4;fill:#F0EFEE;" d="M331.047,154.751c0,0,9.212-5.264,28.294-4.606
			c19.082,0.658,46.718,19.082,46.718,48.034s-8.554,127.651-83.565,127.651c0-7.896,0-29.61,0-29.61s25.004,4.606,44.744-32.242
			c19.74-36.848,12.502-85.539-8.554-85.539s-28.952,8.554-28.952,8.554L331.047,154.751z"/>
		<g>
			<defs>
				<path id="SVGID_1_" d="M321.833,358.99c-0.722,18.054-19.499,29.609-19.499,29.609l-2.167,18.776
					c0,0-16.61,21.665-67.884,21.665s-70.051-21.665-70.051-21.665l-0.722-14.443c0,0-20.221-14.443-23.11-33.942
					c-2.889-19.499-16.61-235.428-16.61-235.428h211.596C333.388,123.561,322.555,340.935,321.833,358.99z"/>
			</defs>
			<clipPath id="SVGID_2_">
				<use xlink:href="#SVGID_1_"  style="overflow:visible;"/>
			</clipPath>
			<rect x="116.221" y="113.712" style="clip-path:url(#SVGID_2_);fill:#F0EFEE;" width="236.878" height="44.17"/>
			<rect x="109.641" y="153.192" style="clip-path:url(#SVGID_2_);fill:#F3BE58;" width="244.116" height="280.306"/>
			<path style="opacity:0.2;clip-path:url(#SVGID_2_);fill:#F0EFEE;" d="M298.372,392.239
				c-16.893,7.566-41.098,12.307-67.989,12.307s-51.096-4.741-67.989-12.307c-5.526,4.273-8.668,9.128-8.668,14.281
				c0,17.08,34.32,30.926,76.656,30.926c42.336,0,76.656-13.846,76.656-30.926C307.039,401.367,303.898,396.512,298.372,392.239z"/>
		</g>
		<path style="fill:#F0EFEE;" d="M123.459,139.374c0,0,7.238-3.29-9.212-14.476s-4.606-29.61,2.632-33.558
			c7.238-3.948,13.818-11.186,23.03-7.238c9.212,3.948,32.242,30.926,63.168,27.636s64.484-8.554,76.985-0.658
			c12.502,7.896,44.086,0.658,54.614,7.896s-1.974,18.424-2.632,28.294C331.385,157.14,123.459,139.374,123.459,139.374z"/>
		<circle style="fill:#F0EFEE;" cx="187.284" cy="142.335" r="24.675"/>
		<circle style="fill:#F0EFEE;" cx="166.886" cy="161.746" r="18.095"/>
		<circle style="fill:#F0EFEE;" cx="146.488" cy="143.322" r="18.095"/>
	</g>
</g>
</svg>
