<svg  xmlns="http://www.w3.org/2000/svg"  
	 viewBox="0 0 512 512" >
<g id="beer-medium">
	<g>
		<g>
			<defs>
				<path id="SVGID_1_" d="M263.639,396.674c45.399-0.873,50.855-20.08,50.855-20.08s9.604-126.156,10.913-141.871
					c1.31-15.715,9.604-41.906,9.604-51.51s-4.365-22.263-4.365-31.43s1.746-31.866,1.746-31.866h-68.753h-15.278h-68.753
					c0,0,1.746,22.699,1.746,31.866s-4.365,21.826-4.365,31.43s8.294,35.795,9.604,51.51c1.31,15.715,10.913,141.871,10.913,141.871
					s5.457,19.207,50.855,20.08H263.639z"/>
			</defs>
			<clipPath id="SVGID_2_">
				<use xlink:href="#SVGID_1_"  style="overflow:visible;"/>
			</clipPath>
			<rect x="156.33" y="92.869" style="clip-path:url(#SVGID_2_);fill:#F0EFEE;" width="226.505" height="57.136"/>
			<rect x="170.954" y="150.005" style="clip-path:url(#SVGID_2_);fill:#F3BE58;" width="166.648" height="257.113"/>
		</g>
		<path style="opacity:0.2;fill:#F0EFEE;" d="M301.897,371.665c-6.721,5.431-24.729,9.32-45.897,9.32s-39.176-3.889-45.897-9.32
			c-2.473,1.848-3.842,3.875-3.842,6.004c0,8.593,22.269,15.559,49.739,15.559s49.739-6.966,49.739-15.559
			C305.739,375.54,304.37,373.512,301.897,371.665z"/>
		<path style="fill:#F0EFEE;" d="M179.608,119.917c0,0-1.857-6.096,36.322-4.24s78.215-1.856,96.509,0.53
			c18.294,2.386,21.211-2.121,19.62,9.015C330.468,136.358,179.608,119.917,179.608,119.917z"/>
		<ellipse style="fill:#FFFFFF;" cx="216.87" cy="211.402" rx="3.642" ry="3.902"/>
		<path style="fill:#F0EFEE;" d="M193.061,149.835c0,0,7.142-0.34,9.013,4.761s6.972,18.195,5.782,25.677s1.02,17.685,2.721,25.677
			s3.571,9.693,5.612,9.693c2.041,0,3.021,0.498,5.952-6.462c4.081-9.693-0.255-18.365,1.007-27.118
			c1.721-11.935,9.366-30.358,15.998-32.229C245.776,147.964,185.408,145.754,193.061,149.835z"/>
	</g>
</g>
</svg>
