<svg  xmlns="http://www.w3.org/2000/svg"  
	 viewBox="0 0 512 512" >
<g id="beer-small">
	<g>
		<path style="fill:#2B0009;" d="M256,430.269c0,0,4.296,0.573,26.633-1.146c22.337-1.718,20.619-20.046,20.619-20.046
			s0-142.043,0-158.08s-10.882-29.783-13.173-34.365c-2.291-4.582-7.446-12.028-7.446-12.028s-4.582-108.251-4.582-112.833
			c-5.927-2.218-0.573-5.217-0.573-5.217L256,84.325l-21.478,2.229c0,0,3.784,2.172-0.573,5.217
			c0,4.582-4.582,112.833-4.582,112.833s-5.155,7.446-7.446,12.028c-2.291,4.582-13.173,18.328-13.173,34.365s0,158.08,0,158.08
			s-1.718,18.328,20.619,20.046S256,430.269,256,430.269z"/>
		<path style="fill:#5C1F12;" d="M258.942,427.258c-1.903,0-2.548-0.067-2.574-0.07l-0.453-0.06l-0.325,0.065
			c-0.008,0-0.662,0.064-2.529,0.064h-0.002c-3.417,0-10.26-0.213-23.454-1.228c-6.49-0.499-11.296-2.551-14.284-6.096
			c-3.917-4.648-3.489-10.509-3.484-10.567l0.013-0.144V250.997c0-12.093,6.891-23.191,10.593-29.153
			c0.979-1.577,1.752-2.823,2.253-3.824c2.168-4.335,7.172-11.577,7.222-11.65l0.511-0.738l0.038-0.896
			c0.178-4.196,4.146-97.984,4.552-111.504c1.435-1.453,1.929-3.011,2.074-4.165c0.071-0.565,0.07-1.114,0.018-1.639h33.159
			c-0.144,0.77-0.162,1.586,0.015,2.425c0.245,1.165,0.931,2.651,2.713,3.836c0.475,15.043,4.361,106.894,4.537,111.046l0.038,0.896
			l0.511,0.738c0.05,0.073,5.057,7.32,7.221,11.649c0.501,1.002,1.275,2.248,2.254,3.825c3.702,5.962,10.592,17.06,10.592,29.153
			v158.226l0.013,0.144c0.004,0.042,0.442,5.962-3.533,10.626c-2.991,3.51-7.781,5.541-14.234,6.037
			C269.2,427.045,262.358,427.258,258.942,427.258z"/>
		<g>
			<g>
				<defs>
					<path id="SVGID_1_" d="M256,430.269c0,0,4.296,0.573,26.633-1.146c22.337-1.718,20.619-20.046,20.619-20.046
						s0-142.043,0-158.08s-10.882-29.783-13.173-34.365c-2.291-4.582-7.446-12.028-7.446-12.028s-4.582-108.251-4.582-112.833
						c-5.927-2.218-0.573-4.103-0.573-4.103s4.866-6.029-21.478-6.029s-21.478,6.029-21.478,6.029s3.784,1.058-0.573,4.103
						c0,4.582-4.582,112.833-4.582,112.833s-5.155,7.446-7.446,12.028c-2.291,4.582-13.173,18.328-13.173,34.365s0,158.08,0,158.08
						s-1.718,18.328,20.619,20.046S256,430.269,256,430.269z"/>
				</defs>
				<clipPath id="SVGID_2_">
					<use xlink:href="#SVGID_1_"  style="overflow:visible;"/>
				</clipPath>
				<ellipse style="clip-path:url(#SVGID_2_);fill:#2B0009;" cx="256.303" cy="86.032" rx="34.103" ry="7.885"/>
				<ellipse style="clip-path:url(#SVGID_2_);fill:#2B0009;" cx="256.611" cy="425.67" rx="59.57" ry="14.272"/>
				<path style="opacity:0.2;clip-path:url(#SVGID_2_);fill:#F0EFEE;" d="M220.827,414.224
					c-0.017-6.354-0.409-164.707,0.004-170.905c0.314-4.71,4.493-14.176,7.545-21.088c1.147-2.598,2.138-4.842,2.475-5.852
					c1.094-3.284,3.171-9.189,3.639-10.517l3.992-113.07l3.694,0.418l-3.986,113.354l-0.095,0.268
					c-0.025,0.07-2.491,7.059-3.712,10.724c-0.392,1.177-1.367,3.385-2.601,6.179c-2.774,6.283-6.966,15.778-7.236,19.833
					c-0.405,6.07,0,168.493,0.004,170.047L220.827,414.224z"/>
			</g>
		</g>
	</g>
</g>
</svg>
