<svg  xmlns="http://www.w3.org/2000/svg"  
	 viewBox="0 0 512 512" >
<g id="briefcase">
	<g>
		<path style="fill:#9B5825;" d="M58.905,132.589v96.551v170.598v13.793c0,14.519,11.615,26.134,26.134,26.134h341.921
			c14.519,0,26.134-11.615,26.134-26.134v-13.793V229.14v-96.551H58.905z"/>
		<g>
			<path style="opacity:0.2;fill:#D7D6CF;enable-background:new    ;" d="M452.369,414.257v-13.793v-98.729H58.905v98.003v13.793
				c0,14.519,11.615,26.134,26.134,26.134h341.921C440.754,439.665,452.369,428.049,452.369,414.257z"/>
		</g>
		<polygon style="fill:#DF7B28;" points="255.637,285.764 58.905,269.067 58.905,132.589 452.369,132.589 452.369,269.067 		"/>
		<rect x="230.955" y="301.735" style="fill:#D4D1C6;" width="50.09" height="39.927"/>
		<rect x="230.955" y="301.735" style="opacity:0.1;fill:#37373C;enable-background:new    ;" width="50.09" height="6.534"/>
		<rect x="230.955" y="132.589" style="fill:#BC6328;" width="50.09" height="153.175"/>
		<rect x="220.792" y="282.86" style="fill:#D4D1C6;" width="69.691" height="18.875"/>
		<g>
			<polygon style="fill:#D27028;" points="313.713,72.335 197.561,72.335 165.62,110.811 165.62,132.589 197.561,132.589 
				197.561,102.099 313.713,102.099 313.713,132.589 345.655,132.589 345.655,110.811 			"/>
			<rect x="197.561" y="72.335" style="opacity:0.1;fill:#37373C;enable-background:new    ;" width="116.152" height="30.49"/>
		</g>
	</g>
</g>
</svg>
