<svg  xmlns="http://www.w3.org/2000/svg"  
	 viewBox="0 0 512 512" >
<g id="bullhorn">
	<g>
		<rect x="75.44" y="162.035" style="fill:#BD4D5E;" width="111.161" height="128.972"/>
		<path style="fill:#DBDCDC;" d="M426.12,362.862c-95.193-79.84-239.519-71.856-239.519-71.856V162.035
			c0,0,140.64-3.071,235.834-84.139C422.435,111.675,426.12,314.344,426.12,362.862z"/>
		<rect x="63.157" y="179.231" style="fill:#C7C8C9;" width="12.283" height="101.335"/>
		<rect x="422.435" y="67.456" style="fill:#C7C8C9;" width="26.408" height="302.776"/>
		<path style="fill:#DBDCDC;" d="M203.183,429.19c-12.283,2.457-77.997,13.511-85.367,15.354
			c-17.196-62.643-17.196-153.538-17.196-153.538h72.47C173.09,291.007,181.688,369.004,203.183,429.19z"/>
		<g>
			<path style="opacity:0.05;fill:#37373C;enable-background:new    ;" d="M203.183,429.19
				c-21.495-60.187-30.093-138.184-30.093-138.184h-29.479c3.685,45.447,11.055,113.004,25.794,144.325
				C184.144,432.261,197.656,429.805,203.183,429.19z"/>
		</g>
	</g>
</g>
</svg>
