<svg  xmlns="http://www.w3.org/2000/svg"  
	 viewBox="0 0 512 512" >
<g id="cart">
	<g>
		<path style="fill:#949EA6;" d="M427.756,406.663H154.743c-3.559,0-10.048-1.656-12.213-4.481
			c-2.165-2.824-2.892-6.495-1.966-9.932l20.434-75.896c1.642-6.102,7.921-9.718,14.02-8.072c6.101,1.643,9.714,7.919,8.072,14.02
			l-16.553,61.482h261.219c6.317,0,11.439,5.122,11.439,11.439S434.073,406.663,427.756,406.663z"/>
		<path style="fill:#949EA6;" d="M126.031,161.821c-5.411,0-10.22-3.854-11.236-9.366c-5.159-27.964-22.603-25.796-22.777-25.768
			c-7.008,1.195-22.752,0.413-27.41,0.144c-6.307-0.363-11.125-5.771-10.762-12.078c0.363-6.307,5.755-11.139,12.078-10.763
			c8.305,0.478,19.172,0.667,22.247,0.144c6.707-1.146,17.376,0.009,27.205,6.678c7.823,5.309,17.976,16.123,21.918,37.492
			c1.146,6.213-2.961,12.179-9.174,13.325C127.418,161.759,126.72,161.821,126.031,161.821z"/>
		<path style="fill:#D1D2D1;" d="M271.448,60.527l-55.293,10.877l-1.813-10.424c0-0.906-0.906-1.36-1.813-1.36l-15.863,3.173
			c-0.906,0-1.36,0.906-1.36,1.813l1.813,10.424l-55.293,10.877c-2.266,0.453-3.626,2.719-3.173,4.532l14.956,77.501
			c0.453,2.266,2.719,3.626,4.532,3.173l130.075-24.927c2.266-0.453,3.626-2.719,3.173-4.532l-14.956-77.501
			C275.98,61.434,273.714,60.074,271.448,60.527z M221.593,82.735l-25.381,4.985c-1.36,0.453-2.719-0.453-3.173-2.266
			c-0.453-1.36,0.453-2.719,2.266-3.173l25.381-4.985c1.36-0.453,2.719,0.453,3.173,2.266
			C223.859,80.923,222.953,82.282,221.593,82.735z"/>
		<path style="fill:#A19F9E;" d="M454.37,109.444l-53.48-18.129l3.626-9.971c0.453-0.906,0-1.813-0.906-2.266l-15.41-5.439
			c-0.906-0.453-1.813,0-2.266,0.906l-3.626,9.971l-53.48-18.129c-2.266-0.906-4.532,0.453-4.986,2.266l-25.381,74.329
			c-0.906,2.266,0.453,4.532,2.266,4.986l125.543,43.056c2.266,0.906,4.532-0.453,4.985-2.266l25.381-74.329
			C457.543,112.616,456.636,110.35,454.37,109.444z M399.983,104.005l-24.474-8.158c-1.36-0.453-2.266-1.813-1.813-3.173
			s1.813-2.266,3.173-1.813l24.474,8.158c1.36,0.453,2.266,1.813,1.813,3.173C402.702,103.552,401.343,104.458,399.983,104.005z"/>
		<path style="fill:#B2B2B1;" d="M347.136,100.002l-56.2-6.345l1.36-10.877c0-0.906-0.453-1.813-1.36-1.813l-16.316-1.813
			c-0.906,0-1.813,0.453-1.813,1.36l-1.36,10.877l-56.2-6.345c-2.266-0.453-4.079,1.36-4.532,3.626l-9.064,78.408
			c-0.453,2.266,1.36,4.079,3.626,4.532l131.888,14.956c2.266,0.453,4.079-1.36,4.532-3.626l9.064-78.408
			C350.762,102.268,349.402,100.002,347.136,100.002z M292.749,105.893l-25.381-2.719c-1.36,0-2.719-1.36-2.266-2.719
			c0-1.36,1.36-2.719,2.719-2.266l25.381,2.719c1.36,0,2.719,1.36,2.266,2.719C295.469,104.987,294.109,105.893,292.749,105.893z"/>
		<path style="fill:#D1D2D1;" d="M399.89,111.453l-55.919,9.193l-2.022-10.688c-0.168-0.891-1.228-1.613-2.118-1.444l-16.116,2.587
			c-0.891,0.168-1.613,1.228-1.444,2.118l2.022,10.688l-55.919,9.193c-2.227,0.421-3.671,2.539-3.25,4.766l12.875,77.824
			c0.421,2.227,2.539,3.671,4.766,3.25l130.987-22.007c2.227-0.421,3.671-2.539,3.25-4.766l-12.875-77.824
			C403.789,112.56,401.671,111.116,399.89,111.453z M348.917,132.164l-25.468,4.356c-1.336,0.253-2.925-0.831-3.177-2.167
			c-0.253-1.336,0.831-2.925,2.167-3.177l25.468-4.356c1.336-0.253,2.925,0.831,3.177,2.167
			C351.421,130.768,350.253,131.911,348.917,132.164z"/>
		<path style="opacity:0.1;fill:#5D5E5E;" d="M330.097,383.784h-163.56l16.553-61.482c0.382-1.417,0.469-2.842,0.317-4.218
			l-21.92-0.275l-21.2,75.82c-0.425,3.018,0.366,6.104,2.244,8.553c2.165,2.825,8.654,4.481,12.213,4.481h142.547L330.097,383.784z"
			/>
		<polygon style="fill:#56769D;" points="433.653,326.766 160.427,363.546 111.386,141.112 458.173,141.112 		"/>
		<g style="opacity:0.25;">
			<path style="fill:#48485E;" d="M281.706,308.09h-28.574c-12.475,0-22.624-10.149-22.624-22.624v-28.574
				c0-28.231,22.967-51.198,51.198-51.198s51.198,22.967,51.198,51.198S309.936,308.09,281.706,308.09z M281.706,222.236
				c-19.109,0-34.656,15.547-34.656,34.656v25.876c0,4.841,3.939,8.78,8.78,8.78h25.876c19.109,0,34.656-15.547,34.656-34.656
				S300.815,222.236,281.706,222.236z"/>
			<g>
				<circle style="fill:#48485E;" cx="320.348" cy="189.17" r="11.14"/>
			</g>
			<g>
				<circle style="fill:#48485E;" cx="348.978" cy="217.932" r="11.14"/>
			</g>
		</g>
		<polygon style="opacity:0.05;fill:#FFFFFF;" points="433.653,326.766 160.427,363.546 458.173,141.112 		"/>
		<g>
			<circle style="fill:#949EA6;" cx="187.134" cy="431.07" r="21.309"/>
			<path style="opacity:0.1;fill:#5D5E5E;" d="M174.663,413.794c-9.542,6.889-11.693,20.209-4.804,29.751l0,0l34.554-24.947
				C197.524,409.056,184.204,406.905,174.663,413.794z"/>
		</g>
		<g>
			<circle style="fill:#949EA6;" cx="395.878" cy="431.07" r="21.309"/>
			<path style="opacity:0.1;fill:#5D5E5E;" d="M383.406,413.794c-9.542,6.889-11.693,20.209-4.804,29.751l0,0l34.554-24.947
				C406.268,409.056,392.948,406.905,383.406,413.794z"/>
		</g>
	</g>
</g>
</svg>
