<svg xmlns="http://www.w3.org/2000/svg"
	 viewBox="0 0 512 512">
<g>
	<g>
		<path style="fill:#DDDDDA;" d="M385.4,94.3h-311c-12.1,0-21.9,9.8-21.9,21.9v253.1c0,12.1,9.8,21.9,21.9,21.9h363.3
			c12.1,0,21.9-9.8,21.9-21.9V212.6L385.4,94.3z"/>
		<g>
			<rect x="122.9" y="186.1" style="fill:#706B6A;" width="266.3" height="15.6"/>
			<rect x="165.3" y="224.7" style="fill:#706B6A;" width="181.6" height="15"/>
			<rect x="165.3" y="262.7" style="fill:#706B6A;" width="181.6" height="15"/>
		</g>
		<polygon style="opacity:0.1;" points="161,94.3 459.7,277 459.7,212.6 385.4,94.3 		"/>
		<path style="fill:#FFFFFF;" d="M358.9,142.8c-5.3,8.5-2.6,19.7,5.9,24.9l90.9,56.2c1.3,0.8,2.7,1.4,4.1,1.8v-13.2L387.1,97.1
			L358.9,142.8z"/>
	</g>
	<g>
		<polygon style="fill:#DF7248;" points="407.1,329.4 346.2,329.4 319.6,456.2 376.6,429.1 433.7,456.2 		"/>
		<polygon style="fill:#A5593B;" points="328.6,413.1 414.3,363.6 407.1,329.4 346.2,329.4 		"/>
		<g>
			<g>
				<g>
					<path style="fill:#EB9C7E;" d="M369.2,300.8l-38-65.9c12.1-7,24.1-10.2,38-10.2V300.8z"/>
				</g>
			</g>
			<g>
				<g>
					<path style="fill:#DF7248;" d="M369.2,300.8l-65.9-38c7-12.1,15.7-20.9,27.9-27.9L369.2,300.8z"/>
				</g>
			</g>
			<g>
				<g>
					<path style="fill:#EB9C7E;" d="M369.2,300.8h-76.1c0-14,3.2-25.9,10.2-38L369.2,300.8z"/>
				</g>
			</g>
			<g>
				<g>
					<path style="fill:#DF7248;" d="M369.2,300.8l-65.9,38c-7-12.1-10.2-24.1-10.2-38H369.2z"/>
				</g>
			</g>
			<g>
				<g>
					<path style="fill:#EB9C7E;" d="M369.2,300.8l-38,65.9c-12.1-7-20.9-15.7-27.9-27.9L369.2,300.8z"/>
				</g>
			</g>
			<g>
				<g>
					<path style="fill:#DF7248;" d="M369.2,300.8v76.1c-14,0-25.9-3.2-38-10.2L369.2,300.8z"/>
				</g>
			</g>
			<g>
				<g>
					<path style="fill:#EB9C7E;" d="M369.2,300.8l38,65.9c-12.1,7-24.1,10.2-38,10.2V300.8z"/>
				</g>
			</g>
			<g>
				<g>
					<path style="fill:#DF7248;" d="M369.2,300.8l65.9,38c-7,12.1-15.7,20.9-27.9,27.9L369.2,300.8z"/>
				</g>
			</g>
			<g>
				<g>
					<path style="fill:#EB9C7E;" d="M369.2,300.8h76.1c0,14-3.2,25.9-10.2,38L369.2,300.8z"/>
				</g>
			</g>
			<g>
				<g>
					<path style="fill:#DF7248;" d="M369.2,300.8l65.9-38c7,12.1,10.2,24.1,10.2,38H369.2z"/>
				</g>
			</g>
			<g>
				<g>
					<path style="fill:#EB9C7E;" d="M369.2,300.8l38-65.9c12.1,7,20.9,15.7,27.9,27.9L369.2,300.8z"/>
				</g>
			</g>
			<g>
				<g>
					<path style="fill:#DF7248;" d="M369.2,300.8v-76.1c14,0,25.9,3.2,38,10.2L369.2,300.8z"/>
				</g>
			</g>
		</g>
		<circle style="fill:#A5593B;" cx="370.7" cy="300.8" r="46.4"/>
	</g>
</g>
</svg>
