<svg xmlns="http://www.w3.org/2000/svg"
	 viewBox="0 0 512 512">
<g>
	<ellipse style="fill:#647F89;" cx="256.2" cy="71" rx="18.1" ry="14.9"/>
	
		<rect x="247.6" y="348.4" transform="matrix(1 6.701788e-003 -6.701788e-003 1 2.6891 -1.7322)" style="fill:#5A737C;" width="24.3" height="103.9"/>
	<rect x="64.3" y="94.2" style="fill:#F2F2F2;" width="383.8" height="243.7"/>
	<rect x="53" y="67.5" style="fill:#3D5871;" width="406.5" height="26.6"/>
	<polygon style="opacity:0.1;fill:#231F20;" points="448.1,203 396.1,160.9 369.1,174.7 322,130 240.9,202.3 207.4,189.1 155,248.2 
		167.6,260.2 131,283.3 187.7,337.8 448.1,337.8 	"/>
	<polygon style="fill:#EEC11D;" points="322,197.7 322,130 254.3,130 273.5,149.2 239.5,183.3 202,145.8 201.8,145.9 201.6,145.8 
		127.1,220.3 155,248.2 201.8,201.4 211.6,211.2 211.4,211.4 239.3,239.3 239.5,239.1 239.7,239.3 267.6,211.4 267.4,211.2 
		301.4,177.1 	"/>
	<polygon style="fill:#E24246;" points="396.1,160.9 327.1,160.9 348.6,181.8 278.4,249.7 220.2,198.4 220,198.6 217.9,196.4 
		131,283.3 158.6,310.9 219.6,250 279.7,303 284.1,298.3 284.2,298.4 376.6,209.1 396.1,228 	"/>
	
		<rect x="289" y="347.5" transform="matrix(0.8022 -0.5971 0.5971 0.8022 -181.6786 259.7328)" style="fill:#647F89;" width="24.3" height="113"/>
	
		<rect x="210.6" y="340.8" transform="matrix(0.8361 0.5486 -0.5486 0.8361 255.841 -56.6918)" style="fill:#647F89;" width="24.3" height="118"/>
	<rect x="53" y="337.8" style="fill:#3D5871;" width="406.5" height="26.6"/>
	<polygon style="opacity:0.1;fill:#231F20;" points="344.6,441.7 277.1,351 272.3,354.6 272.3,348.1 251.9,347.9 245,343.4 
		224.9,373.9 242.8,391.1 247.8,383.5 247.7,395.8 271.8,419 272.1,384.9 325.1,456.2 	"/>
</g>
</svg>
