<svg  xmlns="http://www.w3.org/2000/svg"  
	 viewBox="0 0 512 512" >
<g id="chat">
	<g>
		<path style="fill:#557EAA;" d="M475.273,212.81c0-80.247-78.202-145.16-174.805-145.16s-174.805,64.913-174.805,145.16
			s78.202,145.16,174.805,145.16c19.423,0,37.823-2.556,55.202-7.156c12.267,9.711,31.179,20.956,60.313,30.668
			c-5.622-17.378-11.245-34.245-14.312-50.09C446.65,304.813,475.273,261.878,475.273,212.81z"/>
		<path style="opacity:0.1;fill:#37373C;enable-background:new    ;" d="M399.626,265.456c0-79.225-77.691-143.626-173.272-143.626
			c-26.067,0-50.602,4.6-73.091,13.289c-17.378,22.49-27.09,49.068-27.09,77.691c0,80.247,78.202,145.16,174.805,145.16
			c19.423,0,37.823-2.556,55.202-7.156c2.045,1.533,3.578,3.067,6.134,4.6C385.315,330.369,399.626,299.701,399.626,265.456z"/>
		<path style="fill:#D9DBDC;" d="M36.727,275.678c0-80.247,78.202-145.16,174.805-145.16s174.805,64.913,174.805,145.16
			s-78.713,145.16-175.316,145.16c-19.423,0-37.823-2.556-55.202-7.156c-12.267,9.711-31.179,20.956-60.313,30.668
			c5.622-17.378,11.245-34.245,14.312-50.09C65.35,367.681,36.727,324.746,36.727,275.678z"/>
		<g style="opacity:0.2;">
			<circle style="fill:#557EAA;" cx="154.286" cy="315.035" r="17.378"/>
			<circle style="fill:#557EAA;" cx="211.021" cy="315.035" r="17.378"/>
			<circle style="fill:#557EAA;" cx="267.756" cy="315.035" r="17.378"/>
		</g>
	</g>
</g>
</svg>
