<svg xmlns="http://www.w3.org/2000/svg"
	 viewBox="0 0 512 512">
<g>
	<path style="fill:#917B66;" d="M416.8,479.2c0,4.3-3.5,7.9-7.9,7.9H103c-4.3,0-7.9-3.5-7.9-7.9V105.7c0-4.3,3.5-7.9,7.9-7.9H409
		c4.3,0,7.9,3.5,7.9,7.9L416.8,479.2L416.8,479.2z"/>
	<rect x="121.2" y="460.9" style="fill:#6E5D50;" width="266.1" height="3.9"/>
	<rect x="121.2" y="120" style="fill:#FFFFFF;" width="266.1" height="340.9"/>
	<path style="fill:#E3C487;" d="M365.3,111.7h-28.2c-11.7-21.1-31.5-37.1-55.3-43.8c2.1-4.1,3.3-8.7,3.3-13.6
		C285.2,38,272,25,255.9,25s-29.4,13.2-29.4,29.4c0,5.1,1.3,9.9,3.6,14c-23.1,6.9-42.3,22.7-53.8,43.4H148c-4.3,0-7.9,3.5-7.9,7.9
		v8.1c0,4.3,3.5,7.9,7.9,7.9h217.3c4.3,0,7.9-3.5,7.9-7.9v-8.1C373.2,115.2,369.6,111.7,365.3,111.7z M268.9,54.2
		c0,7.2-5.9,13.2-13.2,13.2c-7.2,0-13.2-5.9-13.2-13.2S248.4,41,255.7,41C262.9,41,268.9,46.8,268.9,54.2z"/>
	<path style="fill:#6E5D50;" d="M256,81.6c-10.9,0-20.6-5.6-26.2-14.1c4.8,9.6,14.8,16.2,26.2,16.2c11.5,0,21.4-6.5,26.2-16.2
		C276.6,75.9,266.9,81.6,256,81.6z"/>
	<path style="fill:#6E5D50;" d="M142.5,133.3c1.5,1.3,3.3,2.3,5.5,2.3h217.3c2.1,0,4-0.8,5.5-2.3H142.5z"/>
	<polygon style="opacity:0.05;fill:#221F1F;enable-background:new    ;" points="339.6,100 167.2,486.9 416.8,486.9 
		416.8,97.8 	"/>
	<g>
		<rect x="224" y="209.3" style="fill:#5E5F5F;" width="97.5" height="17.5"/>
		<polygon style="fill:#5E5F5F;" points="197.3,196.8 179.6,217.7 169.9,209.6 162.3,218.6 181,234.5 206.3,204.4 		"/>
	</g>
	<g>
		<rect x="224" y="283.5" style="fill:#5E5F5F;" width="130.5" height="17.5"/>
		<polygon style="fill:#5E5F5F;" points="197.3,268.9 179.6,289.9 169.9,281.7 162.3,290.8 181,306.6 206.3,276.6 		"/>
	</g>
	<g>
		<rect x="224" y="355.6" style="fill:#5E5F5F;" width="70.5" height="17.5"/>
		<polygon style="fill:#5E5F5F;" points="197.3,341 179.6,362 169.9,353.8 162.3,362.9 181,378.7 206.3,348.7 		"/>
	</g>
</g>
</svg>
