<svg xmlns="http://www.w3.org/2000/svg"
	 viewBox="0 0 512 512">
<g>
	<polygon style="fill:#50BFA4;" points="389.7,274.9 389.7,80 122.3,80 122.3,274.9 71.1,274.9 256,431 440.9,274.9 	"/>
	<polygon style="opacity:0.1;fill:#231F20;" points="310.3,385.2 440.9,274.9 389.7,274.9 389.7,223.5 306.1,156 277.2,199.6 
		230.5,164.7 184.2,171.4 184.2,238.6 228.2,271.3 206,303.8 	"/>
	<polygon style="opacity:0.1;fill:#231F20;" points="406,274.9 389.7,274.9 389.7,263.5 327.8,220.1 290.5,233.2 287.1,297.8 
		352.6,349.5 425.1,288.2 	"/>
	<g>
		<path style="fill:#FFFFFF;" d="M243.8,198.4c0,29.9-18.9,45.5-39.6,45.5c-21.8,0-38.9-16.3-38.9-43.1c0-25.5,15.6-44.8,40-44.8
			C229.9,156,243.8,174,243.8,198.4z M190.1,200c0,14.9,5,25.8,14.7,25.8c9.5,0,14.1-9.7,14.1-25.8c0-14.5-4-25.8-14.3-25.8
			C194.7,174.2,190.1,185.7,190.1,200z M206,303.8L288,156h18.1l-82.3,147.8H206z M346.7,257.8c0,29.9-18.9,45.5-39.6,45.5
			c-21.5,0-38.7-16.3-38.9-43.1c0-25.5,15.6-44.8,40-44.8C332.9,215.4,346.7,233.4,346.7,257.8z M293.3,259.3
			c-0.2,14.9,4.8,25.8,14.5,25.8c9.5,0,14.1-9.7,14.1-25.8c0-14.5-3.8-25.8-14.1-25.8C297.6,233.7,293.3,245.1,293.3,259.3z"/>
	</g>
</g>
</svg>
