<svg xmlns="http://www.w3.org/2000/svg"
	 viewBox="0 0 512 512">
<g>
	<g>
		<path style="fill:#727D86;" d="M328.4,437.7c-20.1,10.5-43,16.5-67.2,16.5c-80.4,0-145.9-65.4-145.9-145.9
			c0-50.7,26-95.4,65.3-121.5l-3.7-6.3c-41.5,27.4-69,74.5-69,127.9c0,84.5,68.7,153.2,153.2,153.2c25.6,0,49.7-6.3,71-17.5
			L328.4,437.7z"/>
		<circle style="opacity:0.43;fill:#A0DCF8;" cx="262.6" cy="309.2" r="134.7"/>
		<rect x="252.8" y="461" style="fill:#727D86;" width="7" height="13.5"/>
		<rect x="228.1" y="474.6" style="fill:#727D86;" width="54.1" height="7.1"/>
		<rect x="196" y="481.7" style="fill:#727D86;" width="119.7" height="7.7"/>
		<g>
			<circle style="fill:#E3887A;" cx="143.5" cy="269" r="7.4"/>
			<circle style="fill:#E3887A;" cx="113.8" cy="246.8" r="4.8"/>
			<circle style="fill:#E3887A;" cx="101.5" cy="214.9" r="4.8"/>
			<circle style="fill:#E3887A;" cx="115.2" cy="183.6" r="4.8"/>
			<circle style="fill:#E3887A;" cx="135.5" cy="160.8" r="4"/>
			<circle style="fill:#E3887A;" cx="168.1" cy="139.9" r="2.7"/>
			<circle style="fill:#E3887A;" cx="152.2" cy="149.2" r="2.7"/>
		</g>
		<g>
			<circle style="fill:#89B5D0;" cx="371.7" cy="235.5" r="7.4"/>
			<circle style="fill:#89B5D0;" cx="391.2" cy="221.3" r="4.8"/>
			<circle style="fill:#89B5D0;" cx="410.1" cy="196.4" r="4.8"/>
			<circle style="fill:#89B5D0;" cx="405.4" cy="171.8" r="2.7"/>
			<circle style="fill:#89B5D0;" cx="386.4" cy="157.1" r="2.7"/>
			<circle style="fill:#89B5D0;" cx="366" cy="146.8" r="2.7"/>
			<circle style="fill:#89B5D0;" cx="347.5" cy="140.1" r="2.7"/>
		</g>
		<g>
			<path style="fill:#90CDB6;" d="M370,390.4c-2.9,3.9-6.1,7.5-9.4,11c1.4,1.7,3.4,2.8,5.7,2.8c4.1,0,7.4-3.3,7.4-7.4
				C373.8,394.1,372.3,391.7,370,390.4z"/>
			<circle style="fill:#90CDB6;" cx="394" cy="380.4" r="4.8"/>
			<circle style="fill:#90CDB6;" cx="398.8" cy="349.7" r="4.8"/>
			<circle style="fill:#90CDB6;" cx="382.5" cy="314" r="4.8"/>
			<circle style="fill:#90CDB6;" cx="363.3" cy="285.3" r="2.7"/>
			<circle style="fill:#90CDB6;" cx="344.8" cy="261.6" r="2.7"/>
			<circle style="fill:#90CDB6;" cx="324.5" cy="242.9" r="2.7"/>
			<circle style="fill:#90CDB6;" cx="298.7" cy="228.1" r="2.7"/>
		</g>
		<g>
			<circle style="fill:#F2CB6E;" cx="245.5" cy="396.2" r="7.4"/>
			<circle style="fill:#F2CB6E;" cx="224.8" cy="365.1" r="4.8"/>
			<circle style="fill:#F2CB6E;" cx="214.6" cy="330.1" r="4.8"/>
			<circle style="fill:#F2CB6E;" cx="217" cy="260.2" r="4.8"/>
			<circle style="fill:#F2CB6E;" cx="212.2" cy="294.8" r="4.8"/>
			<circle style="fill:#F2CB6E;" cx="223.4" cy="234.4" r="2.7"/>
			<circle style="fill:#F2CB6E;" cx="230.7" cy="214.9" r="2.7"/>
			<circle style="fill:#F2CB6E;" cx="238" cy="199.6" r="2.7"/>
		</g>
	</g>
	<path style="fill:#82A7C6;" d="M333.6,144c0,5.4-4.4,9.8-9.8,9.8H206.2c-5.4,0-9.8-4.4-9.8-9.8V61.1c0-5.4,4.4-9.8,9.8-9.8h117.6
		c5.4,0,9.8,4.4,9.8,9.8V144z"/>
	<path style="opacity:0.1;fill:#CEE0EE;" d="M323.8,51.2H206.2c-5.4,0-9.8,4.4-9.8,9.8v2c0-5.4,4.4-9.8,9.8-9.8h117.6
		c5.4,0,9.8,4.4,9.8,9.8v-2C333.6,55.7,329.2,51.2,323.8,51.2z"/>
	<path style="fill:#D1D2D1;" d="M249.5,24.4l-29.9,5.8l-1.1-5.7c-0.1-0.5-0.6-0.8-1.1-0.7l-8.6,1.7c-0.5,0.1-0.8,0.6-0.7,1.1
		l1.1,5.7L179.2,38c-1.2,0.2-1.9,1.4-1.7,2.5l8.1,41.8c0.2,1.2,1.4,1.9,2.5,1.7l70.3-13.6c1.2-0.2,1.9-1.4,1.7-2.5L252,26.2
		C251.8,25,250.7,24.2,249.5,24.4z M222.4,36.4L208.8,39c-0.8,0.1-1.5-0.4-1.7-1.1c-0.1-0.8,0.4-1.5,1.1-1.7l13.6-2.6
		c0.8-0.1,1.5,0.4,1.7,1.1C223.7,35.5,223.2,36.2,222.4,36.4z"/>
	<path style="fill:#A19F9E;" d="M340.1,50.5l-28.8-9.9l1.9-5.5c0.2-0.5-0.1-1-0.6-1.2l-8.3-2.8c-0.5-0.2-1,0.1-1.2,0.6l-1.9,5.5
		l-28.8-9.9c-1.1-0.4-2.3,0.2-2.7,1.3l-13.8,40.2c-0.4,1.1,0.2,2.3,1.3,2.7l67.7,23.2c1.1,0.4,2.3-0.2,2.7-1.3l13.8-40.2
		C341.8,52.1,341.2,50.8,340.1,50.5z M310.7,47.3l-13.1-4.5c-0.7-0.3-1.1-1.1-0.9-1.8c0.3-0.7,1.1-1.1,1.8-0.9l13.1,4.5
		c0.7,0.3,1.1,1.1,0.9,1.8C312.3,47.2,311.4,47.6,310.7,47.3z"/>
	<path style="fill:#B2B1B0;" d="M290.3,45.4L260,42l0.7-5.7c0.1-0.5-0.3-1-0.8-1l-8.7-1c-0.5-0.1-1,0.3-1,0.8l-0.7,5.7l-30.3-3.5
		c-1.2-0.1-2.2,0.7-2.4,1.9L212,81.4c-0.1,1.2,0.7,2.2,1.9,2.4l71.1,8.1c1.2,0.1,2.2-0.7,2.4-1.9l4.8-42.2
		C292.3,46.6,291.4,45.5,290.3,45.4z M260.9,48.7L247,47.1c-0.8-0.1-1.3-0.8-1.3-1.6c0.1-0.8,0.8-1.3,1.6-1.3l13.8,1.6
		c0.8,0.1,1.3,0.8,1.3,1.6C262.3,48.2,261.6,48.8,260.9,48.7z"/>
	<path style="fill:#D1D2D1;" d="M319,63l-30.5-0.6l0.1-5.8c0-0.5-0.4-0.9-0.9-1l-8.7-0.2c-0.5,0-0.9,0.4-1,0.9l-0.1,5.8l-30.5-0.6
		c-1.2,0-2.2,0.9-2.2,2.1l-0.9,42.5c0,1.2,0.9,2.2,2.1,2.2l71.5,1.5c1.2,0,2.2-0.9,2.2-2.1l0.9-42.5C321.1,64,320.2,63,319,63z
		 M290,69l-13.9-0.3c-0.8,0-1.4-0.7-1.4-1.5c0-0.8,0.7-1.4,1.5-1.4l13.9,0.3c0.8,0,1.4,0.7,1.4,1.5C291.5,68.4,290.8,69,290,69z"/>
	<path style="fill:#99B5CF;" d="M256.9,78c-5.4,0.6-12.7-2.2-16.2-6.3l-2.3-2.7c-3.5-4.1-10.9-6.9-16.2-6.3l-25.6,2.9
		c-5.4,0.6-9.3,5.5-8.7,10.9l9.3,82.4c0.6,5.4,5.5,9.3,10.9,8.7l116.9-13.2c5.4-0.6,9.3-5.5,8.7-10.9L326.4,80
		c-0.6-5.4-5.5-9.3-10.9-8.7L256.9,78z"/>
	<g style="opacity:0.1;">
		<path style="fill:#FFFFFF;" d="M260.9,136.2l-8.8,1c-3.8,0.4-7.3-2.3-7.7-6.2l-1-8.8c-1-8.7,5.2-16.5,13.9-17.5
			c8.7-1,16.5,5.2,17.5,13.9C275.9,127.3,269.6,135.2,260.9,136.2z M257.9,109.8c-5.9,0.7-10.1,6-9.4,11.9l0.9,7.9
			c0.2,1.5,1.5,2.6,3,2.4l7.9-0.9c5.9-0.7,10.1-6,9.4-11.9C269.1,113.4,263.8,109.1,257.9,109.8z"/>
		<g>
			<circle style="fill:#FFFFFF;" cx="268.6" cy="98.3" r="3.4"/>
		</g>
		<g>
			<circle style="fill:#FFFFFF;" cx="278.4" cy="106.1" r="3.4"/>
		</g>
	</g>
	<path style="opacity:0.2;fill:#82A7C6;" d="M209,167.6l115.9-13.3c5.4-0.6,9.3-5.5,8.7-10.9l-7-62.2l-0.5-2.8L209,167.6z"/>
</g>
</svg>
