<svg xmlns="http://www.w3.org/2000/svg"
	 viewBox="0 0 512 512">
<g>
	<path style="fill:#424C5B;" d="M451.8,89.8c12.8,0,23.3,10.5,23.3,23.3V399c0,12.8-10.5,23.3-23.3,23.3H61.7
		c-12.8,0-23.3-10.5-23.3-23.3V113.1c0-12.8,10.5-23.3,23.3-23.3H451.8z"/>
	<rect x="82.8" y="343.9" style="fill:#AEADA4;" width="347.2" height="46.4"/>
	<circle style="fill:#323B48;" cx="63.4" cy="256" r="3.4"/>
	<g>
		<circle style="fill:#323B48;" cx="452.5" cy="256" r="10.9"/>
		
			<rect x="448.7" y="252.2" style="opacity:0.2;fill:none;stroke:#FFFFFF;stroke-width:0.6843;stroke-miterlimit:10;enable-background:new    ;" width="7.7" height="7.7"/>
	</g>
	<rect x="82.9" y="184.1" style="fill:#AEADA4;" width="347" height="186.4"/>
	<polygon style="fill:#EFEDDF;" points="238,370.5 82.8,370.5 82.9,123 238,123 	"/>
	<path style="fill:#D5D2C8;" d="M238,123v247.5c10,0,18.1,8.1,18.1,18.1c0,0,0-238.4,0-244.9C256.1,123,238,123,238,123z"/>
	<path style="fill:#EFEDDF;" d="M274.2,123.3c0,0-18.1,0-18.1,20.7c0,6.5,0,244.6,0,244.6c0-10,8.1-18.1,18.1-18.1l0,0H430V123.3
		H274.2z"/>
	<rect x="391.6" y="229.2" style="fill:#D5D2C8;" width="17.7" height="8.8"/>
	<rect x="396.1" y="206.9" style="fill:#D5D2C8;" width="13.2" height="8.8"/>
	<rect x="99.4" y="251.4" style="fill:#D5D2C8;" width="29.2" height="9.2"/>
	<rect x="99.4" y="229" style="fill:#D5D2C8;" width="17.5" height="9.2"/>
	<rect x="99.4" y="206.7" style="fill:#D5D2C8;" width="14.6" height="9.2"/>
	<rect x="99.4" y="315.2" style="fill:#D5D2C8;" width="81.7" height="9.2"/>
	<rect x="99.4" y="272.7" style="fill:#D5D2C8;" width="50.2" height="9.2"/>
	<rect x="99.4" y="293" style="fill:#D5D2C8;" width="61" height="9.2"/>
	<rect x="383" y="251.4" style="fill:#D5D2C8;" width="26.3" height="9.2"/>
	<rect x="312" y="315.2" style="fill:#D5D2C8;" width="96.5" height="9.2"/>
	<rect x="364.2" y="272.7" style="fill:#D5D2C8;" width="45.1" height="9.2"/>
	<rect x="338.3" y="293" style="fill:#D5D2C8;" width="71" height="9.2"/>
	<g>
		<path style="fill:#ED4A79;" d="M196.5,155.6c2.6,0,5.2,0,7.8,0c0.7,0.1,1.4,0.3,2.1,0.4c16.6,1.7,30.7,8.4,42.1,20.7
			c2,2.1,3.7,4.5,5.6,6.9c0.3-0.3,0.5-0.6,0.8-0.9c10.3-14.4,24.3-22.8,41.6-25.9c2.4-0.4,4.9-0.8,7.3-1.2c2.6,0,5.2,0,7.8,0
			c0.5,0.1,1,0.3,1.5,0.3c14.9,1.1,28,6.3,39.2,16.2c9.1,8,15.3,18,17.8,29.9c3.1,15,0.6,29.4-6.3,43.1c-6.4,12.8-16,23.2-26.7,32.4
			c-12,10.4-24.4,20.2-36.5,30.4c-16,13.3-31.2,27.5-43.6,44.4c-1.8,2.5-3.9,2.5-5.7,0.1c-8.5-11-18-21.2-28.5-30.3
			c-13.1-11.2-26.5-22-39.8-32.9c-11.1-9.2-22.1-18.6-30.8-30.2c-7-9.3-12-19.5-14-31.1c-0.6-3.4-1-6.9-1.5-10.4c0-2.3,0-4.7,0-7
			c0.1-0.6,0.3-1.1,0.4-1.7c1.1-12.7,6.3-23.6,14.9-32.8c9.2-9.8,20.5-15.9,33.6-18.6C189.1,156.5,192.8,156.1,196.5,155.6z"/>
	</g>
	<path style="opacity:0.07;fill:#FFFFFF;enable-background:new    ;" d="M475.1,112c-0.5-12.3-10.8-22.3-23.2-22.3H61.7
		c-12.8,0-23.3,10.5-23.3,23.3v203.1L475,171.5V112H475.1z"/>
</g>
</svg>
