<svg xmlns="http://www.w3.org/2000/svg"
	 viewBox="0 0 512 512">
<g>
	<path style="fill:#424C5B;" d="M451.8,89.8c12.8,0,23.3,10.5,23.3,23.3v285.9c0,12.8-10.5,23.3-23.3,23.3H61.7
		c-12.8,0-23.3-10.5-23.3-23.3V113.1c0-12.8,10.5-23.3,23.3-23.3H451.8z"/>
	<rect x="82.8" y="343.9" style="fill:#AEADA4;" width="347.2" height="46.4"/>
	<circle style="fill:#323B48;" cx="63.4" cy="256" r="3.4"/>
	<g>
		<circle style="fill:#323B48;" cx="452.5" cy="256" r="10.9"/>
		
			<rect x="448.7" y="252.2" style="opacity:0.2;fill:none;stroke:#FFFFFF;stroke-width:0.6843;stroke-miterlimit:10;" width="7.7" height="7.7"/>
	</g>
	<rect x="82.9" y="184.1" style="fill:#AEADA4;" width="347" height="186.4"/>
	<polygon style="fill:#EFEDDF;" points="238,370.5 82.8,370.5 82.9,123 238,123 	"/>
	<path style="fill:#D5D2C8;" d="M238,123v247.5c10,0,18.1,8.1,18.1,18.1c0,0,0-238.4,0-244.9C256.1,123,238,123,238,123z"/>
	<path style="fill:#EFEDDF;" d="M274.2,123.3c0,0-18.1,0-18.1,20.7c0,6.5,0,244.6,0,244.6c0-10,8.1-18.1,18.1-18.1v0h155.8V123.3
		H274.2z"/>
	<path style="opacity:0.07;fill:#FFFFFF;" d="M475.1,112c-0.5-12.3-10.8-22.3-23.2-22.3H61.7c-12.8,0-23.3,10.5-23.3,23.3
		v203.1l436.6-144.6V112z"/>
	<rect x="99.8" y="165.1" style="fill:#D5D2C8;" width="70.6" height="9.2"/>
	<rect x="99.8" y="186.4" style="fill:#D5D2C8;" width="55.2" height="9.2"/>
	<rect x="99.8" y="207.7" style="fill:#D5D2C8;" width="43.5" height="9.2"/>
	<rect x="99.8" y="229" style="fill:#D5D2C8;" width="35.3" height="9.2"/>
	<rect x="99.8" y="250.3" style="fill:#D5D2C8;" width="30.3" height="9.2"/>
	<rect x="99.8" y="271.6" style="fill:#D5D2C8;" width="38.4" height="9.2"/>
	<rect x="99.8" y="293" style="fill:#D5D2C8;" width="43.5" height="9.2"/>
	<rect x="99.8" y="314.3" style="fill:#D5D2C8;" width="55.2" height="9.2"/>
	<g>
		<rect x="343" y="165.1" style="fill:#D5D2C8;" width="70.6" height="9.2"/>
		<rect x="358.4" y="186.4" style="fill:#D5D2C8;" width="55.2" height="9.2"/>
		<rect x="370.1" y="207.7" style="fill:#D5D2C8;" width="43.5" height="9.2"/>
		<rect x="378.3" y="229" style="fill:#D5D2C8;" width="35.3" height="9.2"/>
		<rect x="383.3" y="250.3" style="fill:#D5D2C8;" width="30.3" height="9.2"/>
		<rect x="375.3" y="271.6" style="fill:#D5D2C8;" width="38.4" height="9.2"/>
		<rect x="370.1" y="293" style="fill:#D5D2C8;" width="43.5" height="9.2"/>
		<rect x="358.4" y="314.3" style="fill:#D5D2C8;" width="55.2" height="9.2"/>
	</g>
	<g>
		<circle style="fill:#BDD676;" cx="256" cy="256" r="96.1"/>
		<polygon style="fill:#FFFFFF;" points="301,205.8 250.1,266.1 222.2,242.6 200.2,268.7 254.2,314.3 327.1,227.9 		"/>
		<path style="opacity:0.05;fill:#231F20;enable-background:new    ;" d="M159.9,256c0,53.1,43,96.1,96.1,96.1V159.9
			C202.9,159.9,159.9,202.9,159.9,256z"/>
	</g>
</g>
</svg>
