<svg xmlns="http://www.w3.org/2000/svg"
	 viewBox="0 0 512 512">
<g>
	<g>
		<g>
			<path style="fill:#D6D8DB;" d="M420.4,251.2L274.9,223c-1.9-0.4-3.1-2.2-2.8-4.1l28.3-146.3c0.4-1.9,2.2-3.1,4.1-2.8L450.1,98
				c1.9,0.4,3.1,2.2,2.8,4.1l-28.3,146.3C424.2,250.3,422.3,251.5,420.4,251.2z"/>
			<circle style="fill:#646464;" cx="317.2" cy="88.3" r="4.8"/>
			<circle style="fill:#9F9F9F;" cx="332.1" cy="91.2" r="4.8"/>
			<circle style="fill:#9B9B9B;" cx="346.9" cy="94.1" r="4.8"/>
			
				<rect x="364.9" y="99.5" transform="matrix(0.9818 0.1902 -0.1902 0.9818 27.137 -74.1305)" style="fill:#FFFFFF;" width="69.9" height="9.7"/>
			
				<rect x="298.2" y="113.6" transform="matrix(0.9818 0.1902 -0.1902 0.9818 38.3909 -65.4254)" style="fill:#FFFFFF;" width="123.9" height="107.5"/>
			
				<rect x="320.3" y="129.3" transform="matrix(0.9818 0.1902 -0.1902 0.9818 32.7369 -67.0921)" style="fill:#F7941E;" width="91.3" height="15.5"/>
			
				<rect x="315.7" y="147" transform="matrix(0.9818 0.1902 -0.1902 0.9818 36.16 -60.7477)" style="fill:#BDC2C7;" width="37.8" height="22.1"/>
			
				<rect x="309.8" y="177.7" transform="matrix(0.9818 0.1902 -0.1902 0.9818 41.8847 -59.0582)" style="fill:#BDC2C7;" width="37.8" height="22.1"/>
			
				<rect x="362.1" y="156.8" transform="matrix(0.9818 0.1902 -0.1902 0.9818 37.3309 -70.4778)" style="fill:#BDC2C7;" width="47.6" height="5"/>
			
				<rect x="360.5" y="165.1" transform="matrix(0.9818 0.1902 -0.1902 0.9818 38.8954 -70.0161)" style="fill:#BDC2C7;" width="47.6" height="5"/>
			
				<rect x="358.9" y="173.5" transform="matrix(0.9818 0.1902 -0.1902 0.9818 40.4599 -69.5544)" style="fill:#BDC2C7;" width="47.6" height="5"/>
			
				<rect x="356.2" y="187.4" transform="matrix(0.9818 0.1902 -0.1902 0.9818 43.0555 -68.7883)" style="fill:#BDC2C7;" width="47.6" height="5"/>
			
				<rect x="354.5" y="195.8" transform="matrix(0.9818 0.1902 -0.1902 0.9818 44.62 -68.3266)" style="fill:#BDC2C7;" width="47.6" height="5"/>
			
				<rect x="352.9" y="204.2" transform="matrix(0.9818 0.1902 -0.1902 0.9818 46.1845 -67.8649)" style="fill:#BDC2C7;" width="47.6" height="5"/>
		</g>
	</g>
	<g>
		<g>
			<path style="fill:#ECEEF0;" d="M305.4,190.6L159.9,219c-1.9,0.4-3.7-0.9-4.1-2.8L127.2,70c-0.4-1.9,0.9-3.7,2.8-4.1l145.5-28.4
				c1.9-0.4,3.7,0.9,4.1,2.8l28.6,146.3C308.5,188.4,307.3,190.2,305.4,190.6z"/>
			<circle style="fill:#646464;" cx="148.7" cy="78.3" r="4.8"/>
			<circle style="fill:#9F9F9F;" cx="163.5" cy="75.4" r="4.8"/>
			<circle style="fill:#9B9B9B;" cx="178.4" cy="72.5" r="4.8"/>
			
				<rect x="196.3" y="57.3" transform="matrix(0.9814 -0.1917 0.1917 0.9814 -7.6281 45.4912)" style="fill:#FFFFFF;" width="69.9" height="9.7"/>
			
				<rect x="156.1" y="81.7" transform="matrix(0.9814 -0.1917 0.1917 0.9814 -21.9261 44.3156)" style="fill:#FFFFFF;" width="123.9" height="107.5"/>
			
				<rect x="166.4" y="97.4" transform="matrix(0.9814 -0.1917 0.1917 0.9814 -16.2301 42.6178)" style="fill:#1CB89A;" width="91.3" height="15.5"/>
			
				<rect x="172" y="125.3" transform="matrix(0.9814 -0.1917 0.1917 0.9814 -22.6105 39.1351)" style="fill:#BDC2C7;" width="37.8" height="22.1"/>
			
				<rect x="178" y="156" transform="matrix(0.9814 -0.1917 0.1917 0.9814 -28.3787 40.8524)" style="fill:#BDC2C7;" width="37.8" height="22.1"/>
			
				<rect x="215.1" y="115.8" transform="matrix(0.9814 -0.1917 0.1917 0.9814 -18.2535 48.0047)" style="fill:#BDC2C7;" width="47.6" height="5"/>
			
				<rect x="216.8" y="124.2" transform="matrix(0.9814 -0.1917 0.1917 0.9814 -19.8299 48.474)" style="fill:#BDC2C7;" width="47.6" height="5"/>
			
				<rect x="218.4" y="132.6" transform="matrix(0.9814 -0.1917 0.1917 0.9814 -21.4063 48.9434)" style="fill:#BDC2C7;" width="47.6" height="5"/>
			
				<rect x="221.1" y="146.5" transform="matrix(0.9814 -0.1917 0.1917 0.9814 -24.0217 49.7221)" style="fill:#BDC2C7;" width="47.6" height="5"/>
			
				<rect x="222.8" y="154.9" transform="matrix(0.9814 -0.1917 0.1917 0.9814 -25.5981 50.1914)" style="fill:#BDC2C7;" width="47.6" height="5"/>
			
				<rect x="224.4" y="163.2" transform="matrix(0.9814 -0.1917 0.1917 0.9814 -27.1745 50.6608)" style="fill:#BDC2C7;" width="47.6" height="5"/>
		</g>
	</g>
	<path style="fill:#949EA6;" d="M429.9,427.8H155.1c-3.6,0-10.1-1.7-12.3-4.5c-2.2-2.8-2.9-6.5-2-10l20.6-76.4
		c1.7-6.1,8-9.8,14.1-8.1c6.1,1.7,9.8,8,8.1,14.1l-16.7,61.9h263c6.4,0,11.5,5.2,11.5,11.5C441.4,422.6,436.3,427.8,429.9,427.8z"/>
	<path style="fill:#949EA6;" d="M126.2,181.3c-5.4,0-10.3-3.9-11.3-9.4c-5.2-28.2-22.8-26-22.9-25.9c-7.1,1.2-22.9,0.4-27.6,0.1
		c-6.3-0.4-11.2-5.8-10.8-12.2c0.4-6.3,5.8-11.2,12.2-10.8c8.4,0.5,19.3,0.7,22.4,0.1c6.8-1.2,17.5,0,27.4,6.7
		c7.9,5.3,18.1,16.2,22.1,37.7c1.2,6.3-3,12.3-9.2,13.4C127.6,181.3,126.9,181.3,126.2,181.3z"/>
	<path style="opacity:0.1;fill:#5D5E5E;" d="M331.6,404.8H166.9l16.7-61.9c0.4-1.4,0.5-2.9,0.3-4.2l-22.1-0.3l-21.3,76.3
		c-0.4,3,0.4,6.1,2.3,8.6c2.2,2.8,8.7,4.5,12.3,4.5h143.5L331.6,404.8z"/>
	<polygon style="fill:#56769D;" points="435.8,347.4 160.8,384.4 111.4,160.5 460.5,160.5 	"/>
	<polygon style="opacity:0.05;fill:#FFFFFF;" points="435.8,347.4 160.8,384.4 460.5,160.5 	"/>
	<g>
		<circle style="fill:#949EA6;" cx="187.7" cy="452.4" r="21.5"/>
		<path style="opacity:0.1;fill:#5D5E5E;" d="M175.1,435c-9.6,6.9-11.8,20.3-4.8,29.9l0,0l34.8-25.1
			C198.1,430.2,184.7,428,175.1,435z"/>
	</g>
	<g>
		<circle style="fill:#949EA6;" cx="397.8" cy="452.4" r="21.5"/>
		<path style="opacity:0.1;fill:#5D5E5E;" d="M385.3,435c-9.6,6.9-11.8,20.3-4.8,29.9l0,0l34.8-25.1
			C408.3,430.2,394.9,428,385.3,435z"/>
	</g>
</g>
</svg>
