<svg xmlns="http://www.w3.org/2000/svg"
	 viewBox="0 0 512 512">
<g>
	<path style="fill:#C69B6D;" d="M121.2,446.7l-58.4,0l81.3-81.3l29.2,29.2L121.2,446.7z M390.8,446.7l58.4,0l-81.3-81.3l-29.2,29.2
		L390.8,446.7z"/>
	<g>
		<path style="opacity:0.25;fill:#5D5E5E;" d="M395.5,392.9l-27.5-27.5l-29.2,29.2l25,25C375.2,411.9,385.9,402.9,395.5,392.9z"/>
		<path style="opacity:0.25;fill:#5D5E5E;" d="M116.5,392.9c9.6,10,20.2,19,31.8,26.7l25-25l-29.2-29.2L116.5,392.9z"/>
	</g>
	<circle style="fill:#DE5C5D;" cx="256" cy="258.6" r="175.3"/>
	<circle style="fill:#FDFDFE;" cx="256" cy="258.6" r="140.7"/>
	<circle style="fill:#DE5C5D;" cx="256" cy="258.6" r="106.8"/>
	<circle style="fill:#FDFDFE;" cx="256" cy="258.6" r="76.3"/>
	<circle style="fill:#DE5C5D;" cx="256" cy="258.6" r="43.9"/>
	<circle style="fill:#9C4242;" cx="256" cy="258.6" r="17"/>
	<path style="opacity:0.1;fill:#5D5E5E;" d="M264.2,253.8L264.2,253.8c-1.8-2.1-4.5-3.5-7.6-3.5c-5.4,0-9.7,4.3-9.7,9.6
		c0,3,1.5,5.7,3.7,7.5l0,0l122,122c4.8-4.3,9.3-8.8,13.6-13.5L264.2,253.8z"/>
	<path style="fill:#C8906A;" d="M413,109.9c0-5.4-4.3-9.7-9.6-9.7c-2.6,0-5,1.1-6.7,2.8l0,0L250.6,250.8l0,0
		c-2.1,1.8-3.5,4.5-3.5,7.5c0,5.4,4.3,9.7,9.6,9.7c3,0,5.7-1.5,7.5-3.7l0,0L409,117.9C411.4,116.1,413,113.2,413,109.9z"/>
</g>
</svg>
