<svg  xmlns="http://www.w3.org/2000/svg"  
	 viewBox="0 0 512 512" >
<g id="hands-shaking">
	<g>
		<path style="fill:#CAA897;" d="M161.299,199.121c0,0,9.47,27.853,47.35,27.296c100.271-7.242,112.527,40.109,127.567,61.834
			s17.269,37.88-3.899,37.323c-0.557,7.242-1.114,21.725-21.725,15.598c0,6.128-3.899,17.269-20.611,15.041
			c0,7.799-10.027,30.638-35.095,0.557c-25.068-30.081-64.062-22.283-64.062-22.283s-8.356-32.867-68.519-60.163
			S161.299,199.121,161.299,199.121z"/>
		<path style="fill:#F7CAAC;" d="M189.152,327.803c0,0-11.698,25.625,7.799,23.397c1.114,10.584,8.913,20.611,23.397,11.141
			c1.114,11.141,12.812,6.685,18.383,3.899c0,6.128,12.812,8.913,18.94,0c5.571-9.47,11.141-18.94,11.141-18.94
			s1.671-15.598-15.598-11.141c-3.342-6.685-9.47-8.356-16.155-6.128c-0.557-6.128-5.014-16.712-20.611-13.37
			c-1.671-5.014-8.356-9.47-14.484-5.571C194.723,314.99,189.152,327.803,189.152,327.803z"/>
		<polygon style="fill:#4C4A4E;" points="132.889,293.265 29.275,238.115 97.794,142.301 180.239,201.906 		"/>
		<g>
			<path style="opacity:0.1;fill:#4A3D44;enable-background:new    ;" d="M162.413,201.349c-0.557-1.114-1.114-2.228-1.114-2.228
				s-0.557,0-1.114,0.557L162.413,201.349z"/>
		</g>
		<path style="fill:#F7CAAC;" d="M344.573,206.92c0,0-13.37,19.497-39.551,19.497c-26.182,0-44.008-20.611-58.492,0
			c-14.484,20.611-22.84,28.967-27.296,46.236c-4.456,17.269,22.84,26.182,31.753,11.141c8.356-15.598,22.283-33.981,47.907-15.041
			c26.182,19.497,46.793,36.209,46.793,36.209l42.337-37.88L344.573,206.92z"/>
		<polygon style="fill:#4A3D44;" points="383.567,293.265 482.725,245.914 407.521,140.072 330.089,199.678 		"/>
	</g>
</g>
</svg>
