<?xml version="1.0" encoding="utf-8"?>
<!-- Generator: Adobe Illustrator 17.1.0, SVG Export Plug-In . SVG Version: 6.00 Build 0)  -->
<!DOCTYPE svg PUBLIC "-//W3C//DTD SVG 1.1//EN" "http://www.w3.org/Graphics/SVG/1.1/DTD/svg11.dtd">
<svg version="1.1" id="Layer_1" xmlns="http://www.w3.org/2000/svg" xmlns:xlink="http://www.w3.org/1999/xlink" x="0px" y="0px"
	 viewBox="0 0 512 512" style="enable-background:new 0 0 512 512;" xml:space="preserve">
<g>
	<g>
		<path style="fill:#E7E9F0;" d="M454,452.8H58c-5.2,0-9.4-4.2-9.4-9.4V45.3c0-5.2,4.2-9.4,9.4-9.4H454c5.2,0,9.4,4.2,9.4,9.4v398.2
			C463.4,448.6,459.2,452.8,454,452.8z"/>
		<circle style="fill:#646464;" cx="100.7" cy="78.1" r="13"/>
		<circle style="fill:#9F9F9F;" cx="141" cy="78.1" r="13"/>
		<circle style="fill:#9B9B9B;" cx="181.4" cy="78.1" r="13"/>
		<rect x="232.1" y="65.2" style="fill:#FFFFFF;" width="186.7" height="25.9"/>
		<rect x="87.7" y="119.9" style="fill:#FFFFFF;" width="331.1" height="287.3"/>
		<rect x="131.2" y="148.5" style="fill:#E7E9F0;" width="244.1" height="41.5"/>
		<rect x="253.2" y="368.6" style="fill:#1CB89A;" width="127.2" height="24.7"/>
		<rect x="131.2" y="210.7" style="fill:#BDC2C7;" width="26.7" height="26.3"/>
		<rect x="164.7" y="210.7" style="fill:#BDC2C7;" width="26.7" height="26.3"/>
		<rect x="198.3" y="210.7" style="fill:#BDC2C7;" width="26.7" height="26.3"/>
		<rect x="131.2" y="243.5" style="fill:#BDC2C7;" width="26.7" height="26.3"/>
		<rect x="164.7" y="243.5" style="fill:#BDC2C7;" width="26.7" height="26.3"/>
		<rect x="198.3" y="243.5" style="fill:#BDC2C7;" width="26.7" height="26.3"/>
		<rect x="131.2" y="276.3" style="fill:#BDC2C7;" width="26.7" height="26.3"/>
		<rect x="164.7" y="276.3" style="fill:#BDC2C7;" width="26.7" height="26.3"/>
		<rect x="198.3" y="276.3" style="fill:#BDC2C7;" width="26.7" height="26.3"/>
		<rect x="131" y="319.4" style="fill:#BDC2C7;" width="94" height="36.3"/>
		<rect x="253.2" y="210.7" style="fill:#BDC2C7;" width="127.2" height="13.5"/>
		<rect x="253.2" y="232.6" style="fill:#BDC2C7;" width="127.2" height="13.5"/>
		<rect x="253.2" y="254.5" style="fill:#BDC2C7;" width="127.2" height="13.5"/>
		<rect x="253.2" y="276.5" style="fill:#BDC2C7;" width="127.2" height="13.5"/>
		<rect x="253.2" y="298.4" style="fill:#BDC2C7;" width="127.2" height="13.5"/>
		<rect x="253.2" y="320.3" style="fill:#BDC2C7;" width="127.2" height="13.5"/>
		<rect x="253.2" y="342.2" style="fill:#BDC2C7;" width="127.2" height="13.5"/>
	</g>
	<g>
		<circle style="opacity:0.2;fill:#BDC2C7;" cx="149.6" cy="167.5" r="8"/>
		<path style="fill:#BDC2C7;" d="M149.6,157.7c-5.4,0-9.8,4.4-9.8,9.8c0,5.4,4.4,9.8,9.8,9.8c5.4,0,9.8-4.4,9.8-9.8
			C159.4,162,155,157.7,149.6,157.7z M149.6,175.4c-4.4,0-8-3.6-8-8c0-4.4,3.6-8,8-8c4.4,0,8,3.6,8,8
			C157.6,171.9,154,175.4,149.6,175.4z"/>
		<path style="opacity:0.3;fill:#BDC2C7;" d="M149.6,160.7c3.4,0,6.4,2.1,7.7,5c-0.8-3.5-4-6.1-7.7-6.1c-3.8,0-6.9,2.6-7.7,6.1
			C143.2,162.7,146.2,160.7,149.6,160.7z"/>
		<path style="fill:#BDC2C7;" d="M165.4,180.4l-4.9-4.9c-0.3-0.3-0.7-0.3-1-0.1l-1.6-1.6l-1.7,1.7l1.6,1.6c-0.2,0.3-0.2,0.8,0.1,1.1
			l4.9,4.9c0.3,0.3,0.9,0.3,1.2,0l1.4-1.4C165.7,181.2,165.7,180.7,165.4,180.4z"/>
	</g>
	<g>
		<path style="fill:#547DAA;" d="M106.1,471.1c0,0,11.1-20.1,13.3-46.7c9.1,0.1,23.8,2.9,23.8,2.9s-5.6,33.7-7.3,49
			c-5.2-8.1-13.3-18.5-13.3-18.5S121.7,462.1,106.1,471.1z"/>
		<path style="fill:#547DAA;" d="M202.9,436.8c0,0-21-9.2-39-29c-7.2,5.7-17.2,16.8-17.2,16.8s24.9,23.3,35.6,34.4
			c-0.9-9.6-0.7-22.8-0.7-22.8S185,439.2,202.9,436.8z"/>
		<path style="opacity:0.25;fill:#231F20;" d="M119.4,424.4c-0.2,2.4-0.5,4.7-0.8,6.9c2.3-1.6,5.9-0.5,6.4,2.7l0.1,0.4
			c0.7,4.6,7.3,4.6,8.1,0l0.1-0.4c0.6-3.9,5.8-4.7,7.6-1.2l0.2,0.3c0.3,0.6,0.7,1,1.1,1.3c0.7-4.4,1.2-7.2,1.2-7.2
			S128.5,424.5,119.4,424.4z"/>
		<path style="opacity:0.25;fill:#231F20;" d="M171.5,415.5c-2.2-2.1-4.4-4.3-6.5-6.6c-7.2,5.7-18.7,15.2-18.7,15.2s2.1,2.1,3,3
			c1.3-1.8,4.1-2.4,6.1-0.6l0.3,0.3c3.4,3.2,8.6-0.9,6.4-4.9l-0.2-0.3c-1.9-3.4,1.7-7.3,5.3-5.7l0.3,0.2
			C169,416.6,170.4,416.3,171.5,415.5z"/>
		<path style="fill:#547DAA;" d="M116.6,336.7l0-0.4c0-4.6,6.5-5.7,8-1.3l0.1,0.4c1.2,3.7,6.5,3.7,7.7,0l0.1-0.4
			c1.5-4.4,8-3.3,8,1.4l0,0.4c0,3.9,4.9,5.6,7.3,2.5l0.2-0.3c2.8-3.7,8.6-0.5,7.1,3.9l-0.1,0.4c-1.3,3.7,2.8,6.9,6.1,4.8l0.3-0.2
			c3.9-2.5,8.3,2.3,5.4,6l-0.2,0.3c-2.4,3.1,0.4,7.5,4.2,6.5l0.4-0.1c4.5-1.1,7.1,4.9,3.2,7.4l-0.3,0.2c-3.3,2.1-2,7.2,1.9,7.5
			l0.4,0c4.6,0.4,5.1,6.9,0.6,8l-0.4,0.1c-3.8,0.9-4.2,6.1-0.7,7.7l0.3,0.2c4.2,1.9,2.6,8.2-2,7.8l-0.4,0c-3.9-0.4-6,4.4-3.1,7.1
			l0.3,0.3c3.4,3.1-0.2,8.6-4.4,6.7l-0.3-0.2c-3.6-1.6-7.1,2.2-5.3,5.7l0.2,0.3c2.2,4.1-3,8.1-6.4,4.9l-0.3-0.3
			c-2.9-2.7-7.5-0.2-6.8,3.7l0.1,0.4c0.8,4.6-5.5,6.7-7.6,2.6l-0.2-0.3c-1.8-3.5-7-2.6-7.6,1.2l-0.1,0.4c-0.8,4.6-7.3,4.5-8.1,0
			l-0.1-0.4c-0.6-3.9-5.8-4.7-7.6-1.3l-0.2,0.3c-2.2,4.1-8.4,1.9-7.6-2.6l0.1-0.4c0.7-3.9-3.9-6.4-6.8-3.7l-0.3,0.3
			c-3.4,3.1-8.6-0.9-6.3-5l0.2-0.3c1.9-3.4-1.6-7.3-5.2-5.7l-0.3,0.2c-4.2,1.9-7.8-3.7-4.4-6.8l0.3-0.3c2.9-2.6,0.8-7.4-3.1-7.1
			l-0.4,0c-4.6,0.4-6.2-6-2-7.8l0.3-0.1c3.6-1.5,3.2-6.8-0.6-7.7l-0.4-0.1c-4.5-1.1-3.9-7.7,0.7-8l0.4,0c3.9-0.3,5.2-5.4,1.9-7.5
			l-0.3-0.2c-3.9-2.5-1.2-8.6,3.3-7.4l0.4,0.1c3.8,1,6.7-3.4,4.3-6.5l-0.2-0.3c-2.8-3.7,1.6-8.5,5.5-5.9l0.3,0.2
			c3.3,2.2,7.4-1,6.1-4.7l-0.1-0.4c-1.5-4.4,4.3-7.5,7.1-3.8l0.2,0.3C111.6,342.3,116.6,340.6,116.6,336.7z"/>
		<circle style="fill:#7D96BC;" cx="128.7" cy="384.3" r="34.9"/>
		<circle style="fill:#547DAA;" cx="128.7" cy="384.3" r="31.1"/>
		<g>
			<path style="fill:#FFFFFF;" d="M132.9,403l-8.8,3c-3.8,1.3-8-0.8-9.3-4.6l-3-8.8c-2.9-8.7,1.7-18.1,10.4-21
				c8.7-2.9,18.1,1.7,21,10.4S141.6,400.1,132.9,403z M124,376.7c-5.9,2-9,8.4-7,14.2l2.7,7.9c0.5,1.5,2.1,2.3,3.6,1.8l7.9-2.7
				c5.9-2,9-8.4,7-14.2C136.3,377.8,129.9,374.7,124,376.7z"/>
			<g>
				<circle style="fill:#FFFFFF;" cx="132.4" cy="362.5" r="3.6"/>
			</g>
			<g>
				<circle style="fill:#FFFFFF;" cx="144.2" cy="368.3" r="3.6"/>
			</g>
		</g>
		<path style="opacity:0.1;fill:#231F20;" d="M147.7,428l-0.1-0.4c-0.1-0.7,0-1.4,0.2-2c4.9,4.6,25.2,23.7,34.5,33.4
			c-0.9-9.6-0.7-22.8-0.7-22.8s3.3,2.9,21.2,0.6c0,0-16.9-7.4-33.3-23.2c2.6-0.9,3.9-4.6,1.4-6.9l-0.3-0.3c-2.9-2.6-0.8-7.4,3.1-7.1
			l0.4,0c4.6,0.4,6.3-6,2-7.8l-0.3-0.2c-3.6-1.6-3.1-6.8,0.7-7.7l0.4-0.1c4.5-1.1,4-7.7-0.6-8l-0.4,0c-3.9-0.3-5.2-5.4-1.9-7.5
			l0.3-0.2c3.9-2.5,1.3-8.5-3.2-7.4l-0.4,0.1c-3.8,1-6.6-3.4-4.2-6.5l0.2-0.3c2.9-3.6-1.6-8.5-5.4-6l-0.3,0.2
			c-3.3,2.1-7.4-1.1-6.1-4.8l0.1-0.4c1.5-4.4-4.2-7.5-7.1-3.9l-0.2,0.3c-2.4,3.1-7.3,1.4-7.3-2.5l0-0.4c0-4.6-6.5-5.7-8-1.4
			l-0.1,0.4c-1.3,3.7-6.5,3.7-7.7,0l-0.1-0.4c-1.5-4.4-8-3.3-8,1.3l0,0.4c0,2-1.2,3.4-2.8,3.9l31.2,92
			C146.7,432,148.1,430.3,147.7,428z"/>
	</g>
	<g>
		<path style="fill:#FFFFFF;" d="M315.9,385.9h-10.5c-0.1,0-0.4-0.1-0.5-0.2c-0.1-0.1-0.1-0.3-0.1-0.4l0.8-2.9
			c0.1-0.2,0.3-0.4,0.5-0.3c0.2,0.1,0.4,0.3,0.3,0.5l-0.6,2.4h10.1c0.2,0,0.4,0.2,0.4,0.4C316.4,385.7,316.2,385.9,315.9,385.9z"/>
		<path style="fill:#FFFFFF;" d="M304.3,376.4c-0.2,0-0.4-0.1-0.4-0.4c-0.2-1.1-0.9-1-0.9-1c-0.3,0-0.9,0-1.1,0
			c-0.2,0-0.4-0.2-0.4-0.5s0.2-0.4,0.5-0.4c0.3,0,0.7,0,0.9,0c0.3,0,0.7,0,1.1,0.3c0.3,0.2,0.7,0.6,0.8,1.4
			C304.7,376.1,304.6,376.4,304.3,376.4C304.3,376.4,304.3,376.4,304.3,376.4z"/>
		<path style="opacity:0.1;fill:#FFFFFF;" d="M312.1,385h-6.3l0.6-2.4c0-0.1,0-0.1,0-0.2l-0.8,0l-0.8,2.9c0,0.1,0,0.2,0.1,0.3
			c0.1,0.1,0.3,0.2,0.5,0.2h5.5L312.1,385z"/>
		<polygon style="fill:#FFFFFF;" points="316.1,382.8 305.6,384.2 303.7,375.6 317.1,375.6 		"/>
		<polygon style="opacity:5.000000e-002;fill:#FFFFFF;" points="316.1,382.8 305.6,384.2 317.1,375.6 		"/>
		<g>
			<circle style="fill:#FFFFFF;" cx="306.6" cy="386.8" r="0.8"/>
			<path style="opacity:0.1;fill:#FFFFFF;" d="M306.1,386.2c-0.4,0.3-0.5,0.8-0.2,1.1l0,0l1.3-1C307,386,306.5,385.9,306.1,386.2z"
				/>
		</g>
		<g>
			<circle style="fill:#FFFFFF;" cx="314.7" cy="386.8" r="0.8"/>
			<path style="opacity:0.1;fill:#FFFFFF;" d="M314.2,386.2c-0.4,0.3-0.5,0.8-0.2,1.1l0,0l1.3-1C315.1,386,314.6,385.9,314.2,386.2z
				"/>
		</g>
	</g>
</g>
</svg>
