<?xml version="1.0" encoding="utf-8"?>
<!-- Generator: Adobe Illustrator 17.1.0, SVG Export Plug-In . SVG Version: 6.00 Build 0)  -->
<!DOCTYPE svg PUBLIC "-//W3C//DTD SVG 1.1//EN" "http://www.w3.org/Graphics/SVG/1.1/DTD/svg11.dtd">
<svg version="1.1" id="Layer_1" xmlns="http://www.w3.org/2000/svg" xmlns:xlink="http://www.w3.org/1999/xlink" x="0px" y="0px"
	 viewBox="0 0 512 512" style="enable-background:new 0 0 512 512;" xml:space="preserve">
<g>
	<g>
		<g>
			<g>
				<ellipse style="fill:#EEF7FD;" cx="274.3" cy="445.8" rx="162.4" ry="22.2"/>
				<rect x="111.9" y="357.8" style="fill:#EEF7FD;" width="324.8" height="88"/>
				<ellipse style="fill:#8B9BA6;" cx="274.3" cy="357.8" rx="162.4" ry="22.2"/>
			</g>
			<rect x="409.7" y="423.6" style="fill:#81C386;" width="11.9" height="11.9"/>
		</g>
		<g>
			<g>
				<ellipse style="fill:#EEF7FD;" cx="274.3" cy="322.5" rx="162.4" ry="22.2"/>
				<rect x="111.9" y="234.5" style="fill:#EEF7FD;" width="324.8" height="88"/>
				<ellipse style="fill:#8B9BA6;" cx="274.3" cy="234.5" rx="162.4" ry="22.2"/>
			</g>
			<rect x="409.7" y="300.3" style="fill:#B11116;" width="11.9" height="11.9"/>
		</g>
		<g>
			<g>
				<ellipse style="fill:#EEF7FD;" cx="274.3" cy="199.2" rx="162.4" ry="22.2"/>
				<rect x="111.9" y="111.2" style="fill:#EEF7FD;" width="324.8" height="88"/>
				<ellipse style="fill:#8B9BA6;" cx="274.3" cy="111.2" rx="162.4" ry="22.2"/>
			</g>
			<rect x="409.7" y="177" style="fill:#81C386;" width="11.9" height="11.9"/>
		</g>
		<g>
			<defs>
				<path id="SVGID_1_" d="M436.7,199.2v-88c0-12.3-72.7-22.2-162.4-22.2s-162.4,10-162.4,22.2v88c0,7.2,25,13.6,63.6,17.6
					c-38.7,4.1-63.6,10.5-63.6,17.6v88c0,7.2,25,13.6,63.6,17.6c-38.7,4.1-63.6,10.5-63.6,17.6v88c0,12.3,72.7,22.2,162.4,22.2
					s162.4-10,162.4-22.2v-88c0-7.2-25-13.6-63.6-17.6c38.7-4.1,63.6-10.5,63.6-17.6v-88c0-7.2-25-13.6-63.6-17.6
					C411.8,212.8,436.7,206.4,436.7,199.2z"/>
			</defs>
			<clipPath id="SVGID_2_">
				<use xlink:href="#SVGID_1_"  style="overflow:visible;"/>
			</clipPath>
			<polygon style="opacity:.05;clip-path:url(#SVGID_2_);fill:#231F20;" points="436.7,34.4 383.4,94.7 312.2,132.8 
				277.8,221.4 307.5,221.4 264.1,256.7 230.2,343.9 261.3,344.7 216.7,378.6 178.1,478 436.7,478 			"/>
		</g>
	</g>
	<g>
		<path style="fill:#547DAA;" d="M112.1,220c0,0,12.8-23.3,15.4-54.1c10.6,0.2,27.6,3.3,27.6,3.3s-6.4,39-8.5,56.7
			c-6-9.4-15.4-21.4-15.4-21.4S130.2,209.5,112.1,220z"/>
		<path style="fill:#547DAA;" d="M224.3,180.3c0,0-24.3-10.7-45.1-33.6c-8.3,6.6-19.9,19.5-19.9,19.5s28.8,27,41.2,39.8
			c-1-11.1-0.8-26.3-0.8-26.3S203.5,183,224.3,180.3z"/>
		<path style="opacity:0.25;fill:#231F20;" d="M127.5,165.9c-0.2,2.7-0.6,5.4-0.9,8c2.7-1.9,6.8-0.6,7.4,3.1l0.1,0.4
			c0.8,5.3,8.5,5.3,9.3,0l0.1-0.4c0.7-4.5,6.7-5.4,8.8-1.4l0.2,0.4c0.3,0.7,0.8,1.1,1.3,1.5c0.8-5,1.3-8.3,1.3-8.3
			S138.1,166,127.5,165.9z"/>
		<path style="opacity:0.25;fill:#231F20;" d="M187.8,155.7c-2.5-2.4-5.1-4.9-7.5-7.7c-8.3,6.6-21.6,17.6-21.6,17.6s2.4,2.4,3.5,3.4
			c1.6-2.1,4.8-2.8,7-0.7l0.3,0.3c3.9,3.7,10-1,7.4-5.7l-0.2-0.4c-2.2-4,2-8.4,6.1-6.6l0.4,0.2C184.9,156.9,186.6,156.6,187.8,155.7
			z"/>
		<path style="fill:#547DAA;" d="M124.3,64.3l0-0.4c0-5.4,7.5-6.6,9.2-1.5l0.1,0.4c1.4,4.3,7.5,4.3,9,0l0.1-0.4
			c1.7-5.1,9.3-3.8,9.2,1.6l0,0.4c0,4.5,5.7,6.5,8.5,2.9l0.3-0.3c3.3-4.2,10-0.6,8.2,4.5l-0.1,0.4c-1.5,4.3,3.3,8,7.1,5.5l0.4-0.2
			c4.5-2.9,9.6,2.7,6.3,6.9l-0.3,0.3c-2.8,3.5,0.5,8.6,4.9,7.5l0.4-0.1c5.2-1.3,8.2,5.7,3.7,8.6l-0.4,0.2c-3.8,2.4-2.3,8.3,2.2,8.7
			l0.4,0c5.3,0.4,6,8,0.7,9.3l-0.4,0.1c-4.4,1.1-4.9,7.1-0.8,8.9l0.4,0.2c4.9,2.2,3,9.5-2.3,9l-0.4,0c-4.5-0.4-7,5.1-3.6,8.2
			l0.3,0.3c4,3.6-0.2,10-5.1,7.8l-0.4-0.2c-4.1-1.9-8.3,2.6-6.1,6.6l0.2,0.4c2.6,4.7-3.5,9.4-7.4,5.7l-0.3-0.3
			c-3.3-3.1-8.6-0.2-7.9,4.2l0.1,0.4c0.9,5.3-6.3,7.7-8.8,3l-0.2-0.4c-2.1-4-8.1-3-8.8,1.4l-0.1,0.4c-0.9,5.3-8.5,5.3-9.3,0
			l-0.1-0.4c-0.7-4.5-6.7-5.5-8.8-1.5l-0.2,0.4c-2.6,4.7-9.7,2.2-8.8-3.1l0.1-0.4c0.8-4.5-4.5-7.4-7.9-4.3l-0.3,0.3
			c-3.9,3.6-9.9-1.1-7.4-5.8l0.2-0.4c2.2-4-1.9-8.4-6-6.6l-0.4,0.2c-4.9,2.2-9.1-4.2-5.1-7.8l0.3-0.3c3.4-3,0.9-8.6-3.6-8.2l-0.4,0
			c-5.3,0.4-7.2-6.9-2.3-9.1l0.4-0.2c4.2-1.8,3.7-7.8-0.7-8.9l-0.4-0.1c-5.2-1.3-4.5-8.9,0.8-9.3l0.4,0c4.5-0.3,6-6.2,2.2-8.7
			l-0.4-0.2c-4.5-2.9-1.4-9.9,3.8-8.5l0.4,0.1c4.4,1.1,7.7-3.9,4.9-7.5l-0.3-0.3c-3.3-4.2,1.9-9.8,6.4-6.8l0.4,0.2
			c3.8,2.5,8.6-1.2,7.1-5.5l-0.1-0.4c-1.7-5.1,5-8.7,8.2-4.4l0.3,0.3C118.5,70.8,124.3,68.9,124.3,64.3z"/>
		<circle style="fill:#7D96BC;" cx="138.4" cy="119.5" r="40.4"/>
		<circle style="fill:#547DAA;" cx="138.4" cy="119.5" r="36"/>
		<g>
			<path style="fill:#FFFFFF;" d="M143.2,141.1l-10.1,3.4c-4.4,1.5-9.3-0.9-10.8-5.3l-3.4-10.1c-3.4-10,2-20.9,12-24.4
				s20.9,2,24.4,12S153.3,137.7,143.2,141.1z M132.9,110.6c-6.8,2.3-10.4,9.7-8.1,16.5l3.1,9.2c0.6,1.7,2.5,2.6,4.2,2.1l9.2-3.1
				c6.8-2.3,10.4-9.7,8.1-16.5C147.1,112,139.7,108.3,132.9,110.6z"/>
			<g>
				<circle style="fill:#FFFFFF;" cx="142.6" cy="94.2" r="4.2"/>
			</g>
			<g>
				<circle style="fill:#FFFFFF;" cx="156.3" cy="101" r="4.2"/>
			</g>
		</g>
		<path style="opacity:0.1;fill:#231F20;" d="M160.3,170.1l-0.1-0.4c-0.1-0.9,0-1.6,0.2-2.3c5.6,5.3,29.1,27.5,40,38.7
			c-1-11.1-0.8-26.3-0.8-26.3s3.8,3.4,24.5,0.7c0,0-19.6-8.6-38.6-26.9c3-1.1,4.5-5.3,1.6-8l-0.3-0.3c-3.3-3.1-0.9-8.6,3.6-8.2
			l0.4,0c5.3,0.5,7.2-6.9,2.3-9l-0.4-0.2c-4.1-1.8-3.6-7.9,0.8-8.9l0.4-0.1c5.2-1.3,4.6-8.9-0.7-9.3l-0.4,0c-4.5-0.4-6-6.3-2.2-8.7
			l0.4-0.2c4.5-2.9,1.5-9.9-3.7-8.6L187,92c-4.4,1.1-7.7-4-4.9-7.5l0.3-0.3c3.3-4.2-1.8-9.8-6.3-6.9l-0.4,0.2
			c-3.8,2.5-8.6-1.3-7.1-5.5l0.1-0.4c1.8-5.1-4.9-8.7-8.2-4.5l-0.3,0.3c-2.8,3.6-8.5,1.6-8.5-2.9l0-0.4c0-5.4-7.5-6.6-9.2-1.6
			l-0.1,0.4c-1.5,4.3-7.5,4.3-9,0l-0.1-0.4c-1.7-5.1-9.2-3.9-9.2,1.5l0,0.4c0,2.3-1.4,3.9-3.2,4.5l36.1,106.5
			C159.2,174.7,160.8,172.7,160.3,170.1z"/>
	</g>
</g>
</svg>
