<svg xmlns="http://www.w3.org/2000/svg"
	 viewBox="0 0 512 512">
<g>
	<g>
		<path style="fill:#E0E4E9;" d="M256.2,372.8H15.7v10.6c0,0,0,8.4,20.5,8.4s219.9,0,219.9,0s199.4,0,219.9,0
			c20.5,0,20.5-8.4,20.5-8.4v-10.6H256.2z"/>
		<path style="fill:#CED3D9;" d="M15.7,383.4c0,0,0,8.4,20.5,8.4s219.9,0,219.9,0s199.4,0,219.9,0c20.5,0,20.5-8.4,20.5-8.4H15.7z"
			/>
		<path style="fill:#CED3D9;" d="M256.2,372.8H222c0,0,0.2,6,7.8,6c6.6,0,26.4,0,26.4,0s19.8,0,26.4,0c7.5,0,7.8-6,7.8-6H256.2z"/>
	</g>
	<path style="fill:#424C5B;" d="M435.4,120.2H76.9c-6.8,0-12.4,5.6-12.4,12.4v222.1v5.8v12.4h12.4h358.5h12.4v-12.4v-5.8V132.6
		C447.8,125.7,442.2,120.2,435.4,120.2z"/>
	<rect x="75.8" y="132.4" style="fill:#ECEEF0;" width="357.9" height="228.1"/>
	<circle style="fill:#E0E4E9;" cx="256.2" cy="126.6" r="1.5"/>
	<rect x="180.3" y="226.9" style="fill:#424C5B;" width="163" height="67.9"/>
	<rect x="180.3" y="223.6" style="fill:#1CB89A;" width="163" height="67.9"/>
	<g>
		<path style="fill:#424C5B;" d="M226.1,242.8v29h-3.7v-29H226.1z"/>
		<path style="fill:#424C5B;" d="M232.9,256.6c0-2.2,0-3.9-0.2-5.6h3.4l0.2,3.4h0.1c1-2,3.4-3.9,6.9-3.9c2.9,0,7.4,1.7,7.4,8.9v12.4
			h-3.8v-12c0-3.4-1.2-6.2-4.8-6.2c-2.5,0-4.4,1.8-5.1,3.9c-0.2,0.5-0.3,1.1-0.3,1.8v12.5h-3.8V256.6z"/>
		<path style="fill:#424C5B;" d="M257.7,251l4.1,11.7c0.7,1.9,1.2,3.6,1.7,5.3h0.1c0.5-1.7,1.1-3.4,1.8-5.3l4-11.7h4l-8.2,20.8h-3.6
			l-7.9-20.8H257.7z"/>
		<path style="fill:#424C5B;" d="M281.1,245.2c0,1.3-0.9,2.3-2.4,2.3c-1.3,0-2.3-1-2.3-2.3c0-1.3,1-2.4,2.4-2.4
			C280.2,242.8,281.1,243.8,281.1,245.2z M276.9,271.8V251h3.8v20.8H276.9z"/>
		<path style="fill:#424C5B;" d="M298.5,271.8l-0.3-2.6h-0.1c-1.2,1.6-3.4,3.1-6.4,3.1c-4.2,0-6.4-3-6.4-6c0-5,4.5-7.8,12.5-7.7
			v-0.4c0-1.7-0.5-4.8-4.7-4.8c-1.9,0-4,0.6-5.4,1.5l-0.9-2.5c1.7-1.1,4.2-1.8,6.8-1.8c6.4,0,7.9,4.3,7.9,8.5v7.8
			c0,1.8,0.1,3.6,0.3,5H298.5z M297.9,261.2c-4.1-0.1-8.8,0.6-8.8,4.7c0,2.5,1.6,3.6,3.6,3.6c2.7,0,4.4-1.7,5-3.5
			c0.1-0.4,0.2-0.8,0.2-1.2V261.2z"/>
	</g>
	<g>
		<path style="fill:#424C5B;" d="M307.8,282.8c0,0.5,0,1,0,1.5c0.5,0,1,0,1.5,0c0,0.4,0,0.8,0,1.2c0,0.3,0.1,0.3,0.3,0.3
			c0.4,0,0.8,0,1.2,0c0,0.4,0,0.8,0,1.2c0,0.2,0.1,0.3,0.3,0.3c0.3,0,0.6,0,0.9,0c0.2,0,0.3,0.1,0.3,0.3c0,0.3,0,0.6,0,1
			c0,0.2,0.1,0.2,0.2,0.2c0.3,0,0.7,0,1,0c0.2,0,0.2,0.1,0.2,0.2c0,0.4,0,0.8,0,1.2c0.5,0,1,0,1.5,0c0,0.5,0,1,0,1.5
			c0.5,0,1,0,1.5,0c0,0.4,0,0.8,0,1.2c0,0.3,0.1,0.3,0.3,0.3c0.3,0,0.6,0,0.9,0c0.2,0,0.3,0,0.3,0.3c0,0.3,0,0.7,0,1
			c0,0.2,0.1,0.3,0.2,0.3c0.3,0,0.7,0,1,0c0.2,0,0.3,0,0.3,0.3c0,0.3,0,0.6,0,1c0,0.2,0.1,0.3,0.3,0.3c0.3,0,0.6,0,0.9,0
			c0.3,0,0.3,0.1,0.3,0.3c0,0.3,0,0.6,0,0.9c0,0.2,0.1,0.3,0.3,0.3c0.3,0,0.6,0,1,0c0.2,0,0.3,0.1,0.3,0.3c0,0.3,0,0.6,0,0.9
			c0,0.3,0.1,0.4,0.4,0.4c0,0,0.1,0,0.2,0c0,0.4-0.1,0.8-0.2,1.2c0,0.1-0.1,0.1-0.1,0.1c-0.1,0-0.3,0.1-0.4,0.1c-1.3,0-2.6,0-3.9,0
			c-0.4,0-0.4,0-0.4,0.4c0,0.8,0,1.6,0,2.3c0,0.2,0.1,0.3,0.3,0.3c0.3,0,0.6,0,0.9,0c0.2,0,0.2,0.1,0.2,0.2c0,0.8,0,1.6,0,2.4
			c0,0.3,0.1,0.3,0.3,0.3c0.3,0,0.6,0,0.9,0c0.2,0,0.3,0.1,0.3,0.3c0,0.8,0,1.5,0,2.3c0,0.5,0,0.5,0.5,0.5c0.1,0,0.1,0,0.2,0
			c0,0.3-0.1,0.6-0.1,1c-0.1,0.6-0.1,1.1-0.2,1.7c0,0.1-0.1,0.2-0.1,0.2c-0.2,0.1-0.2,0.2-0.2,0.3c0,0.4,0,0.8,0,1.2
			c-1.5,0-3,0-4.4,0c0-0.5,0-1,0-1.5c1,0,2,0,3,0c0-1,0-2,0-3c-0.5,0-1,0-1.5,0c0-1,0-2,0-3c-0.5,0-1,0-1.5,0c0-1,0-2,0-3
			c-0.4,0-0.8,0-1.2,0c-0.2,0-0.3-0.1-0.3-0.3c0-1.3,0-2.6,0-4c0-0.1,0-0.2,0-0.3c1.5,0,3,0,4.4,0c0-0.5,0-1,0-1.5c-0.5,0-1,0-1.5,0
			c0-0.5,0-1,0-1.5c-0.5,0-1,0-1.5,0c0-0.4,0-0.8,0-1.2c0-0.2-0.1-0.3-0.3-0.3c-0.4,0-0.8,0-1.2,0c0-0.5,0-1,0-1.5c-0.5,0-1,0-1.5,0
			c0-0.5,0-1,0-1.5c-0.5,0-1,0-1.5,0c0-0.5,0-1,0-1.5c-0.5,0-1,0-1.5,0c0-0.5,0-1,0-1.5c-0.5,0-1,0-1.5,0c0-0.5,0-1,0-1.5
			c-0.5,0-1,0-1.5,0c0-0.5,0-1,0-1.5c-0.5,0-1,0-1.5,0c0,6.5,0,12.9,0,19.4c0.5,0,1,0,1.5,0c0-0.5,0-1,0-1.5c0.5,0,1,0,1.5,0
			c0-0.5,0-1,0-1.5c0.5,0,1,0,1.5,0c0-0.5,0-1,0-1.5c0.5,0,1,0,1.5,0c0,1,0,2,0,3c-0.5,0-1,0-1.6,0c0,0.5,0,1,0,1.5
			c-0.5,0-1,0-1.5,0c0,0.5,0,1,0,1.5c-0.5,0-1,0-1.5,0c0,0.5,0,1,0,1.5c-1,0-2,0-2.9,0c0-8.4,0-16.9,0-25.3
			C305.9,282.8,306.8,282.8,307.8,282.8z"/>
		<path style="fill:#FFFFFF;" d="M312.3,303.7c0-1,0-2,0-3c-0.5,0-1,0-1.5,0c0,0.5,0,1,0,1.5c-0.5,0-1,0-1.5,0c0,0.5,0,1,0,1.5
			c-0.5,0-1,0-1.5,0c0,0.5,0,1,0,1.5c-0.5,0-1,0-1.5,0c0-6.4,0-12.9,0-19.4c0.5,0,1,0,1.5,0c0,0.5,0,1,0,1.5c0.5,0,1,0,1.5,0
			c0,0.5,0,1,0,1.5c0.5,0,1,0,1.5,0c0,0.5,0,1,0,1.5c0.5,0,1,0,1.5,0c0,0.5,0,1,0,1.5c0.5,0,1,0,1.5,0c0,0.5,0,1,0,1.5
			c0.5,0,1,0,1.5,0c0,0.5,0,1,0,1.5c0.4,0,0.8,0,1.2,0c0.2,0,0.3,0.1,0.3,0.3c0,0.4,0,0.8,0,1.2c0.5,0,1,0,1.5,0c0,0.5,0,1,0,1.5
			c0.5,0,1,0,1.5,0c0,0.5,0,1,0,1.5c-1.5,0-2.9,0-4.4,0c0,0.1,0,0.2,0,0.3c0,1.3,0,2.6,0,4c0,0.2,0.1,0.3,0.3,0.3c0.4,0,0.8,0,1.2,0
			c0,1,0,2,0,3c0.5,0,1,0,1.5,0c0,1,0,2,0,3c0.5,0,1,0,1.5,0c0,1,0,2,0,3c-1,0-2,0-3,0l0,0c0-1,0-2,0-3c-0.5,0-1,0-1.5,0
			c0-1,0-2,0-3c-0.5,0-1,0-1.5,0l0,0c0-1,0-2,0-3C313.3,303.7,312.8,303.7,312.3,303.7L312.3,303.7z"/>
		<path style="fill:#424C5B;" d="M313.8,306.6c0.5,0,1,0,1.5,0c0,1,0,2,0,3c0.5,0,1,0,1.5,0c0,1,0,2,0,3c-0.5,0-1,0-1.5,0
			c0-1,0-2,0-3c-0.5,0-1,0-1.5,0C313.8,308.6,313.8,307.6,313.8,306.6z"/>
		<path style="fill:#424C5B;" d="M312.3,303.7c0.5,0,1,0,1.5,0c0,1,0,2,0,3c-0.5,0-1,0-1.5,0C312.3,305.6,312.3,304.6,312.3,303.7z"
			/>
	</g>
	<path style="opacity:0.2;fill:#FFFFFF;" d="M435.4,120.2H230l82.4,252.4h135.5v-12.1v-5.8V132.6
		C447.8,125.7,442.2,120.2,435.4,120.2z"/>
</g>
</svg>
