<svg  xmlns="http://www.w3.org/2000/svg"  
	 viewBox="0 0 512 512" >
<g id="iPhone">
	<g>
		<path style="fill:#424C5B;" d="M326.716,385.129c0,12.196-9.978,22.174-22.174,22.174h-97.083
			c-12.196,0-22.174-9.978-22.174-22.174V126.837c0-12.196,9.979-22.174,22.174-22.174h97.083c12.196,0,22.174,9.979,22.174,22.174
			V385.129z"/>
		<rect x="194.429" y="147.233" style="fill:#E9EDED;" width="123.264" height="215.875"/>
		<circle style="fill:#323B48;" cx="256" cy="119.373" r="2.721"/>
		<path style="fill:#323B48;" d="M275.484,129.954h-38.968c-1.123,0-2.033,0.91-2.033,2.033c0,1.123,0.91,2.034,2.033,2.034h38.968
			c1.123,0,2.033-0.91,2.033-2.034C277.518,130.865,276.607,129.954,275.484,129.954z"/>
		<g>
			<circle style="fill:#323B48;" cx="256" cy="385.713" r="10.435"/>
			
				<rect x="252.35" y="382.063" style="opacity:0.02;fill:none;stroke:#FFFFFF;stroke-width:0.6522;stroke-miterlimit:10;" width="7.299" height="7.299"/>
		</g>
		<polygon style="opacity:0.05;fill:#FFFFFF;" points="326.716,104.662 202.892,104.662 281.992,407.338 326.716,407.338 		"/>
	</g>
</g>
</svg>
