<svg xmlns="http://www.w3.org/2000/svg" 
	viewBox="0 0 512 512">
<path style="fill:#424C5B;" d="M326.7,385.1c0,12.2-10,22.2-22.2,22.2h-97.1c-12.2,0-22.2-10-22.2-22.2V126.8
	c0-12.2,10-22.2,22.2-22.2h97.1c12.2,0,22.2,10,22.2,22.2V385.1z"/>
<rect x="194.4" y="147.2" style="fill:#E9EDED;" width="123.3" height="215.9"/>
<circle style="fill:#323B48;" cx="256" cy="119.4" r="2.7"/>
<path style="fill:#323B48;" d="M275.5,130h-39c-1.1,0-2,0.9-2,2c0,1.1,0.9,2,2,2h39c1.1,0,2-0.9,2-2
	C277.5,130.9,276.6,130,275.5,130z"/>
<g>
	<circle style="fill:#323B48;" cx="256" cy="385.7" r="10.4"/>
	
		<rect x="252.4" y="382.1" style="opacity:0.2;fill:none;stroke:#FFFFFF;stroke-width:0.6522;stroke-miterlimit:10;" width="7.3" height="7.3"/>
</g>
<path style="opacity:0.05;fill:#FFFFFF;" d="M304.5,104.7h-97.1c-1.5,0-3,0.2-4.4,0.5l79,302.2h22.6
	c12.2,0,22.2-10,22.2-22.2V126.8C326.7,114.6,316.7,104.7,304.5,104.7z"/>
</svg>
