<svg xmlns="http://www.w3.org/2000/svg" viewBox="0 0 52.7 74.7">
	<path fill="#A4A49C" d="M29.4,33.1l-6.6-4L0.3,66c-0.6,0.9-0.3,2.1,0.6,2.7l3.3,2C5.1,71.2,6.3,71,6.9,70l0.9-1.4l9.9,6.1l3-5l-4.5-2.9l3.4-5.6l4.5,2.9l3.3-5.4l-9.9-6.1L29.4,33.1z"/>
	<polygon fill="#7B7C76" points="23.9,42.5 13.4,44.5 17.6,37.7 33,31.2 	"/>
	<path fill="#A4A49C" d="M30.9,0C18.8,0,9.1,9.8,9.1,21.8c0,12.1,9.8,21.8,21.8,21.8c12.1,0,21.8-9.8,21.8-21.8C52.7,9.8,42.9,0,30.9,0z M35.6,23.5c-4.5,0-8.2-3.7-8.2-8.2c0-4.5,3.7-8.2,8.2-8.2c4.5,0,8.2,3.7,8.2,8.2C43.8,19.9,40.2,23.5,35.6,23.5z"/>
	<polygon fill="#7B7C76" points="24.2,64.1 27.5,58.7 21.6,55.1 11.9,71.1 17.7,74.6 20.8,69.7 16.3,66.7 19.7,61.1"/>
	<path opacity="0.3" fill="#FFFFFF" d="M30.9,0C19.2,0,9.6,9.3,9.1,20.9l18.5-4.4c0-0.4-0.1-0.7-0.1-1.1c0-4.5,3.7-8.2,8.2-8.2c3.6,0,6.6,2.3,7.7,5.5l6.5-1.6C46.1,4.5,39,0,30.9,0z"/>
</svg>
