<svg xmlns="http://www.w3.org/2000/svg"
	 viewBox="0 0 512 512">
<g>
	<polygon style="fill:#656A77;" points="69.5,201.5 257.4,75.2 442.6,201.5 442.6,436.7 69.5,436.7 	"/>
	<path style="fill:#E0DFE2;" d="M394.1,383H118c-3.6,0-6.5-2.9-6.5-6.5V98.9c0-3.6,2.9-6.5,6.5-6.5h276.1c3.6,0,6.5,2.9,6.5,6.5
		v277.6C400.7,380.1,397.7,383,394.1,383z"/>
	<rect x="138.7" y="141.9" style="fill:#FFFFFF;" width="230.8" height="241.1"/>
	<rect x="239.4" y="112.8" style="fill:#FFFFFF;" width="130.1" height="18.1"/>
	<path style="fill:#FBB040;" d="M253.7,342.2c-17.9,0-33.5-5.2-44.4-20.2c-8.7-11.8-11.8-25.7-12-40c-0.5-34,7.8-65.7,28.6-93.2
		c3.7-4.9,8.4-9.2,13.4-12.7c10.5-7.3,22.4-6.3,32.4,1.8c14.4,11.7,22.6,27.5,29,44.4c8.7,22.9,12.7,46.6,9.1,71
		C305.6,320.7,290.1,342.5,253.7,342.2z"/>
	<polygon style="fill:#AAABB2;" points="442.6,436.7 69.5,436.7 69.5,201.5 	"/>
	<polygon style="fill:#93949E;" points="69.5,436.7 442.6,436.7 442.6,201.5 	"/>
</g>
</svg>
