<svg xmlns="http://www.w3.org/2000/svg"
	 viewBox="0 0 512 512">
<g>
	<g>
		<polygon style="fill:#656A77;" points="82.6,201.6 270.4,75.4 455.4,201.6 455.4,436.7 82.6,436.7 		"/>
		<path style="fill:#E0DFE2;" d="M407,383.1H131.1c-3.6,0-6.5-2.9-6.5-6.5V185.9c0-3.6,2.9-6.5,6.5-6.5H407c3.6,0,6.5,2.9,6.5,6.5
			v190.7C413.5,380.2,410.6,383.1,407,383.1z"/>
		<rect x="151.8" y="228.8" style="fill:#FFFFFF;" width="230.7" height="149.6"/>
		<polygon style="fill:#AAABB2;" points="455.4,436.7 82.6,436.7 82.6,201.6 		"/>
		<polygon style="fill:#93949E;" points="82.6,436.7 455.4,436.7 455.4,201.6 		"/>
		<rect x="252.4" y="199.7" style="fill:#FFFFFF;" width="130.1" height="18"/>
	</g>
	<path style="fill:#F26762;" d="M191.8,196.7c42.2-14.5,86-10,120.8,9c-1.2-5.6-2.7-11.2-4.6-16.8c-21.8-63.2-85.3-98.6-141.8-79.1
		c-56.6,19.5-84.8,86.5-63,149.7c1.1,3.2,2.3,6.2,3.6,9.2C123.6,236.5,153.3,209.9,191.8,196.7z"/>
	<circle style="fill:#FFFFFF;" cx="89.3" cy="276.8" r="29.7"/>
	<path style="fill:#FFFFFF;" d="M196.6,172.1c-32.4,11.1-53.6,34.1-62.7,62l13.3,8.3c11.9-21.5,31.9-38.9,57-47.5
		c58.1-18.4,87.8,30.7,103.3,27.1c10.5-3,15.3-9.9,10-18.8C296.8,168.7,248.8,154.1,196.6,172.1z"/>
</g>
</svg>
