<svg xmlns="http://www.w3.org/2000/svg"
	 viewBox="0 0 512 512">
<g>
	<polygon style="fill:#656A77;" points="67.6,221.5 257,94.2 443.5,221.5 443.5,458.5 67.6,458.5 	"/>
	<path style="fill:#E0DFE2;" d="M394.7,346.2H116.5c-3.6,0-6.6-2.9-6.6-6.6V59.9c0-3.6,2.9-6.6,6.6-6.6h278.2c3.6,0,6.6,2.9,6.6,6.6
		v279.7C401.3,343.2,398.3,346.2,394.7,346.2z"/>
	<rect x="137.4" y="103.2" style="fill:#FFFFFF;" width="232.6" height="242.9"/>
	<polygon style="fill:#AAABB2;" points="443.5,458.5 67.6,458.5 67.6,221.5 	"/>
	<polygon style="fill:#93949E;" points="67.6,458.5 443.5,458.5 443.5,221.5 	"/>
	<g>
		<path style="fill:#ED1C24;" d="M216.6,154.9c1.7,0,3.4,0,5,0c0.4,0.1,0.9,0.2,1.3,0.3c10.7,1.1,19.8,5.4,27.1,13.3
			c1.3,1.4,2.4,2.9,3.6,4.4c0.2-0.2,0.4-0.4,0.5-0.6c6.6-9.3,15.7-14.7,26.8-16.7c1.6-0.3,3.1-0.5,4.7-0.7c1.7,0,3.4,0,5,0
			c0.3,0.1,0.6,0.2,1,0.2c9.6,0.7,18.1,4.1,25.3,10.4c5.9,5.2,9.9,11.6,11.5,19.3c2,9.7,0.4,19-4,27.8c-4.1,8.3-10.3,14.9-17.2,20.9
			c-7.7,6.7-15.7,13.1-23.6,19.6c-10.3,8.6-20.1,17.7-28.1,28.6c-1.2,1.6-2.5,1.6-3.7,0.1c-5.5-7.1-11.6-13.7-18.4-19.5
			c-8.4-7.2-17.1-14.2-25.6-21.2c-7.2-5.9-14.2-12-19.8-19.5c-4.5-6-7.7-12.6-9-20c-0.4-2.2-0.6-4.5-1-6.7c0-1.5,0-3,0-4.5
			c0.1-0.4,0.2-0.7,0.2-1.1c0.7-8.2,4-15.2,9.6-21.1c5.9-6.3,13.2-10.3,21.7-12C211.8,155.5,214.2,155.2,216.6,154.9z"/>
	</g>
	<rect x="238.8" y="73.9" style="fill:#FFFFFF;" width="131.1" height="18.2"/>
</g>
</svg>
