<svg xmlns="http://www.w3.org/2000/svg"
	 viewBox="0 0 512 512">
<g>
	<polygon style="fill:#656A77;" points="67.8,221.4 257.5,94 444.3,221.4 444.3,458.8 67.8,458.8 	"/>
	<path style="fill:#E0DFE2;" d="M395.4,346.3H116.7c-3.6,0-6.6-3-6.6-6.6V59.6c0-3.6,3-6.6,6.6-6.6h278.7c3.6,0,6.6,3,6.6,6.6v280.2
		C402,343.4,399.1,346.3,395.4,346.3z"/>
	<rect x="137.6" y="103" style="fill:#FFFFFF;" width="233" height="243.4"/>
	<polygon style="fill:#AAABB2;" points="444.3,458.8 67.8,458.8 67.8,221.4 	"/>
	<polygon style="fill:#93949E;" points="67.8,458.8 444.3,458.8 444.3,221.4 	"/>
	<polygon style="fill:#1CB89A;" points="248.7,134.6 270.7,179.4 320.1,186.5 284.4,221.3 292.8,270.5 248.7,247.3 204.5,270.5 
		212.9,221.3 177.2,186.5 226.6,179.4 	"/>
	<rect x="239.3" y="73.6" style="fill:#FFFFFF;" width="131.4" height="18.2"/>
</g>
</svg>
