<svg xmlns="http://www.w3.org/2000/svg" 
	 viewBox="0 0 512 512">
<g>
	<path style="fill:#EFD278;" d="M185.6,243.5c0,0,41.4-1.3,66.2-51.6s46.5-101.3,46.5-101.3s4.5-12.1,28-12.1c23.6,0,23.6,0,23.6,0
		s15.3-3.2,15.3,10.8s1.3,25.5-3.2,42.7c-4.5,17.2-4.5,43.9-4.5,43.9l1.9,26.8h47.8c0,0,8.3,0,19.7,6.4c11.5,6.4,24.8,7.6,24.8,21.7
		s0,155.4,0,155.4s-3.8,14-8.9,19.1s-26.8,26-26.8,26s-4.5,4.6-16.6,4.6s-100.6,0-100.6,0s-19.7-0.6-29.3-9.6S244.9,406,244.9,406
		h-59.2V243.5z"/>
	<path style="opacity:0.1;fill:#231F20;" d="M448.7,221.3c-4.6-5.6-13.6-7.6-21.7-12.1c-11.5-6.4-19.7-6.4-19.7-6.4h-47.8l18.5,18.5
		H448.7z"/>
	<path style="opacity:0.1;fill:#231F20;" d="M185.6,243.5V406H234l-22.3-170.5C197.2,243.2,185.6,243.5,185.6,243.5z"/>
	<g>
		<path style="fill:#689DBF;" d="M186,431.3H72.7c-6.6,0-12-5.4-12-12V226.9c0-6.6,5.4-12,12-12H186c6.6,0,12,5.4,12,12v192.4
			C198,425.9,192.6,431.3,186,431.3z"/>
		<path style="fill:#8BB9D7;" d="M186,214.9H72.7c-6.6,0-12,5.4-12,12v17.9H198v-17.9C198,220.3,192.6,214.9,186,214.9z"/>
	</g>
</g>
</svg>
