<svg  xmlns="http://www.w3.org/2000/svg"  
	 viewBox="0 0 512 512" >
<g id="lock-open">
	<g>
		<path style="fill:#BFC0BA;" d="M362.248,151.841c0-58.475-47.511-105.987-106.509-105.987
			c-58.475,0-105.987,47.511-105.987,105.987l0,0l0,0v16.707h58.998v-16.707c0-26.105,20.884-46.989,46.989-46.989
			s46.989,20.884,46.989,46.989v95.023v18.796h58.997V151.841H362.248L362.248,151.841z"/>
		<path style="fill:#A4A49C;" d="M362.248,151.841L362.248,151.841c0-49.078-32.892-89.802-77.793-102.332
			c-86.669,0-75.705,119.039-75.705,119.039v-17.229c0-26.105,20.884-46.989,46.989-46.989s46.989,20.884,46.989,46.989v95.023
			v18.796h56.387h2.611L362.248,151.841L362.248,151.841z"/>
		<path style="fill:#E0A428;" d="M422.289,460.403c0,0-56.909,5.743-166.028,5.743s-166.551-5.743-166.551-5.743V249.474
			c0,0,46.989-12.53,166.028-12.53s166.551,12.53,166.551,12.53V460.403z"/>
		<path style="fill:#746036;" d="M287.065,334.576c0-17.229-14.097-30.804-30.804-30.804s-30.804,14.097-30.804,30.804
			c0,12.008,6.787,22.45,16.707,27.671l-7.309,50.122h44.379l-7.309-50.644C280.8,355.983,287.065,346.063,287.065,334.576z"/>
		<path style="opacity:0.1;fill:#FFFFFF;enable-background:new    ;" d="M422.289,249.474c0,0-46.989-12.53-166.028-12.53
			s-166.551,12.53-166.551,12.53v210.929c0,0,3.133,0.522,9.398,1.044l323.181-201.531V249.474z"/>
	</g>
</g>
</svg>
