<svg xmlns="http://www.w3.org/2000/svg"
	 viewBox="0 0 512 512">
<g>
	<circle style="fill:#DD7147;" cx="256" cy="256" r="187"/>
	<path style="fill:#FFFFFF;" d="M305.4,256l54.4-54.4c3.9-3.9,3.9-10,0-13.9l-35.6-35.6c-3.9-3.9-10-3.9-13.9,0l-54.4,54.4
		l-54.4-54.4c-3.9-3.9-10-3.9-13.9,0L152,187.7c-3.9,3.9-3.9,10,0,13.9l54.4,54.4L152,310.4c-3.9,3.9-3.9,10,0,13.9l35.6,35.6
		c3.9,3.9,10,3.9,13.9,0l54.4-54.4l54.4,54.4c3.9,3.9,10,3.9,13.9,0l35.6-35.6c3.9-3.9,3.9-10,0-13.9L305.4,256z"/>
	<path style="opacity:0.05;fill:#231F20;enable-background:new    ;" d="M69,256c0,103.3,83.7,187,187,187V69
		C152.7,69,69,152.7,69,256z"/>
</g>
</svg>
