<?xml version="1.0" encoding="utf-8"?>
<!-- Generator: Adobe Illustrator 17.1.0, SVG Export Plug-In . SVG Version: 6.00 Build 0)  -->
<!DOCTYPE svg PUBLIC "-//W3C//DTD SVG 1.1//EN" "http://www.w3.org/Graphics/SVG/1.1/DTD/svg11.dtd">
<svg version="1.1" id="Layer_1" xmlns="http://www.w3.org/2000/svg" xmlns:xlink="http://www.w3.org/1999/xlink" x="0px" y="0px"
	 viewBox="0 0 160 160" enable-background="new 0 0 160 160" xml:space="preserve">
<path fill="#25BAA5" d="M113.1,99.7l-18.6,18.6c-8,8-21.3,8-29.3,0L46.9,99.7c-18.2-18.2-18.2-48,0-66.2s48-18.2,66.2,0
	S131.4,81.4,113.1,99.7z M57.6,44.2c-12.3,12.3-12.3,32.5,0,44.8l16.8,16.8c3.2,3.2,8.2,3.2,11.4,0L102.4,89
	c12.3-12.3,12.3-32.5,0-44.8S69.9,31.8,57.6,44.2z"/>
<path fill="#5E5E5E" d="M79.6,51.9c-8.8,0-15.9,7.1-15.9,15.9s7.1,15.9,15.9,15.9s15.9-7.1,15.9-15.9S88.4,51.9,79.6,51.9z M79.6,78
	c-2.2-5.8-10.1-5.8-10-12c0-6.4,7.8-6.5,10,0c2.2-6.5,10-6.4,10.1,0.1C89.6,72.1,81.8,72.2,79.6,78z"/>
</svg>
