<svg  xmlns="http://www.w3.org/2000/svg"  
	 viewBox="0 0 512 512" >
<g id="payment-visa">
	<g>
		<path style="fill-rule:evenodd;clip-rule:evenodd;fill:#263C84;" d="M429.166,192.395v-28.077
			c0-12.067-9.864-21.935-21.934-21.935H104.765c-12.066,0-21.935,9.868-21.935,21.935v28.077H429.166z"/>
		<path style="fill-rule:evenodd;clip-rule:evenodd;fill:#263C84;" d="M82.829,319.605v28.077c0,12.067,9.869,21.935,21.935,21.935
			h302.467c12.07,0,21.934-9.868,21.934-21.935v-28.077H82.829z"/>
		<path style="fill-rule:evenodd;clip-rule:evenodd;fill:#263C84;" d="M197.835,213.923l-21.365,57.613l-2.283-11.706l-0.007-0.02
			l-7.63-38.789c-1.313-5.366-5.149-6.934-9.884-7.127h-35.2l-0.189,1.455c8.473,2.162,16.051,5.306,22.703,9.221l19.515,73.76
			h23.093l34.347-84.408H197.835z"/>
		<polygon style="fill-rule:evenodd;clip-rule:evenodd;fill:#263C84;" points="216.128,298.358 229.775,213.851 251.608,213.851 
			237.946,298.358 		"/>
		<path style="fill-rule:evenodd;clip-rule:evenodd;fill:#263C84;" d="M317.096,215.941c-4.304-1.716-11.117-3.569-19.539-3.569
			c-21.592,0-36.771,11.468-36.9,27.871c-0.136,12.184,10.845,18.941,19.114,22.996c8.505,4.136,11.36,6.79,11.331,10.492
			c-0.085,5.639-6.809,8.219-13.076,8.219c-8.719,0-13.365-1.262-20.512-4.433l-2.843-1.327l-3.046,18.901
			c5.101,2.392,14.511,4.406,24.326,4.533c22.904,0,37.796-11.351,37.978-28.884c0.104-9.631-5.729-16.94-18.346-22.969
			c-7.596-3.911-12.32-6.503-12.239-10.475c0.009-3.508,3.951-7.255,12.521-7.255c7.138-0.149,12.26,1.499,16.323,3.236l1.95,0.984
			L317.096,215.941z"/>
		<path style="fill-rule:evenodd;clip-rule:evenodd;fill:#263C84;" d="M346.149,268.396c1.821-4.851,8.702-23.616,8.702-23.616
			c-0.145,0.23,1.765-4.904,2.898-8.067l1.451,7.309c0,0,4.197,20.154,5.061,24.374C360.87,268.396,350.411,268.396,346.149,268.396
			L346.149,268.396z M373.049,213.931h-16.859c-5.225,0-9.132,1.519-11.452,7.009l-32.389,77.434h22.931
			c0,0,3.746-10.407,4.583-12.698c2.516,0,24.753,0.044,27.932,0.044c0.679,2.959,2.677,12.654,2.677,12.654h20.251L373.049,213.931
			z"/>
		<path style="fill-rule:evenodd;clip-rule:evenodd;fill:#E2A325;" d="M429.171,319.605H82.829v28.081
			c0,12.063,9.869,21.927,21.931,21.927h302.479c12.063,0,21.931-9.864,21.931-21.927V319.605z"/>
	</g>
</g>
</svg>
