<svg  xmlns="http://www.w3.org/2000/svg"  
	 viewBox="0 0 512 512" >
<g id="payment-master">
	<g>
		<path style="fill-rule:evenodd;clip-rule:evenodd;fill:#E5E6E5;" d="M103.41,141.364h305.177c12.178,0,22.13,9.956,22.13,22.13
			v185.009c0,12.176-9.952,22.132-22.13,22.132H103.41c-12.174,0-22.132-9.956-22.132-22.132V163.495
			C81.278,151.321,91.236,141.364,103.41,141.364z"/>
		<path style="fill-rule:evenodd;clip-rule:evenodd;fill:#F1F1F1;" d="M103.41,141.364h305.18c12.171,0,22.132,9.956,22.132,22.13
			v2.94L103.934,370.636h-0.524c-12.171,0-22.132-9.956-22.132-22.132V163.495C81.278,151.321,91.239,141.364,103.41,141.364z"/>
		<path style="fill-rule:evenodd;clip-rule:evenodd;fill:#DA1F26;" d="M278.118,256c0,37.81-30.652,68.446-68.455,68.446
			S141.217,293.81,141.217,256c0-37.803,30.643-68.452,68.446-68.452S278.118,218.197,278.118,256z"/>
		<path style="fill-rule:evenodd;clip-rule:evenodd;fill:#F9A01B;" d="M370.784,256c0,37.81-30.652,68.446-68.455,68.446
			c-37.807,0-68.45-30.636-68.45-68.446c0-37.803,30.643-68.452,68.45-68.452C340.132,187.548,370.784,218.197,370.784,256z"/>
	</g>
</g>
</svg>
