<svg  xmlns="http://www.w3.org/2000/svg"  
	 viewBox="0 0 512 512" >
<g id="payment-paypal">
	<g>
		<path style="fill-rule:evenodd;clip-rule:evenodd;fill:#E5E6E5;" d="M104.092,141.877h303.814
			c12.124,0,22.032,9.912,22.032,22.032V348.09c0,12.121-9.908,22.033-22.032,22.033H104.092c-12.12,0-22.033-9.912-22.033-22.033
			V163.908C82.059,151.788,91.972,141.877,104.092,141.877z"/>
		<path style="fill-rule:evenodd;clip-rule:evenodd;fill:#F1F1F1;" d="M104.092,141.877h303.817
			c12.117,0,22.033,9.912,22.033,22.032v2.928L104.613,370.123h-0.521c-12.117,0-22.033-9.912-22.033-22.029V163.908
			C82.059,151.788,91.975,141.877,104.092,141.877z"/>
		<g>
			<path style="fill-rule:evenodd;clip-rule:evenodd;fill:#125A91;" d="M327.325,223.437c-1.12-2.175-2.803-3.96-4.982-5.313
				c-2.205-1.384-4.828-2.337-7.85-2.894c-3.032-0.554-6.58-0.836-10.658-0.836h-18.888c-1.954,0-3.891,1.538-4.32,3.436
				l-12.771,55.35c-0.456,1.901,0.792,3.448,2.713,3.448h9.076c1.947,0,3.884-1.547,4.337-3.448l3.096-13.412
				c0.449-1.879,2.37-3.437,4.324-3.437h2.592c11.066,0,19.662-2.273,25.827-6.803c6.145-4.551,9.234-10.514,9.234-17.914
				C329.057,228.347,328.483,225.626,327.325,223.437L327.325,223.437L327.325,223.437z M307.792,241.533
				c-2.718,1.983-6.513,2.993-11.426,2.993h-2.225c-1.958,0-3.182-1.562-2.746-3.461l2.726-11.748
				c0.427-1.882,2.37-3.428,4.307-3.428l2.975-0.004c3.464,0,6.069,0.581,7.861,1.76c1.741,1.155,2.612,2.951,2.612,5.374
				C311.877,236.705,310.508,239.535,307.792,241.533z"/>
		</g>
		<g>
			<path style="fill-rule:evenodd;clip-rule:evenodd;fill:#125A91;" d="M352.147,276.627h11.369c1.939,0,3.884-1.547,4.333-3.448
				l6.585-28.497c0.167-0.669,0.299-1.444,0.409-2.346c0.084-0.892,0.132-1.622,0.132-2.164c0-4.049-1.723-7.029-5.143-8.939
				c-3.453-1.937-8.822-2.887-16.158-2.887c-3.646,0-7.297,0.275-10.962,0.836c-3.675,0.557-6.372,1.065-8.132,1.518l-1.527,7.773
				c-0.372,1.897-0.057,3.464,0.698,3.464c1.47-0.55,3.719-1.232,6.694-2.08c2.997-0.845,5.722-1.263,8.173-1.263
				c3.645,0,6.378,0.387,8.2,1.171c1.813,0.786,2.742,2.144,2.742,4.082c0,0.467-0.041,0.892-0.125,1.283
				c-0.097,0.379-0.167,0.667-0.211,0.823c-5.159,0.303-9.996,0.779-14.45,1.43c-4.433,0.634-8.268,1.679-11.494,3.132
				c-3.424,1.538-6.012,3.589-7.773,6.174c-1.741,2.584-2.617,5.716-2.617,9.431c0,3.512,1.236,6.375,3.706,8.56
				c2.46,2.192,5.629,3.282,9.509,3.282c2.427,0,4.32-0.165,5.68-0.513c1.353-0.339,2.823-0.832,4.381-1.49
				c1.147-0.5,2.382-1.195,3.71-2.08c1.332-0.872,2.475-1.622,3.428-2.252L352.147,276.627L352.147,276.627L352.147,276.627z
				 M354.99,264.406c-1.483,1.053-3.065,1.926-4.749,2.608c-1.655,0.687-3.25,1.037-4.707,1.037c-2.258,0-3.981-0.335-5.148-0.997
				c-1.175-0.649-1.769-1.768-1.769-3.383c0-1.833,0.44-3.307,1.345-4.425c0.876-1.102,2.168-1.967,3.84-2.577
				c1.635-0.585,3.625-1.033,5.964-1.34c2.325-0.291,4.813-0.557,7.489-0.795L354.99,264.406z"/>
		</g>
		<path style="fill-rule:evenodd;clip-rule:evenodd;fill:#125A91;" d="M403.903,214.887l-12.927,58.301
			c-0.429,1.901-2.374,3.448-4.32,3.448h-8.083c-1.943,0-3.19-1.547-2.742-3.448l12.121-54.865c0.447-1.886,2.394-3.436,4.34-3.436
			H403.903z"/>
		<g>
			<path style="fill-rule:evenodd;clip-rule:evenodd;fill:#16295A;" d="M167.674,223.538c-1.131-2.184-2.79-3.96-4.989-5.321
				c-2.218-1.365-4.817-2.326-7.841-2.89c-3.041-0.554-6.586-0.832-10.651-0.832h-18.895c-1.967,0-3.893,1.543-4.341,3.44
				l-12.771,55.35c-0.436,1.897,0.788,3.448,2.755,3.448h9.063c1.934,0,3.881-1.551,4.317-3.437l3.097-13.424
				c0.444-1.889,2.381-3.44,4.336-3.44h2.588c11.071,0,19.676-2.256,25.825-6.798c6.157-4.551,9.237-10.506,9.237-17.927
				c0.004-3.255-0.581-5.984-1.732-8.169H167.674L167.674,223.538z M148.121,241.627c-2.709,1.99-6.509,3-11.398,3h-2.245
				c-1.947,0-3.195-1.555-2.755-3.457l2.726-11.749c0.444-1.901,2.39-3.447,4.336-3.447h2.96c3.453,0,6.076,0.597,7.837,1.772
				c1.76,1.162,2.645,2.955,2.645,5.378C152.227,236.801,150.858,239.64,148.121,241.627z"/>
		</g>
		<g>
			<path style="fill-rule:evenodd;clip-rule:evenodd;fill:#16295A;" d="M192.493,276.733h11.373c1.946,0,3.88-1.551,4.32-3.437
				l6.593-28.508c0.174-0.674,0.311-1.453,0.379-2.354c0.11-0.883,0.154-1.618,0.154-2.148c0.004-4.054-1.708-7.04-5.152-8.955
				c-3.424-1.93-8.814-2.89-16.158-2.89c-3.651,0-7.295,0.273-10.942,0.847c-3.686,0.561-6.4,1.074-8.132,1.518l-1.538,7.76
				c-0.379,1.91-0.044,3.475,0.702,3.475c1.49-0.548,3.71-1.251,6.703-2.087c2.995-0.828,5.7-1.256,8.167-1.256
				c3.622,0,6.371,0.389,8.2,1.171c1.829,0.783,2.75,2.145,2.75,4.082c0,0.464-0.068,0.893-0.134,1.276
				c-0.117,0.387-0.181,0.662-0.198,0.836c-5.192,0.302-9.996,0.766-14.458,1.413c-4.444,0.645-8.277,1.699-11.499,3.145
				c-3.423,1.547-6.011,3.598-7.771,6.173c-1.741,2.584-2.629,5.73-2.629,9.432c0,3.512,1.232,6.371,3.71,8.559
				c2.464,2.181,5.64,3.287,9.513,3.287c2.434,0,4.32-0.178,5.68-0.513c1.382-0.356,2.83-0.84,4.368-1.494
				c1.155-0.504,2.399-1.195,3.73-2.08c1.325-0.885,2.484-1.631,3.408-2.26L192.493,276.733L192.493,276.733L192.493,276.733z
				 M195.319,264.499c-1.481,1.054-3.057,1.934-4.74,2.619c-1.671,0.684-3.238,1.03-4.707,1.03c-2.245,0-3.97-0.326-5.143-0.984
				c-1.168-0.642-1.76-1.785-1.76-3.404c0-1.817,0.427-3.299,1.312-4.408c0.904-1.102,2.188-1.958,3.867-2.585
				c1.657-0.568,3.622-1.028,5.957-1.34c2.337-0.295,4.84-0.557,7.476-0.779L195.319,264.499z"/>
		</g>
		<path style="fill-rule:evenodd;clip-rule:evenodd;fill:#16295A;" d="M261.364,228.375c-1.939,0-4.505,1.571-5.676,3.448
			l-16.01,27.423l-4.388-27.374c-0.432-1.897-2.37-3.46-4.324-3.46h-8.075c-1.954,0-3.191,1.563-2.753,3.46l7.001,45.22
			c0.137,0.981,0.275,1.805,0.383,2.5l-8.704,14.571c-1.159,1.897-0.537,3.448,1.389,3.448h9.386c1.947,0,4.482-1.551,5.64-3.448
			l39.035-65.787H261.364z"/>
	</g>
</g>
</svg>
