<?xml version="1.0" encoding="utf-8"?>
<!-- Generator: Adobe Illustrator 17.0.1, SVG Export Plug-In . SVG Version: 6.00 Build 0)  -->
<!DOCTYPE svg PUBLIC "-//W3C//DTD SVG 1.1//EN" "http://www.w3.org/Graphics/SVG/1.1/DTD/svg11.dtd">
<svg xmlns="http://www.w3.org/2000/svg" viewBox="0 0 100 100">
<g>
	 <animateTransform
        attributeType="XML"
        attributeName="transform"
        type="rotate"
        values="0,50,25; 5,50,25; 0,50,25; -5,50,25; 0,50,25; 0,50,25; 5,50,25; 0,50,25; -5,50,25; 0,50,25; 5,50,25; 0,50,25; -5,50,25; 0,50,25; 5,50,25; 0,50,25; -5,50,25; 0,50,25; 5,50,25; 0,50,25; 0,50,25; 0,50,25; 0,50,25; 0,50,25; 0,50,25; 0,50,25; 0,50,25; 0,50,25; 0,50,25; 0,50,25; 0,50,25; 0,50,25; 0,50,25; 0,50,25; 0,50,25; 0,50,25; 0,50,25; 0,50,25; 0,50,25; 0,50,25;  5,50,25; 0,50,25; -5,50,25; 0,50,25; 5,50,25; 0,50,25; -5,50,25; 0,50,25; 0,50,25; 0,50,25; 0,50,25; 0,50,25; 0,50,25; 0,50,25; 0,50,25;"
        begin="7s" dur="1.2s"
        repeatCount="indefinite"/>
	<path style="fill:#E1E3E4;" d="M50,28.5c0,0,8-0.1,14.9-0.1c6.9,0,7.9,6.1,7.9,6.1c-1,2-1,5.5-1,5.5c2.5,1.4,16,5.8,19.8,5.8
		c1-2.4,1.7-5.2,1.7-8c0-6.4-4.3-9.9-7.9-13.7C62.9,16.9,50,17.3,50,17.3s-12.9-0.4-35.4,6.7c-3.7,3.9-7.9,7.3-7.9,13.7
		c0,2.8,0.7,5.6,1.7,8c3.7,0,17.3-4.4,19.8-5.8c0,0,0-3.5-1-5.5c0,0,1-6.1,7.9-6.1S50,28.5,50,28.5z"/>
	<path style="opacity:0.2;fill:#CDCFCF;" d="M8.6,31c-0.8,1.9-1.2,4-1.2,6.1c0,2.9,0.6,5.6,1.7,8c0.2,0,0.4,0,0.6,0
		c1.3,0,2.5-0.1,3.7-0.2c4.9-1.2,11.3-3.4,13.9-4.5c0.3-0.2,0.6-0.4,0.8-0.5c0-0.7-0.1-3.6-1-5.4c0,0,0.1-0.6,0.4-1.4
		c-2.1-5.3-6.5-9.4-10.3-9.9c-0.9,0.3-1.7,0.5-2.6,0.8C12.5,26.3,10.2,28.4,8.6,31z"/>
	<path style="fill:#CDCFCF;" d="M14.7,24.5c-3.6,1-7.8,7.5-7.8,13.7c0,2.9,0.6,5.6,1.7,8c0.2,0,0.4,0,0.6,0c11.9,0,19-5.7,19-5.8
		C28.1,31.3,20,23,14.7,24.5z"/>
	<path style="fill:#E1E3E4;" d="M14.6,24.1c-3.7,1-7.9,7.5-7.9,13.7c0,2.9,0.6,5.6,1.7,8c0.2,0,0.4,0,0.6,0
		c12.1,0,19.1-5.7,19.1-5.8C28.1,30.9,20,22.6,14.6,24.1z"/>
	<path style="fill:#ECECED;" d="M27.3,34.9c-2.2-6.9-8.3-12.1-12.7-10.9c-3.7,1-7.9,7.5-7.9,13.7c0,1,0.1,2,0.2,2.9
		c1.4,0,2.8-0.1,4.2-0.3C17.4,39.7,23,37.7,27.3,34.9z"/>
	<path style="opacity:0.3;fill:#FFFFFF;" d="M11.4,42.3c-1.1-6.1-0.3-12.2,2-17.7c-3.3,1.9-6.7,7.6-6.7,13.2c0,2.9,0.8,6,1.9,8.4
		c0.2,0,0.4,0,0.6,0c1.1,0,2.1,0,3.1-0.1C11.9,44.9,11.6,43.6,11.4,42.3z"/>
	<path style="opacity:0.2;fill:#CDCFCF;" d="M91.4,31c0.8,1.9,1.2,4,1.2,6.1c0,2.9-0.6,5.6-1.7,8c-0.2,0-0.4,0-0.6,0
		c-1.3,0-2.5-0.1-3.7-0.2c-4.9-1.2-11.3-3.4-13.9-4.5c-0.3-0.2-0.6-0.4-0.8-0.5c0-0.7,0.1-3.6,1-5.4c0,0-0.1-0.6-0.4-1.4
		c2.1-5.3,6.5-9.4,10.3-9.9c0.9,0.3,1.7,0.5,2.6,0.8C87.5,26.3,89.8,28.4,91.4,31z"/>
	<path style="fill:#CDCFCF;" d="M85.3,24.5c3.6,1,7.8,7.5,7.8,13.7c0,2.9-0.6,5.6-1.7,8c-0.2,0-0.4,0-0.6,0c-11.9,0-19-5.7-19-5.8
		C71.9,31.3,80,23,85.3,24.5z"/>
	<path style="fill:#E1E3E4;" d="M85.4,24.1c3.7,1,7.9,7.5,7.9,13.7c0,2.9-0.6,5.6-1.7,8c-0.2,0-0.4,0-0.6,0
		c-12.1,0-19.1-5.7-19.1-5.8C71.9,30.9,80,22.6,85.4,24.1z"/>
	<path style="fill:#ECECED;" d="M85.4,24.1c-4.3-1.2-10.5,4-12.7,10.9c4.3,2.8,9.9,4.8,16.2,5.5c1.4,0.2,2.8,0.3,4.2,0.3
		c0.1-1,0.2-1.9,0.2-2.9C93.3,31.5,89.1,25.1,85.4,24.1z"/>
	<path style="opacity:0.3;fill:#FFFFFF;" d="M86.7,24.6c2.3,5.5,3.1,11.6,2,17.7c-0.2,1.3-0.6,2.6-1,3.8c1,0.1,2.1,0.1,3.1,0.1
		c0.2,0,0.4,0,0.6,0c1.1-2.4,1.9-5.6,1.9-8.4C93.3,32.2,90,26.5,86.7,24.6z"/>
	<path style="opacity:0.3;fill:#FFFFFF;" d="M51.5,19.1c12.8,0.1,24.5,2,34,5c0,0-0.1-0.1-0.1-0.1C62.9,16.9,50,17.3,50,17.3
		S37.1,16.9,14.7,24c-0.1,0.1-0.3,0.3-0.4,0.4C24.2,21,37.2,19,51.5,19.1z"/>
</g>
<g>
	<path style="fill:#E1E3E4;" d="M64.3,35.4H35.6c-2,6.2-7,11.1-13.2,13.1l-5.7,19.1L16.6,83h66.8l-0.1-15.4l-5.7-19.1
		C71.3,46.5,66.4,41.6,64.3,35.4z"/>
	<rect x="17" y="67.6" style="fill:#ECECED;" width="66.1" height="15.4"/>
	<g>
		<polygon style="fill:#ECECED;" points="83,67.6 68.5,35.4 68.3,35.4 66.3,23.5 60.2,22.8 60.2,31.1 39.6,31.1 39.6,22.8 
			33.5,23.5 31.5,35.4 31.5,35.4 17,67.6 		"/>
		<polygon style="opacity:0.3;fill:#FFFFFF;" points="33.5,23.5 39.6,22.8 39.6,24.1 33.3,24.8 		"/>
		<polygon style="opacity:0.3;fill:#FFFFFF;" points="66.3,23.5 60.2,22.8 60.2,24.1 66.5,24.8 		"/>
	</g>
	<rect x="39.6" y="28.4" style="fill:#CDCFCF;" width="0.7" height="2.7"/>
	<rect x="59.4" y="28.4" style="fill:#CDCFCF;" width="0.7" height="2.7"/>
	<rect x="39.6" y="31" style="opacity:0.3;fill:#FFFFFF;" width="20.7" height="1.1"/>
	<path style="opacity:0.3;fill:#FFFFFF;" d="M83,67.6L70.7,40.1c-5.9-3-13-4.7-20.7-4.7s-14.7,1.7-20.7,4.7L17,67.6H83z"/>
	<ellipse style="opacity:0.2;fill:#CDCFCF;" cx="49.6" cy="51" rx="19" ry="13.9"/>
	<ellipse style="fill:#F4EFF1;" cx="49.9" cy="50" rx="18.1" ry="12.8"/>
	<ellipse style="opacity:0.2;fill:#CDCFCF;" cx="49.9" cy="49" rx="9.2" ry="6.1"/>
	<ellipse style="fill:#FFFFFF;" cx="49.9" cy="48.7" rx="8.8" ry="5.9"/>
	<g>
		<path style="opacity:0.7;fill:#CDCFCF;" d="M57.9,44c0,0.1,0,0.2,0.1,0.4c0.2-0.8,1.3-1.4,2.6-1.4s2.3,0.6,2.6,1.4
			c0-0.1,0.1-0.2,0.1-0.4c0-1-1.2-1.7-2.6-1.7C59.1,42.2,57.9,43,57.9,44z"/>
		<path style="opacity:0.7;fill:#CDCFCF;" d="M56,40.1c1.2,0,2.3,0.6,2.5,1.3c0-0.1,0.1-0.3,0.1-0.4c0-1-1.2-1.7-2.6-1.7
			c-1.4,0-2.6,0.8-2.6,1.7c0,0.1,0,0.3,0.1,0.4C53.7,40.6,54.8,40.1,56,40.1z"/>
		<path style="opacity:0.7;fill:#CDCFCF;" d="M36.6,47.1c1.5-0.1,2.8,0.5,3,1.5c0-0.1,0.1-0.2,0.1-0.4c0-1.1-1.3-1.9-2.9-1.9
			c-1.6,0-2.9,0.9-2.9,1.9c0,0.2,0,0.3,0.1,0.5C34.2,47.8,35.3,47.2,36.6,47.1z"/>
		<path style="opacity:0.7;fill:#CDCFCF;" d="M39.4,42.9c1.3,0,2.3,0.6,2.6,1.4c0-0.1,0.1-0.2,0.1-0.4c0-1-1.2-1.7-2.6-1.7
			c-1.4,0-2.6,0.8-2.6,1.7c0,0.1,0,0.2,0.1,0.4C37.1,43.5,38.1,42.9,39.4,42.9z"/>
		<path style="opacity:0.7;fill:#CDCFCF;" d="M37.6,51.8c1.2,0,2.3,0.4,2.8,1c-0.2-1-1.4-1.8-2.9-1.8c-1.6,0-2.9,1-2.9,2.1
			c0,0.1,0,0.2,0,0.3C34.9,52.6,36.1,51.9,37.6,51.8z"/>
		<path style="opacity:0.7;fill:#CDCFCF;" d="M60.2,48.4c0,0.1,0,0.3,0.1,0.4c0.3-0.9,1.5-1.5,2.9-1.5s2.6,0.7,2.9,1.5
			c0-0.1,0.1-0.3,0.1-0.4c0-1.1-1.3-1.9-2.9-1.9S60.2,47.4,60.2,48.4z"/>
		<path style="opacity:0.7;fill:#CDCFCF;" d="M50,39.1c1.2,0,2.2,0.5,2.5,1.2c0-0.1,0-0.1,0-0.2c0-1-1.2-1.7-2.6-1.7
			c-1.4,0-2.6,0.8-2.6,1.7c0,0.2,0,0.4,0.1,0.5C47.6,39.7,48.7,39.1,50,39.1z"/>
		<path style="opacity:0.7;fill:#CDCFCF;" d="M43.9,39.3c-1.4,0-2.6,0.8-2.6,1.7c0,0.1,0,0.3,0.1,0.4c0.3-0.7,1.3-1.3,2.5-1.3
			c1.2,0,2.2,0.6,2.5,1.3c0.1-0.1,0.1-0.3,0.1-0.4C46.5,40.1,45.3,39.3,43.9,39.3z"/>
		<path style="opacity:0.7;fill:#CDCFCF;" d="M42.7,55.9c1.3,0,2.3,0.5,2.8,1.4c-0.2-1.2-1.4-2.2-2.8-2.2c-1.6,0-2.8,1.1-2.8,2.4
			c0,0.1,0,0.2,0,0.4C40.1,56.8,41.3,55.9,42.7,55.9z"/>
		<path style="fill:#ECECED;" d="M43.9,40.2c-1.2,0-2.2,0.6-2.5,1.3c0.3,0.7,1.3,1.3,2.5,1.3c1.2,0,2.2-0.6,2.5-1.3
			C46.1,40.7,45.1,40.2,43.9,40.2z"/>
		<path style="fill:#ECECED;" d="M39.4,42.9c-1.3,0-2.3,0.6-2.6,1.4c0.2,0.8,1.3,1.4,2.6,1.4c1.3,0,2.3-0.6,2.6-1.4
			C41.7,43.5,40.6,42.9,39.4,42.9z"/>
		<path style="fill:#ECECED;" d="M50,39.1c-1.3,0-2.4,0.7-2.6,1.5c0.3,0.7,1.3,1.2,2.5,1.2c1.3,0,2.4-0.7,2.6-1.5
			C52.2,39.6,51.2,39.1,50,39.1z"/>
		<path style="fill:#ECECED;" d="M56,40.1c-1.2,0-2.3,0.6-2.5,1.3c0.3,0.8,1.3,1.3,2.5,1.3c1.2,0,2.3-0.6,2.5-1.3
			C58.3,40.6,57.2,40.1,56,40.1z"/>
		<path style="fill:#ECECED;" d="M60.5,42.9c-1.3,0-2.3,0.6-2.6,1.4c0.2,0.8,1.3,1.4,2.6,1.4s2.3-0.6,2.6-1.4
			C62.8,43.5,61.8,42.9,60.5,42.9z"/>
		<path style="fill:#ECECED;" d="M63.1,47.3c-1.4,0-2.6,0.7-2.9,1.5c0.3,0.9,1.5,1.5,2.9,1.5s2.6-0.7,2.9-1.5
			C65.7,48,64.5,47.3,63.1,47.3z"/>
		<path style="fill:#ECECED;" d="M36.6,47.1c-1.3,0.1-2.4,0.8-2.7,1.6c0.3,0.8,1.5,1.5,2.8,1.5c1.4,0,2.6-0.7,2.9-1.6
			C39.4,47.6,38.1,46.9,36.6,47.1z"/>
		<path style="fill:#ECECED;" d="M40.4,53.2c0-0.1,0-0.2,0-0.3c-0.5-0.6-1.6-1.1-2.8-1c-1.5,0-2.7,0.8-3,1.7c0.2,1,1.4,1.8,2.9,1.8
			C39.1,55.3,40.4,54.3,40.4,53.2z"/>
		<path style="fill:#ECECED;" d="M42.7,55.9c-1.5,0.1-2.6,0.9-2.8,2c0.2,1.2,1.4,2.1,2.8,2.1c1.6,0,2.8-1.1,2.8-2.4
			c0-0.1,0-0.2,0-0.3C45.1,56.4,44,55.8,42.7,55.9z"/>
	</g>
	<path style="opacity:0.7;fill:#CDCFCF;" d="M49.9,57.6c1.3,0,2.4,0.5,2.8,1.3c-0.2-1.2-1.4-2.1-2.8-2.1c-1.6,0-2.8,1.1-2.8,2.4
		c0,0.1,0,0.2,0,0.3C47.2,58.4,48.4,57.6,49.9,57.6z"/>
	<path style="fill:#ECECED;" d="M49.9,57.6c-1.5,0-2.7,0.9-2.9,1.9c0.2,1.2,1.4,2.2,2.8,2.2c1.6,0,2.8-1.1,2.8-2.4
		c0-0.1,0-0.2,0-0.3C52.3,58.1,51.2,57.5,49.9,57.6z"/>
	<g>
		<rect x="18.8" y="83" style="fill:#B7B7B8;" width="7.9" height="1.4"/>
		<rect x="73.3" y="83" style="fill:#B7B7B8;" width="7.9" height="1.4"/>
	</g>
	<path style="opacity:0.2;fill:#CDCFCF;" d="M61.1,59.9c-1.5-0.2-5.7,0-6.6-3.4c0,0-0.9,4.2,3.5,4.8L58,63.6c0,0,1.5-0.3,3.1-1.4
		C61.1,60.7,61.1,60.1,61.1,59.9C61.1,60,61.1,60,61.1,59.9z"/>
	<path style="fill:#E1E3E4;" d="M54.5,56.1c0,0-1.3,4.4,3.9,5.1c1.3-0.4,1.8-0.6,3-1.4C59.9,59.6,55.4,59.5,54.5,56.1z"/>
	<path style="opacity:0.2;fill:#CDCFCF;" d="M61.5,61.9c0,0,0.1,0,0.5,0.2c-1,1.2-3.6,2.1-3.6,2.1L58,63.6
		C58,63.6,60.9,62.4,61.5,61.9z"/>
	<path style="fill:#CDCFCF;" d="M58.4,61.2v2.6c0,0,2.1-0.7,3-1.6c0-1.5,0-2.4,0-2.4S60.6,60.5,58.4,61.2z"/>
	<polygon style="fill:#F4EFF1;" points="39.8,78.3 39.8,73.4 41.4,73.4 41.4,71.7 38.3,71.7 38.3,80 41.4,80 41.4,78.3 	"/>
	<polygon style="fill:#F4EFF1;" points="61.4,73.4 61.4,78.3 59.9,78.3 59.9,80 62.9,80 62.9,71.7 59.9,71.7 59.9,73.4 	"/>
	<rect x="39.3" y="72.9" style="fill:#E1E3E4;" width="22.7" height="5.9"/>
	<rect x="39.8" y="73.5" style="fill:#F3F3F3;" width="21.6" height="4.7"/>
</g>
</svg>
