<svg xmlns="http://www.w3.org/2000/svg"
	 viewBox="0 0 512 512">
<g>
	<circle style="fill:#D994AE;" cx="435.9" cy="174.8" r="39.4"/>
	<path style="fill:#E1A9BE;" d="M463.5,255.2c0-87.7-85.8-158.7-191.7-158.7c-92.2,0-169.2,54-187.5,125.8
		c-14.9,2.2-31.3,3.4-46.7,1.9c0,24.3,0,80.1,0,80.1l59.6,16.2c11.2,20.5,27.5,38.7,47.6,53.4l-22.1,70.3h61.4l47.6-33.9
		c13,2.3,26.4,3.5,40.2,3.5c18,0,35.4-2.1,52-6l51,36.4h61.4L411,364.3C443.5,335.8,463.5,297.5,463.5,255.2z"/>
	<path style="fill:#D994AE;" d="M231.2,171.5c-3,24.3-24.4,45.2-52.7,46.4c-28.4,1.2-56.1-82.3-66.4-110.5s10.2-39.2,62.4-25.6
		S234.3,147.2,231.2,171.5z"/>
	<ellipse style="fill:#A87F8F;" cx="142.7" cy="228.1" rx="11.2" ry="28"/>
	<path style="fill:#DB93AD;" d="M462.6,270.4h-425c0,18.3,0,34,0,34l59.6,16.2c11.2,20.5,27.5,38.7,47.6,53.4l-22.1,70.3h61.4
		l47.6-33.9c13,2.3,26.4,3.5,40.2,3.5c18,0,35.4-2.1,52-6l51,36.4h61.4L411,364.3C439.5,339.3,458.4,306.6,462.6,270.4z"/>
	<path style="fill:#A87F8F;" d="M324.3,102.6c-16.7-3.9-34.3-6.1-52.5-6.1c-11.4,0-22.5,0.8-33.3,2.4v17.8h85.7V102.6z"/>
</g>
</svg>
