<svg xmlns="http://www.w3.org/2000/svg" viewBox="0 0 213.2 370">
	<path fill="#83C787" opacity="0.34" d="M157.6,119.1l-27.5,27.5c-12,12-31.6,12-43.6,0l-27.5-27.5c-27.2-27.2-27.2-71.5,0-98.7s71.5-27.2,98.7,0S184.8,91.9,157.6,119.1z M74.9,36.4c-18.4,18.4-18.4,48.4,0,66.8l24.9,24.9c4.7,4.7,12.3,4.7,16.9,0l24.9-24.9c18.4-18.4,18.4-48.4,0-66.8S93.3,17.9,74.9,36.4z"/>
	<polygon fill="#6B5A51" points="198.3,191.2 14.9,191.2 0,134.9 213.2,134.9 	"/>
	<polygon opacity="5.000000e-002" fill="#221F1F" points="174.8,191.2 14.9,191.2 0,134.9 189.8,134.9 	"/>
	<path fill="#D8DBDC" d="M177.3,126.5c-4.1-29.9-44.6-43.1-45-43.2l2.5-7.8c1.9,0.6,45.9,14.9,50.7,49.9L177.3,126.5z"/>
	<ellipse transform="matrix(0.9823 0.1872 -0.1872 0.9823 17.1134 -22.5684)" fill="#29292A" cx="128" cy="79.3" rx="19.4" ry="14.7"/>
	<polygon fill="#7E6A5F" points="213.2,134.9 0,134.9 1.5,120.2 211.7,120.2 	"/>
	<rect x="0" y="361.1" fill="#7E6A5F" width="213.2" height="9"/>
	<polygon fill="#6B5A51" points="22.4,326.2 190.8,326.2 213.2,361.1 0,361.1 	"/>
	<polygon opacity="5.000000e-002" fill="#221F1F" points="22.4,326.2 170,326.2 192.4,361.1 0,361.1 	"/>
	<rect x="27.4" y="150.3" fill="#7C6A5E" width="158.4" height="200.4"/>
	<path opacity="0.16" fill="#FFFFFF" d="M108.1,227.8c-13.1,0-23.8,10.7-23.8,23.8c0,13.1,10.7,23.8,23.8,23.8c13.1,0,23.8-10.7,23.8-23.8C131.9,238.4,121.3,227.8,108.1,227.8z M108.1,266.8c-3.3-8.7-15-8.7-15-18c0-9.6,11.7-9.7,14.9,0c3.2-9.7,14.9-9.6,15,0.1C123.1,258,111.3,258.1,108.1,266.8z"/>
</svg>
