<svg xmlns="http://www.w3.org/2000/svg" viewBox="0 0 212.3 367.2">
	<path opacity="0.34" fill="#F07635" d="M157.5,118.9l-27.5,27.5c-12,12-31.5,12-43.5,0l-27.5-27.5c-27.2-27.2-27.2-71.3,0-98.5s71.3-27.2,98.5,0S184.7,91.7,157.5,118.9z M75,36.3c-18.4,18.4-18.4,48.3,0,66.7l24.9,24.9c4.7,4.7,12.2,4.7,16.9,0l24.9-24.9c18.4-18.4,18.4-48.3,0-66.7S93.3,17.9,75,36.3z"/>
	<polygon fill="#6B5A51" points="197.5,189 14.9,189 0,133 212.3,133 	"/>
	<polygon opacity="5.000000e-002" fill="#221F1F" points="174.1,189 14.9,189 0,133 189,133 	"/>
	<path fill="#D8DBDC" d="M176.5,124.6c-4.1-29.8-44.4-42.9-44.8-43l2.5-7.8c1.9,0.6,45.7,14.8,50.4,49.7L176.5,124.6z"/>
	<ellipse transform="matrix(0.9823 0.1872 -0.1872 0.9823 16.7946 -22.4973)" fill="#29292A" cx="127.5" cy="77.7" rx="19.3" ry="14.6"/>
	<polygon fill="#7E6A5F" points="212.3,133 0,133 1.5,118.4 210.9,118.4 	"/>
	<rect x="0" y="358.2" fill="#7E6A5F" width="212.3" height="8.9"/>
	<polygon fill="#6B5A51" points="22.3,323.5 190,323.5 212.3,358.2 0,358.2 	"/>
	<polygon opacity="5.000000e-002" fill="#221F1F" points="22.3,323.5 169.2,323.5 191.6,358.2 0,358.2 	"/>
	<rect x="27.3" y="148.4" fill="#7C6A5E" width="157.8" height="199.6"/>
	<circle fill="#FFFFFF" opacity="0.16" cx="119.9" cy="249.2" r="19"/>
	<circle fill="#FFFFFF" opacity="0.5" cx="96.7" cy="249.2" r="19"/>
</svg>
