<svg xmlns="http://www.w3.org/2000/svg"
	 viewBox="0 0 512 512">
<g>
	<path style="fill:#BB9930;" d="M424.9,95.5l-131.3-1.7c0,0-0.1,0-0.2,0c-5.8-0.2-11.7,1.8-16.1,6.3L97.7,279.6
		c-8.5,8.5-8.5,22.2,0,30.6l125.6,125.6c2.6,2.6-7.8,5.1-4.4,6.1c7.4,2.2,25.6,3.4,47.7-18.8l166.9-166.9c3.6-3.6,5.5-8,6.1-12.7
		l0.1-0.1l0-0.8c0.1-1.2,0.1-2.3,0-3.5l0-129C439.6,102.1,433,95.5,424.9,95.5z M406.1,162.8c-9,9-23.6,9-32.6,0c-9-9-9-23.6,0-32.6
		s23.6-9,32.6,0C415.1,139.2,415.1,153.8,406.1,162.8z"/>
	<path style="fill:#ECBF25;" d="M408.3,95.5l-131.3-1.7c0,0-0.1,0-0.2,0c-5.8-0.2-11.7,1.8-16.1,6.3L81.1,279.6
		c-8.5,8.5-8.5,22.2,0,30.6l125.6,125.6c8.5,8.5,22.2,8.5,30.6,0l179.5-179.5c3.6-3.6,5.5-8,6.1-12.7l0.1-0.1l0-0.8
		c0.1-1.2,0.1-2.3,0-3.5l0-129C423,102.1,416.4,95.5,408.3,95.5z M389.4,162.8c-9,9-23.6,9-32.6,0c-9-9-9-23.6,0-32.6
		c9-9,23.6-9,32.6,0C398.4,139.2,398.4,153.8,389.4,162.8z"/>
	<path style="fill:#EDEDE7;" d="M383.3,128.2c0,0-10.9-6.2-2.5-14.3S389,89.2,388,82c-1-7.2-19.6-15.6-19.9-4.3s5.1,21-4.8,30.9
		c-9.8,9.8-6.3,23.3-2,27.3c4.3,4,14.9,9.5,21.1,3.5C388.7,133.4,384.9,129.3,383.3,128.2z"/>
	<circle style="fill:#EDEDE7;" cx="258.4" cy="318.5" r="11.8"/>
	<circle style="fill:#EDEDE7;" cx="285.3" cy="291.6" r="11.8"/>
	<circle style="fill:#EDEDE7;" cx="312.2" cy="264.7" r="11.8"/>
</g>
</svg>
