<svg xmlns="http://www.w3.org/2000/svg"
	 viewBox="0 0 512 512">
<g>
	<g id="puzzle-grey">
		<path style="fill:#DBDCDC;" d="M308.6,238.9c0.5,4.3,2.1,8,4.8,11.3c0,0,15.5,15.5-5.9,17.1l-42.3,3.2c-3.2,0-5.9,3.2-5.9,6.4
			l3.2,41.8c1.6,23-16.1,6.4-16.1,6.4c-3.2-2.7-7.5-3.8-11.8-3.2c-10.7,0.5-18.8,10.7-17.7,22.5s10.2,20.4,20.9,19.8
			c4.3-0.5,8-2.1,11.3-4.8c0,0,15.5-15.5,17.1,5.9l3.2,41.8c0,3.2,3.2,5.9,6.4,5.9l41.8-2.7c21.4-1.6,5.9-17.1,5.9-17.1
			c-2.7-3.2-4.8-7-4.8-11.3c-0.5-10.7,8-19.8,19.8-20.9c11.8-1.1,22,7,22.5,17.7c0.5,4.3-1.1,8.6-3.2,11.8c0,0-16.6,17.7,6.4,16.1
			l42.3-3.2c3.2,0,5.9-3.2,5.9-6.4l-3.2-41.8c-1.6-21.4-17.1-5.9-17.1-5.9c-3.2,2.7-7,4.8-11.3,4.8c-10.7,0.5-19.8-8-20.9-19.8
			c-1.1-11.8,7-22,17.7-22.5c4.3-0.5,8.6,1.1,11.8,3.2c0,0,17.7,16.6,16.1-6.4l-3.2-41.8c0-3.2-3.2-5.9-6.4-5.9l-42.3,3.2
			c-23,1.6-6.4-16.1-6.4-16.1c2.7-3.2,3.8-7.5,3.2-11.8c-0.5-10.7-10.7-18.8-22.5-17.7C316.7,219,307.5,228.1,308.6,238.9z"/>
		<g>
			<path style="opacity:0.2;fill:#5E5F5F;enable-background:new    ;" d="M308.1,266.7l4.8-0.5c21.4-1.6,5.9-17.1,5.9-17.1
				c-2.7-3.2-4.8-7-4.8-11.3c-0.5-9.6,6.4-18.2,16.6-20.4c-1.1,0-1.6,0-2.7,0c-11.8,1.1-20.4,10.2-19.8,20.9c0.5,4.3,2.1,8,4.8,11.3
				C313.4,250.1,328.4,265.1,308.1,266.7z"/>
			<path style="opacity:0.2;fill:#5E5F5F;enable-background:new    ;" d="M380.4,354.1c-2.7,0-4.8,0-7-1.1c1.6,1.1,3.8,1.1,6.4,1.1
				C379.9,354.1,380.4,354.1,380.4,354.1z"/>
			<path style="opacity:0.2;fill:#5E5F5F;enable-background:new    ;" d="M404,343.9c-4.8-2.1-12.3,4.8-12.3,4.8
				c-3.2,2.7-7,4.8-11.3,4.8c9.6-1.1,13.9-2.7,16.6-5.4C397.6,348.2,400.3,345.5,404,343.9z"/>
			<path style="opacity:0.2;fill:#5E5F5F;enable-background:new    ;" d="M394.9,314.4c-3.2-2.7-7.5-3.8-17.7-3.2l0,0
				c4.3-0.5,8.6,1.1,11.8,3.2c0,0,9.1,8.6,13.9,4.8C399.2,318.2,394.9,314.4,394.9,314.4z"/>
			<path style="opacity:0.2;fill:#5E5F5F;enable-background:new    ;" d="M369.2,406.1c-23,1.6-6.4-16.1-6.4-16.1
				c2.7-3.2,3.8-7.5,3.2-11.8c-0.5-10.7-6.4-18.8-28.4-17.1c11.8-1.1,22,7,22.5,17.7c0.5,4.3-1.1,8.6-3.2,11.8
				c0,0-16.6,17.7,6.4,16.1l42.3-3.2l0,0L369.2,406.1z"/>
			<path style="opacity:0.2;fill:#5E5F5F;enable-background:new    ;" d="M250.7,327.8c0,0,19.3,13.4,17.7-9.6l-3.2-41.8
				c0-3.2,2.1-6.4,5.4-6.4l-5.4,0.5c-3.2,0-5.9,3.2-5.9,6.4l3.2,41.8c1.6,21.4-13.4,8.6-15.5,6.4
				C248.1,326.2,249.1,327.3,250.7,327.8z"/>
			<path style="opacity:0.2;fill:#5E5F5F;enable-background:new    ;" d="M281.3,412c-3.2,0-6.4-2.1-6.4-5.9l-3.2-41.8
				c-1.6-21.4-22-7-22-7c-1.1,0.5-1.1,1.6-1.6,2.1c0.5-0.5,0.5-0.5,1.1-1.1c0,0,15.5-15.5,17.1,5.9l3.2,41.8c0,3.2,3.2,5.9,6.4,5.9
				l41.8-2.7h0.5L281.3,412z"/>
			<path style="opacity:0.2;fill:#5E5F5F;enable-background:new    ;" d="M222.9,343.9c-0.5-10.7,5.9-19.8,15-22c-1.1,0-2.1,0-3.2,0
				c-10.7,0.5-18.8,10.7-17.7,22.5s10.2,20.4,20.9,19.8c1.1,0,2.1,0,3.2-0.5C231.4,362.6,223.4,354.6,222.9,343.9z"/>
		</g>
	</g>
	<g id="puzzle-blue">
		<path style="fill:#557EAB;" d="M178.4,234.6c-1.1,4.3,0,8.6,2.1,12.3c0,0,11.3,18.8-10.2,15l-41.3-8c-3.2-0.5-6.4,1.6-7.5,4.8
			l-8,41.3c-4.3,22.5-17.1,2.1-17.1,2.1c-2.7-3.2-6.4-5.4-10.7-6.4c-10.7-2.1-20.9,5.9-23,17.1s4.3,22.5,15,24.7
			c4.3,1.1,8.6,0,12.3-2.1c0,0,18.8-11.3,15,10.2l-8,41.3c-0.5,3.2,1.6,6.4,4.8,7.5l40.7,8c20.9,4.3,10.2-15,10.2-15
			c-2.1-3.8-2.7-8-2.1-12.3c2.1-10.7,12.9-17.1,24.7-15c11.3,2.1,19.3,12.3,17.1,23c-1.1,4.3-3.2,8-6.4,10.7c0,0-20.4,12.9,2.1,17.1
			l41.8,8c3.2,0.5,6.4-1.6,7.5-4.8l8-41.3c4.3-20.9-15-10.2-15-10.2c-3.8,2.1-8,2.7-12.3,2.1c-10.7-2.1-17.1-12.9-15-24.7
			c2.1-11.3,12.3-19.3,23-17.1c4.3,1.1,8,3.2,10.7,6.4c0,0,12.9,20.4,17.1-2.1l8-41.3c0.5-3.2-1.6-6.4-4.8-7.5l-41.3-8
			c-22.5-4.3-2.1-17.1-2.1-17.1c3.2-2.7,5.4-6.4,6.4-10.7c2.1-10.7-5.9-20.9-17.1-23C191.3,217.4,180.5,224.4,178.4,234.6z"/>
		<g>
			<path style="opacity:0.2;fill:#5E5F5F;enable-background:new    ;" d="M171.4,261.9l7,1.1c20.9,4.3,10.2-15,10.2-15
				c-2.1-3.8-2.7-8-2.1-12.3c1.6-9.1,10.2-15.5,20.4-15.5c-1.1-0.5-2.1-0.5-3.8-1.1c-11.3-2.1-22.5,4.3-24.7,15
				c-1.1,4.3,0,8.6,2.1,12.3C180.5,246.9,191.3,265.1,171.4,261.9z"/>
			<path style="opacity:0.2;fill:#5E5F5F;enable-background:new    ;" d="M238.4,363.7c0,0,2.7-1.6,5.9-2.7
				c-3.8-4.8-13.9,1.1-13.9,1.1c-2.7,1.6-5.4,2.1-8,2.1c1.1,0.5,2.7,1.1,3.8,1.1C230.9,366.4,234.7,365.9,238.4,363.7z"/>
			<path style="opacity:0.2;fill:#5E5F5F;enable-background:new    ;" d="M244.8,330.5c-2.7-3.2-6.4-5.4-10.7-6.4
				c-1.6,0-2.7-0.5-4.3-0.5c2.7,1.1,4.8,2.7,7,5.4c0,0,7.5,11.8,12.9,7.5C247,333.7,244.8,330.5,244.8,330.5z"/>
			<path style="opacity:0.2;fill:#5E5F5F;enable-background:new    ;" d="M70.7,314.4c2.1-10.2,9.6-17.1,18.8-17.7
				c-1.1-0.5-2.1-1.1-3.8-1.1c-10.7-2.1-20.9,5.9-23,17.1c-2.1,11.3,4.3,22.5,15,24.7c1.1,0,2.7,0.5,3.8,0
				C73.9,334.2,69.1,324.6,70.7,314.4z"/>
			<path style="opacity:0.2;fill:#5E5F5F;enable-background:new    ;" d="M196.1,412c-22.5-4.3-2.1-17.1-2.1-17.1
				c3.2-2.7,5.4-6.4,6.4-10.7c2.1-10.7-5.9-20.9-17.1-23c-1.6-0.5-2.7-0.5-4.3-0.5c9.6,3.2,15.5,12.3,13.9,22
				c-1.1,4.3-3.2,8-6.4,10.7c0,0-20.4,12.9,2.1,17.1l41.8,8l0,0L196.1,412z"/>
			<path style="opacity:0.2;fill:#5E5F5F;enable-background:new    ;" d="M109.8,395.3c-3.2-0.5-5.4-3.8-4.8-7.5l8-41.3
				c2.7-12.9-3.8-13.9-9.1-12.3c1.6,1.6,2.1,5.4,1.1,11.3l-8,41.3c-0.5,3.2,1.6,6.4,4.8,7.5l40.7,8c0.5,0,0.5,0,1.1,0L109.8,395.3z"
				/>
			<path style="opacity:0.2;fill:#5E5F5F;enable-background:new    ;" d="M121.6,301.6l8-41.3c0.5-3.2,3.8-5.4,7-4.8l-7.5-1.6
				c-3.2-0.5-6.4,1.6-7.5,4.8l-8,41.3c-1.1,5.4-2.7,8-4.3,9.6C113.5,313.3,118.9,314.4,121.6,301.6z"/>
		</g>
	</g>
	<g id="puzzle-green">
		<path style="fill:#75B38E;" d="M320.4,84.5c-0.5,4.3,1.1,8.6,3.2,11.8c0,0,12.9,17.7-8.6,15.5l-41.8-3.8c-3.2-0.5-6.4,2.1-7,5.9
			l-3.8,41.8c-2.1,23-16.6,3.8-16.6,3.8c-3.2-2.7-7-4.8-11.3-5.4c-10.7-1.1-19.8,7.5-20.9,19.3s7,22,17.1,23
			c4.3,0.5,8.6-1.1,11.8-3.2c0,0,17.7-12.9,15.5,8.6l-3.8,41.8c-0.5,3.2,2.1,6.4,5.9,7l41.8,3.8c21.4,2.1,8.6-15.5,8.6-15.5
			c-2.1-3.2-3.8-7.5-3.2-11.8c1.1-10.7,11.3-18.2,23-17.1c11.8,1.1,20.4,10.7,19.3,20.9c-0.5,4.3-2.1,8-5.4,11.3
			c0,0-19.3,15,3.8,16.6l42.3,3.8c3.2,0.5,6.4-2.1,7-5.9l3.8-41.8c2.1-21.4-15.5-8.6-15.5-8.6c-3.2,2.1-7.5,3.8-11.8,3.2
			c-10.7-1.1-18.2-11.3-17.1-23c1.1-11.8,10.7-20.4,20.9-19.3c4.3,0.5,8,2.1,11.3,5.4c0,0,15,19.3,16.6-3.8l3.8-41.8
			c0.5-3.2-2.1-6.4-5.9-7l-41.8-3.8c-23-2.1-3.8-16.6-3.8-16.6c2.7-3.2,4.8-7,5.4-11.3c1.1-10.7-7.5-19.8-19.3-20.9
			C331.7,66.3,320.9,73.8,320.4,84.5z"/>
		<g>
			<path style="opacity:0.2;fill:#5E5F5F;enable-background:new    ;" d="M316.1,111.8l7,0.5c21.4,2.1,8.6-15.5,8.6-15.5
				c-2.1-3.2-3.8-7.5-3.2-11.8c1.1-9.1,8.6-16.6,18.8-17.1c-1.1-0.5-2.1-0.5-3.8-0.5c-11.8-1.1-22,7-23,17.1
				c-0.5,4.3,1.1,8.6,3.2,11.8C323.6,96.3,335.9,113.5,316.1,111.8z"/>
			<path style="opacity:0.2;fill:#5E5F5F;enable-background:new    ;" d="M392.8,206.7c0,0,2.7-2.1,5.9-3.2
				c-4.3-4.3-13.4,2.1-13.4,2.1c-2.1,1.6-4.8,2.7-8,3.2c1.1,0.5,2.7,0.5,3.8,0.5C385.3,210.5,389.5,209.4,392.8,206.7z"/>
			<path style="opacity:0.2;fill:#5E5F5F;enable-background:new    ;" d="M396,172.9c-3.2-2.7-7-4.8-11.3-5.4c-1.6,0-2.7,0-4.3,0
				c2.7,1.1,5.4,2.1,7.5,4.3c0,0,8.6,11.3,13.4,6.4C398.6,176.2,396,172.9,396,172.9z"/>
			<path style="opacity:0.2;fill:#5E5F5F;enable-background:new    ;" d="M221.3,174.5c1.1-10.2,8-18.2,17.1-19.3
				c-1.1-0.5-2.7-0.5-3.8-0.5c-10.7-1.1-19.8,7.5-20.9,19.3c-1.1,11.8,7,22,17.1,23c1.6,0,2.7,0,3.8,0
				C226.1,193.8,220.2,184.7,221.3,174.5z"/>
			<path style="opacity:0.2;fill:#5E5F5F;enable-background:new    ;" d="M355.8,259.2c-23-2.1-3.8-16.6-3.8-16.6
				c2.7-3.2,4.8-7,5.4-11.3c1.1-10.7-10.2-25.2-33.8-21.4c18.2-2.7,26.8,11.3,26.3,20.9c-0.5,4.3-2.1,8-5.4,11.3
				c0,0-19.3,15,3.8,16.6l42.3,3.8l0,0L355.8,259.2z"/>
			<path style="opacity:0.2;fill:#5E5F5F;enable-background:new    ;" d="M267.9,251.2c-3.2-0.5-5.9-3.2-5.9-7l3.8-41.8
				c1.1-13.4-4.8-13.4-10.2-11.8c1.6,1.6,2.7,4.8,2.1,10.7l-3.8,41.8c-0.5,3.2,2.1,6.4,5.9,7l41.8,3.8c0.5,0,0.5,0,1.1,0
				L267.9,251.2z"/>
			<path style="opacity:0.2;fill:#5E5F5F;enable-background:new    ;" d="M270,156.3l3.8-41.8c0.5-3.2,3.2-5.9,6.4-5.9l-7.5-0.5
				c-3.2-0.5-6.4,2.1-7,5.9l-3.2,41.8c-0.5,5.4-1.6,8.6-3.2,10.2C263.6,169.2,269,169.7,270,156.3z"/>
		</g>
	</g>
	<g id="puzzle-grey-m1">
		<path style="fill:none;" d="M254,330C254,330,253.4,330,254,330C253.4,330,254,330,254,330z"/>
		<path style="fill:none;" d="M248.1,326.2L248.1,326.2L248.1,326.2z"/>
		<path style="fill:none;" d="M255,330.5L255,330.5L255,330.5L255,330.5z"/>
		<path style="fill:none;" d="M250.7,328.4L250.7,328.4L250.7,328.4z"/>
		<path style="fill:none;" d="M252.3,329.4C252.3,328.9,252.3,328.9,252.3,329.4C252.3,328.9,252.3,328.9,252.3,329.4z"/>
		<path style="fill:none;" d="M230.9,322.5c1.1-0.5,2.7-0.5,3.8-0.5l0,0l0,0c1.1,0,2.1,0,3.2,0l0,0c3.2,0.5,6.4,1.6,9.1,3.2
			c0,0,0,0,0.5,0.5c0,0,0.5,0,0.5,0.5l0,0c1.1,1.1,4.3,3.2,7.5,4.3h0.5c0.5-1.6,1.1-3.2,0.5-4.8c-0.5-7-7-12.3-14.5-11.3
			c-5.9,0.5-10.2,4.3-12.3,9.1C229.8,322.5,230.4,322.5,230.9,322.5z"/>
		<path style="fill:#D7D6D6;" d="M255,330.5c-0.5,0-0.5,0-1.1-0.5h-0.5c-0.5,0-0.5-0.5-1.1-0.5c0,0,0,0-0.5,0
			c-0.5,0-1.1-0.5-1.1-0.5l0,0c-1.1-0.5-1.6-1.1-2.1-1.6l0,0l-0.5-0.5c-0.5-0.5-0.5-0.5-0.5-0.5l0,0l-0.5-0.5
			c-2.7-1.6-5.9-3.2-9.1-3.2c-3.2,0.5-6.4,2.7-8.6,4.8c0,0.5,0,0.5,0,1.1c0.5,7,7,12.3,14.5,11.3C249.1,338.5,253.4,335.3,255,330.5
			C255.6,330.5,255,330.5,255,330.5L255,330.5z"/>
		<path style="fill:#D7D6D6;" d="M247.5,325.7L247.5,325.7L247.5,325.7L247.5,325.7z"/>
		<path style="fill:#D7D6D6;" d="M234.7,321.4c-1.1,0-2.7,0.5-3.8,0.5C232,321.9,233.6,321.9,234.7,321.4L234.7,321.4z"/>
		<path style="opacity:0.2;fill:#5E5F5F;enable-background:new    ;" d="M255,330.5C255,330.5,255.6,330.5,255,330.5
			C255.6,330.5,255.6,330.5,255,330.5C255.6,330.5,255,330.5,255,330.5L255,330.5z"/>
		<path style="opacity:0.2;fill:#5E5F5F;enable-background:new    ;" d="M247,325.1C247,325.7,247,325.7,247,325.1
			C247,325.7,247,325.7,247,325.1z"/>
		<path style="opacity:0.2;fill:#5E5F5F;enable-background:new    ;" d="M248.1,326.2c0.5,0.5,1.6,1.1,2.1,1.6l0,0
			c0.5,0,1.1,0.5,1.1,0.5s0,0,0.5,0c0.5,0,0.5,0.5,1.1,0.5h0.5c0.5,0,0.5,0.5,1.1,0.5l0,0c-3.2-1.6-5.9-3.2-7.5-4.3
			C247.5,326.2,248.1,326.2,248.1,326.2L248.1,326.2z"/>
		<path style="fill:#D7D6D6;" d="M255,330.5c-0.5,0-0.5,0-1.1-0.5C254.5,330,254.5,330.5,255,330.5z"/>
		<path style="opacity:0.2;fill:#5E5F5F;enable-background:new    ;" d="M255,330.5c-0.5,0-0.5,0-1.1-0.5
			C254.5,330,254.5,330.5,255,330.5z"/>
		<path style="fill:#D7D6D6;" d="M255.6,330.5L255.6,330.5C255.6,330.5,255,330.5,255.6,330.5C255,330.5,255.6,330.5,255.6,330.5z"
			/>
		<path style="opacity:0.2;fill:#5E5F5F;enable-background:new    ;" d="M255.6,330.5L255.6,330.5
			C255.6,330.5,255,330.5,255.6,330.5C255,330.5,255.6,330.5,255.6,330.5z"/>
		<path style="fill:#D7D6D6;" d="M253.4,330c-0.5,0-0.5-0.5-1.1-0.5C252.9,329.4,252.9,329.4,253.4,330z"/>
		<path style="opacity:0.2;fill:#5E5F5F;enable-background:new    ;" d="M253.4,330c-0.5,0-0.5-0.5-1.1-0.5
			C252.9,329.4,252.9,329.4,253.4,330z"/>
		<path style="fill:#D7D6D6;" d="M248.1,326.2C248.1,326.2,247.5,326.2,248.1,326.2C247.5,325.7,247.5,325.7,248.1,326.2
			C247.5,326.2,248.1,326.2,248.1,326.2z"/>
		<path style="opacity:0.2;fill:#5E5F5F;enable-background:new    ;" d="M248.1,326.2C248.1,326.2,247.5,326.2,248.1,326.2
			C247.5,325.7,247.5,325.7,248.1,326.2C247.5,326.2,248.1,326.2,248.1,326.2z"/>
		<path style="fill:#D7D6D6;" d="M247.5,325.7L247.5,325.7c-0.5-0.5-0.5-0.5-0.5-0.5l0,0C247,325.1,247,325.7,247.5,325.7z"/>
		<path style="opacity:0.2;fill:#5E5F5F;enable-background:new    ;" d="M247.5,325.7L247.5,325.7c-0.5-0.5-0.5-0.5-0.5-0.5l0,0
			C247,325.1,247,325.7,247.5,325.7z"/>
		<path style="fill:#D7D6D6;" d="M250.7,328.4c-1.1-0.5-1.6-1.1-2.1-1.6C249.1,326.7,249.7,327.3,250.7,328.4z"/>
		<path style="opacity:0.2;fill:#5E5F5F;enable-background:new    ;" d="M250.7,328.4c-1.1-0.5-1.6-1.1-2.1-1.6
			C249.1,326.7,249.7,327.3,250.7,328.4z"/>
		<path style="fill:#D7D6D6;" d="M251.8,328.9c-0.5,0-1.1-0.5-1.1-0.5C251.3,328.4,251.8,328.9,251.8,328.9z"/>
		<path style="opacity:0.2;fill:#5E5F5F;enable-background:new    ;" d="M251.8,328.9c-0.5,0-1.1-0.5-1.1-0.5
			C251.3,328.4,251.8,328.9,251.8,328.9z"/>
		<path style="opacity:0.2;fill:#5E5F5F;enable-background:new    ;" d="M237.9,321.4c-1.1,0-2.1,0-3.2,0l0,0
			C235.7,321.4,236.8,321.4,237.9,321.4L237.9,321.4z"/>
		<path style="fill:#D7D6D6;" d="M234.7,321.4c-1.1,0-2.7,0.5-3.8,0.5c-0.5,0-1.1,0.5-1.6,0.5c-0.5,1.1-0.5,2.1-0.5,3.8
			c2.7-2.1,5.4-4.3,8.6-4.8C236.8,321.4,235.7,321.4,234.7,321.4z"/>
		<path style="opacity:0.2;fill:#5E5F5F;enable-background:new    ;" d="M234.7,321.4c-1.1,0-2.7,0.5-3.8,0.5
			c-0.5,0-1.1,0.5-1.6,0.5c-0.5,1.1-0.5,2.1-0.5,3.8c2.7-2.1,5.4-4.3,8.6-4.8C236.8,321.4,235.7,321.4,234.7,321.4z"/>
	</g>
	
		<ellipse transform="matrix(2.640079e-002 -0.9997 0.9997 2.640079e-002 -82.1259 780.3435)" style="opacity:0.5;fill:#DBDCDC;enable-background:new    ;" cx="359.5" cy="432.3" rx="6.4" ry="92.2"/>
	
		<ellipse transform="matrix(-3.069197e-002 -0.9995 0.9995 -3.069197e-002 -263.0024 619.2085)" style="opacity:0.5;fill:#DBDCDC;enable-background:new    ;" cx="168.7" cy="437.1" rx="5.9" ry="79.3"/>
	<g id="puzzle-grey-m2">
		<path style="fill:#D7D6D6;" d="M347.2,248c2.7-3.2,3.8-7.5,3.2-11.8c-0.5-5.4-3.2-9.6-7-12.9c-10.7,1.1-19.8,10.2-19.8,22
			c0,12.3,9.6,22,21.4,22c4.3,0,8-1.1,11.3-3.2l-2.7,0C330.6,265.7,347.2,248,347.2,248z"/>
	</g>
</g>
</svg>
