<svg xmlns="http://www.w3.org/2000/svg"
	 viewBox="0 0 512 512">
<g>
	<circle style="fill:#8DC63F;" cx="256" cy="256" r="187.5"/>
	<g>
		<circle style="fill:#FFFFFF;" cx="253" cy="373.5" r="20.4"/>
		<path style="fill:#FFFFFF;" d="M341.1,222.7c0-49.2-39.9-89.1-89.1-89.1c-39.7,0-73.3,25.9-84.8,61.8H207
			c9.2-15.2,25.9-25.4,45-25.4c29.1,0,52.7,23.6,52.7,52.7s-23.6,52.7-52.7,52.7c-6.9,0-13.4-1.4-19.4-3.7v30.1v7.9v25.8h34.9v-25
			C309.3,303.1,341.1,266.6,341.1,222.7z"/>
	</g>
	<path style="opacity:0.05;fill:#231F20;enable-background:new    ;" d="M68.5,256c0,103.5,83.9,187.5,187.5,187.5V68.5
		C152.5,68.5,68.5,152.5,68.5,256z"/>
</g>
</svg>
