<svg xmlns="http://www.w3.org/2000/svg" viewBox="0 0 241 346.2">
	<path fill="#917A65" d="M241,340.4c0,3.2-2.6,5.9-5.9,5.9H5.9c-3.2,0-5.9-2.6-5.9-5.9V60.6c0-3.2,2.6-5.9,5.9-5.9h229.2c3.2,0,5.9,2.6,5.9,5.9V340.4z"/>
		<rect x="19.5" y="326.7" fill="#6E5C50" width="199.4" height="2.9"/>
		<rect x="19.5" y="71.3" fill="#FFFFFF" width="199.4" height="255.4"/>
		<rect x="61.5" y="131.3" fill="#5E5E5E" width="24.2" height="24.2"/>
		<rect x="61.5" y="166.4" fill="#5E5E5E" width="24.2" height="24.2"/>
		<rect x="61.5" y="201.5" fill="#5E5E5E" width="24.2" height="24.2"/>
		<rect x="61.5" y="236.6" fill="#5E5E5E" width="24.2" height="24.2"/>
		<rect x="96.6" y="136.9" fill="#5E5E5E" width="68.5" height="12.3"/>
		<rect x="96.6" y="172.4" fill="#5E5E5E" width="91.7" height="12.3"/>
		<rect x="96.6" y="207.8" fill="#5E5E5E" width="49.5" height="12.3"/>
		<rect x="96.6" y="243.3" fill="#5E5E5E" width="73" height="12.3"/>
		<path fill="#E3C487" d="M202.4,65.1h-21.1c-8.8-15.8-23.6-27.8-41.4-32.8c1.6-3.1,2.5-6.5,2.5-10.2c0-12.2-9.9-22-22-22s-22,9.9-22,22c0,3.8,1,7.4,2.7,10.5c-17.3,5.2-31.7,17-40.3,32.5H39.6c-3.2,0-5.9,2.6-5.9,5.9v6.1c0,3.2,2.6,5.9,5.9,5.9h162.8c3.2,0,5.9-2.6,5.9-5.9V71C208.3,67.7,205.6,65.1,202.4,65.1z M130.2,22c0,5.4-4.4,9.9-9.9,9.9c-5.4,0-9.9-4.4-9.9-9.9s4.4-9.9,9.9-9.9C125.7,12.1,130.2,16.5,130.2,22z"/>
		<path fill="#6E5C50" d="M120.5,42.5c-8.2,0-15.4-4.2-19.6-10.6c3.6,7.2,11.1,12.1,19.6,12.1c8.6,0,16-4.9,19.6-12.1C135.9,38.3,128.7,42.5,120.5,42.5z"/>
		<path fill="#6E5C50" d="M35.5,81.3c1.1,1,2.5,1.7,4.1,1.7h162.8c1.6,0,3-0.6,4.1-1.7H35.5z"/>
	<polygon opacity="5.000000e-002" fill="#221F1F" points="183.1,56.3 54,346.2 241,346.2 241,54.7 	"/>
</svg>
