<svg xmlns="http://www.w3.org/2000/svg"
	 viewBox="0 0 512 512">
<g>
	<path style="fill:#35B98E;" d="M350.8,95.1l-9.4-9.4c-15.9,13.7-39.8,13-54.9-2.1c-0.7-0.7-1.4-1.5-2.1-2.2L185,180.8l-4,4
		l-99.5,99.5c0.8,0.7,1.5,1.3,2.2,2.1c15.1,15.1,15.7,39,2.1,54.9l9.4,9.4c4.3-3.9,11-3.8,15.1,0.4c4.2,4.2,4.3,10.8,0.4,15.1
		l10.1,10.1c4.3-3.9,11-3.8,15.1,0.4c4.2,4.2,4.3,10.8,0.4,15.1l10.1,10.1c4.3-3.9,11-3.8,15.1,0.4c4.2,4.2,4.3,10.8,0.4,15.1
		l8.4,8.4c15.9-13.7,39.8-13,54.9,2.1c1.1,1.1,2,2.1,2.9,3.3l99.5-99.5l4-4l99.5-99.5c-1.1-0.9-2.2-1.9-3.3-2.9
		c-15.1-15.1-15.7-39-2.1-54.9l-8.4-8.4c-4.3,3.9-11,3.8-15.1-0.4c-4.2-4.2-4.3-10.8-0.4-15.1L392,136.2c-4.3,3.9-11,3.8-15.1-0.4
		c-4.2-4.2-4.3-10.8-0.4-15.1l-10.1-10.1c-4.3,3.9-11,3.8-15.1-0.4C347,106,346.9,99.4,350.8,95.1z"/>
	<g style="opacity:0.2;">
		<path style="fill:#FFFFFF;" d="M104.6,292.8L219.9,408l188.3-188.3L293,104.4L104.6,292.8z M268.9,135.3l108.5,108.5l-133,133
			L135.9,268.3L268.9,135.3z M111.4,292.8l21.1-21.1L241,380.2l-21.1,21.1L111.4,292.8z M401.4,219.7l-20.7,20.7L272.3,131.9
			l20.7-20.7L401.4,219.7z"/>
		
			<rect x="110.6" y="333.1" transform="matrix(-0.7071 -0.7071 0.7071 -0.7071 62.426 699.1608)" style="fill:#FFFFFF;" width="130.8" height="7.2"/>
		
			<rect x="271.5" y="172.1" transform="matrix(0.7071 0.7071 -0.7071 0.7071 222.9529 -186.7625)" style="fill:#FFFFFF;" width="130.8" height="7.2"/>
	</g>
	<g>
		<path style="fill:#D8D9DC;" d="M314,255.3l-51,51c-0.7,0.7-2.2,1.6-3.1,1.4c-0.9-0.1-1.8-0.7-2.2-1.5l-10.4-18
			c-0.8-1.4-0.3-3.3,1.1-4.1c1.4-0.8,3.3-0.3,4.1,1.1l8.4,14.6l48.8-48.8c1.2-1.2,3.1-1.2,4.3,0S315.1,254.1,314,255.3z"/>
		<path style="fill:#D8D9DC;" d="M211.9,265.9c-1,1-2.6,1.2-3.8,0.3c-6.2-4.3-9-0.6-9.1-0.6c-1.1,1.5-4.2,4.3-5.1,5.1
			c-1.2,1.1-3.2,1-4.3-0.2c-1.1-1.2-1-3.2,0.2-4.3c1.6-1.5,3.7-3.5,4.2-4.1c1-1.5,3.2-3.2,6.3-3.8c2.5-0.5,6.4-0.3,11.1,2.9
			c1.4,0.9,1.7,2.8,0.8,4.2C212.1,265.6,212,265.8,211.9,265.9z"/>
		<path style="opacity:0.1;fill:#5D5E5E;" d="M291.4,269.2l-30.6,30.6l-8.4-14.6c-0.2-0.3-0.4-0.6-0.7-0.8l-4.1,4l10.2,18.1
			c0.5,0.6,1.2,1.1,2,1.2c0.9,0.1,2.5-0.8,3.1-1.4l26.6-26.6L291.4,269.2z"/>
		<polygon style="fill:#A5D9CB;" points="300.1,239.2 256,297.1 205.3,264.8 270,200 		"/>
		<g>
			<circle style="fill:#D8D9DC;" cx="273.6" cy="304.8" r="5.6"/>
			<path style="opacity:0.1;fill:#5D5E5E;" d="M268,303.9c-0.5,3.1,1.6,6,4.7,6.5l0,0l1.8-11.1C271.4,298.7,268.5,300.8,268,303.9z"
				/>
		</g>
		<g>
			<circle style="fill:#D8D9DC;" cx="312.6" cy="265.8" r="5.6"/>
			<path style="opacity:0.1;fill:#5D5E5E;" d="M307,264.9c-0.5,3.1,1.6,6,4.7,6.5l0,0l1.8-11.1C310.4,259.7,307.5,261.8,307,264.9z"
				/>
		</g>
		<polygon style="fill:#B3D337;" points="247.9,238.2 259,242 268.4,234.9 268.3,246.7 277.9,253.5 266.7,257 263.2,268.2 
			256.4,258.6 244.6,258.7 251.7,249.3 		"/>
		<polygon style="opacity:0.05;fill:#FFFFFF;" points="300.1,239.2 256,297.1 270,200 		"/>
	</g>
</g>
</svg>
