<svg xmlns="http://www.w3.org/2000/svg"
	 viewBox="0 0 512 512">
<g>
	<g>
		<path style="fill:#67BEB4;" d="M347.4,301.7L209.7,164c9.2-23.2,4.4-50.7-14.4-69.5c-15-15-35.6-21.1-55.2-18.2l39.1,39.1
			l-13.4,41.2l-41.2,13.4l-39.1-39.1c-2.9,19.5,3.2,40.1,18.2,55.2c18.8,18.8,46.3,23.6,69.5,14.4l137.7,137.7
			c-9.2,23.2-4.4,50.7,14.4,69.5c15,15,35.6,21.1,55.2,18.2L340,385.2l13.4-41.2l41.2-13.4l40.7,40.7c2.9-19.5-3.2-40.1-18.2-55.2
			C398.1,297.3,370.7,292.5,347.4,301.7z"/>
		<path style="opacity:0.1;fill:#5D5E5E;" d="M330.5,318.4l-2.8,2.8c-3.4,3.4-8.9,3.4-12.3,0L190.3,196c-3.4-3.4-3.4-8.9,0-12.3
			l2.8-2.8c3.4-3.4,8.9-3.4,12.3,0l125.1,125.1C333.8,309.5,333.8,315,330.5,318.4z"/>
		<path style="opacity:0.25;fill:#232323;" d="M124.6,169.8l-39.1-39.1c-2.9,19.5,3.2,40.1,18.2,55.2c18.8,18.8,46.3,23.6,69.5,14.4
			l137.7,137.7c-9.2,23.2-4.4,50.7,14.4,69.5c15,15,35.6,21.1,55.2,18.2L340,385.2l13.4-41.2L165.8,156.5L124.6,169.8z"/>
	</g>
	<g>
		<path style="fill:#DA887F;" d="M410.9,155.4L356.5,101l11-11c11.3-11.3,27.7-9.3,39,2.1l13.3,13.3c11.3,11.3,13.4,27.7,2.1,39
			L410.9,155.4z"/>
		<polygon style="fill:#DFC397;" points="73.9,437.9 107.1,350.3 161.5,404.7 		"/>
		
			<rect x="238" y="82.6" transform="matrix(0.7071 0.7071 -0.7071 0.7071 255.5549 -106.4562)" style="fill:#A1732A;" width="36.6" height="345.4"/>
		
			<rect x="266.2" y="102.7" transform="matrix(-0.7071 -0.7071 0.7071 -0.7071 277.1443 665.5773)" style="fill:#835823;" width="20.3" height="345.4"/>
		
			<rect x="226.3" y="62.6" transform="matrix(0.7071 0.7071 -0.7071 0.7071 235.5625 -98.1751)" style="fill:#CC9B4D;" width="19.9" height="345.4"/>
		<path style="fill:#232323;" d="M73.9,437.9c0,0,13.5-35.5,15.8-41.7c19.2,8.8,25.9,25.9,25.9,25.9L73.9,437.9z"/>
		
			<rect x="342.9" y="126.4" transform="matrix(0.7071 0.7071 -0.7071 0.7071 203.9368 -231.4801)" style="fill:#232323;" width="76.9" height="8.1"/>
	</g>
</g>
</svg>
