<?xml version="1.0" encoding="utf-8"?>
<!-- Generator: Adobe Illustrator 17.1.0, SVG Export Plug-In . SVG Version: 6.00 Build 0)  -->
<!DOCTYPE svg PUBLIC "-//W3C//DTD SVG 1.1//EN" "http://www.w3.org/Graphics/SVG/1.1/DTD/svg11.dtd">
<svg version="1.1" id="Layer_1" xmlns="http://www.w3.org/2000/svg" xmlns:xlink="http://www.w3.org/1999/xlink" x="0px" y="0px"
	 viewBox="0 0 160 160" enable-background="new 0 0 160 160" xml:space="preserve">
<path fill="#547DA9" d="M113.1,99.7l-18.6,18.6c-8,8-21.3,8-29.3,0L46.9,99.7c-18.2-18.2-18.2-48,0-66.2s48-18.2,66.2,0
	S131.4,81.4,113.1,99.7z M57.6,44.2c-12.3,12.3-12.3,32.5,0,44.8l16.8,16.8c3.2,3.2,8.2,3.2,11.4,0L102.4,89
	c12.3-12.3,12.3-32.5,0-44.8S69.9,31.8,57.6,44.2z"/>
<path fill="#5E5E5E" d="M68.5,80.3c1.4-3.7,4.4-6.5,8.2-7.7c-2.5-1.3-4.1-3.9-4.1-6.9c0-4.3,3.5-7.8,7.8-7.8c4.3,0,7.8,3.5,7.8,7.8
	c0,3-1.7,5.6-4.1,6.9c3.8,1.2,6.8,4,8.2,7.7c3.5-3.2,5.6-7.8,5.6-12.8C97.8,57.8,90,50,80.4,50s-17.5,7.8-17.5,17.5
	C62.9,72.5,65.1,77.1,68.5,80.3z"/>
</svg>
