<svg xmlns="http://www.w3.org/2000/svg"
	 viewBox="0 0 512 512">
<g>
	<path style="fill:#EB6F61;" d="M97.6,439.4c0,0,54.3-49.6,88.4-128.2c27.6,9.8,69.4,33.3,69.4,33.3s-51.6,96.5-72.6,141.1
		c-7.3-30-21.5-69.8-21.5-69.8S154.3,428,97.6,439.4z"/>
	<path style="fill:#EB6F61;" d="M426.8,435c0,0-54.3-49.6-88.4-128.2c-27.6,9.8-69.4,33.3-69.4,33.3s51.6,96.5,72.6,141.1
		c7.3-30,21.5-69.8,21.5-69.8S370,423.7,426.8,435z"/>
	<path style="opacity:0.25;fill:#231F20;" d="M186,311.2c-3,7-6.3,13.7-9.6,20.2c8.6-2.5,18.3,4.5,16.5,14.7l-0.2,1.2
		c-2.5,14.6,17.4,21.5,24.5,8.4l0.6-1.1c5.9-11,22.5-8.3,24.5,4.1l0.2,1.2c0.3,2,1.1,3.7,2,5.2c6.6-12.5,10.9-20.5,10.9-20.5
		S213.5,321,186,311.2z"/>
	<path style="opacity:0.25;fill:#231F20;" d="M353.2,338c-4.5-8.5-8.9-17.5-12.9-26.8c-27.6,9.8-72.4,26.9-72.4,26.9s4.1,8.5,6,12.1
		c5.9-4.1,15-3.2,19.1,4.4l0.6,1.1c7,13.1,27,6.2,24.5-8.4l-0.2-1.2c-2.1-12.3,12.6-20.3,21.8-11.8l0.9,0.8
		C344.5,338.8,349.2,339.4,353.2,338z"/>
	<path style="fill:#EB6F61;" d="M267.8,42.1l0.4-1.1c4.8-14.1,25.6-10.6,25.5,4.3l0,1.2c-0.1,12.5,15.8,18,23.5,8.1l0.7-1
		c9.1-11.8,27.6-1.7,22.7,12.3l-0.4,1.1c-4.1,11.8,9.1,22.1,19.6,15.2l1-0.7c12.4-8.2,26.7,7.3,17.5,19l-0.7,0.9
		c-7.7,9.9,1.4,23.9,13.6,20.8l1.2-0.3c14.4-3.7,22.9,15.6,10.4,23.7l-1,0.7c-10.5,6.8-6.4,23.1,6.1,24.1l1.2,0.1
		c14.8,1.2,16.6,22.2,2.1,25.8l-1.2,0.3c-12.2,3-13.5,19.7-2,24.7l1.1,0.5c13.6,5.9,8.5,26.4-6.3,25.1l-1.2-0.1
		c-12.5-1.1-19.2,14.3-10,22.7l0.9,0.8c11,10-0.6,27.7-14.1,21.6l-1.1-0.5c-11.5-5.1-22.8,7.3-16.8,18.3l0.6,1.1
		c7.1,13-9.5,26-20.4,15.9l-0.9-0.8c-9.2-8.5-23.9-0.5-21.8,11.8l0.2,1.2c2.5,14.6-17.4,21.5-24.5,8.4l-0.6-1.1
		c-5.9-11-22.5-8.3-24.5,4.1l-0.2,1.2c-2.4,14.7-23.5,14.7-25.9,0l-0.2-1.2c-2-12.4-18.6-15.1-24.5-4.1l-0.6,1.1
		c-7,13.1-27,6.2-24.5-8.4l0.2-1.2c2.1-12.3-12.6-20.3-21.8-11.8l-0.9,0.8c-10.9,10.1-27.5-2.8-20.4-15.9l0.6-1.1
		c6-11-5.4-23.3-16.8-18.3l-1.1,0.5c-13.6,6-25.1-11.6-14.1-21.6l0.9-0.8c9.3-8.4,2.5-23.8-10-22.7l-1.2,0.1
		c-14.8,1.3-20-19.2-6.3-25.1l1.1-0.5c11.5-5,10.1-21.7-2-24.7l-1.2-0.3c-14.4-3.6-12.7-24.6,2.1-25.8l1.2-0.1
		c12.5-1,16.6-17.3,6.1-24.1l-1-0.7c-12.5-8.1-4-27.4,10.4-23.7l1.2,0.3c12.1,3.1,21.3-10.9,13.6-20.8l-0.7-0.9
		c-9.2-11.7,5.1-27.2,17.5-19l1,0.7c10.5,6.9,23.7-3.4,19.6-15.2l-0.4-1.1c-4.9-14,13.7-24.1,22.7-12.3l0.7,1
		c7.7,9.9,23.5,4.5,23.5-8.1l0-1.2c-0.1-14.9,20.7-18.3,25.5-4.3l0.4,1.1C247,54,263.8,54,267.8,42.1z"/>
	<circle style="fill:#E98F80;" cx="255.7" cy="199.2" r="112"/>
	<circle style="fill:#EB6F61;" cx="255.5" cy="200.5" r="94.3"/>
	<polygon style="fill:#FFFFFF;" points="339,91.4 253.3,192.4 217.3,162.1 188.8,195.8 258.6,254.6 372.7,119.9 	"/>
	<path style="opacity:0.25;fill:#231F20;" d="M268.3,351.4l0.2-1.2c0.4-2.4,1.4-4.3,2.7-5.9c10,18.9,52,97.9,70.4,137
		c7.3-30,21.5-69.8,21.5-69.8s6.9,12.2,63.7,23.5c0,0-43.6-39.9-77.2-104.8c8.8-0.2,16.6-9.8,11.3-19.5l-0.6-1.1
		c-6-11,5.4-23.3,16.8-18.3l1.1,0.5c13.6,6,25.1-11.6,14.1-21.6l-0.9-0.8c-9.3-8.4-2.5-23.8,10-22.7l1.2,0.1
		c14.8,1.3,20-19.2,6.3-25.1l-1.1-0.5c-11.5-5-10.1-21.7,2-24.7l1.2-0.3c14.4-3.6,12.7-24.6-2.1-25.8l-1.2-0.1
		c-12.5-1-16.6-17.3-6.1-24.1l1-0.7c12.5-8.1,4-27.4-10.4-23.7l-1.2,0.3c-12.1,3.1-21.3-10.9-13.6-20.8l0.7-0.9
		c9.2-11.7-5.1-27.2-17.5-19l-1,0.7c-10.5,6.9-23.7-3.4-19.6-15.2l0.4-1.1c4.9-14-13.7-24.1-22.7-12.3l-0.7,1
		c-7.7,9.9-23.5,4.5-23.5-8.1l0-1.2c0.1-14.9-20.7-18.3-25.5-4.3l-0.4,1.1c-2,5.9-7.2,8.9-12.4,8.9v311.4
		C261.2,362.4,267.1,358.7,268.3,351.4z"/>
</g>
</svg>
