<svg xmlns="http://www.w3.org/2000/svg"
	 viewBox="0 0 512 512">
<g>
	<circle style="opacity:0.2;fill:#A0DCF8;" cx="208.5" cy="211.3" r="119.1"/>
	<path style="fill:#6E5C50;" d="M208.5,64.6c-81.1,0-146.8,65.7-146.8,146.8c0,81.1,65.7,146.8,146.8,146.8
		c81.1,0,146.8-65.7,146.8-146.8C355.3,130.3,289.6,64.6,208.5,64.6z M208.5,330.5c-65.8,0-119.1-53.3-119.1-119.1
		c0-65.8,53.3-119.1,119.1-119.1c65.8,0,119.1,53.3,119.1,119.1C327.7,277.1,274.3,330.5,208.5,330.5z"/>
	<path style="opacity:0.3;fill:#5D5E5E;" d="M208.5,109.3c51.6,0,96,30.7,116,74.9c-12.3-52.7-59.5-92-116-92
		c-56.5,0-103.7,39.3-116,92C112.5,140.1,156.9,109.3,208.5,109.3z"/>
	<path style="fill:#6E5C50;" d="M444.5,404.3L371,330.7c-4.2-4.2-10.6-4.8-15.5-1.8l-23.4-23.4l-25.3,25.3l23.2,23.2
		c-3.4,4.9-3,11.8,1.4,16.1l73.5,73.5c4.9,4.9,13,4.9,17.9,0l21.6-21.6C449.5,417.2,449.5,409.2,444.5,404.3z"/>
</g>
</svg>
